<?xml version="1.0" encoding="UTF-8"?><svg xmlns="http://www.w3.org/2000/svg" viewBox="0 0 758.26 1056.94"><defs><style>.c{fill:#fff;}</style></defs><g id="a"/><g id="b"><g><g><g><path class="c" d="M398.79,174.15c-2.77,.32-5.8,.5-9.1,.53l-10.99,.1v-27.89h21.12v4.08h-16.32v19.68l8.11-.05c2.14-.06,4.57-.22,7.27-.48,2.7-.26,4.36-.45,4.97-.58v3.98c-.61,.1-2.3,.3-5.06,.62Zm9.29,10.18v-42.24h4.8v42.24h-4.8Z"/><path class="c" d="M444.32,175.92c-1.79-1.22-3.82-2.96-6.1-5.23-2.27-2.27-3.73-4.48-4.37-6.62-.77,2.4-2.28,4.86-4.54,7.37-2.26,2.51-4.47,4.44-6.65,5.78l-3.94-3.26c5.6-3.23,9.08-6.87,10.44-10.92,1.36-4.05,2.04-7.1,2.04-9.14v-3.17h-9.55v-4.18h24.48v4.18h-9.6v3.17c0,1.98,.63,4.85,1.9,8.59,1.26,3.74,4.33,6.99,9.19,9.74l-3.31,3.7Zm12-33.84v16.66h6.29v4.37h-6.29v21.22h-4.8v-42.24h4.8Z"/><path class="c" d="M485.43,161.88c-2.19,2.1-5,3.14-8.42,3.14s-6.18-1.05-8.38-3.14c-2.19-2.1-3.29-4.63-3.29-7.61s1.1-5.52,3.29-7.63,4.98-3.17,8.38-3.17,6.23,1.06,8.42,3.17c2.19,2.11,3.29,4.66,3.29,7.63s-1.1,5.51-3.29,7.61Zm-3.41-12.29c-1.17-1.3-2.84-1.94-5.02-1.94s-3.8,.65-4.97,1.94c-1.17,1.3-1.75,2.86-1.75,4.68s.58,3.34,1.75,4.63c1.17,1.3,2.82,1.94,4.97,1.94s3.85-.65,5.02-1.94c1.17-1.3,1.75-2.84,1.75-4.63s-.58-3.38-1.75-4.68Zm-10.1,33.77v-13.39h4.9v9.36h26.45v4.03h-31.34Zm25.58-10.7v-30.58h4.8v30.58h-4.8Z"/><path class="c" d="M529.95,172.18c-2.05,2.85-4.83,4.27-8.35,4.27s-6.28-1.42-8.38-4.25c-2.1-2.83-3.14-6.62-3.14-11.35s1.05-8.56,3.14-11.38c2.1-2.82,4.89-4.22,8.38-4.22s6.3,1.41,8.35,4.22c2.05,2.82,3.07,6.61,3.07,11.38s-1.02,8.48-3.07,11.33Zm-3.36-19.32c-1.15-2.26-2.8-3.38-4.94-3.38s-3.82,1.14-5.02,3.41c-1.2,2.27-1.8,4.91-1.8,7.92s.6,5.74,1.8,7.99c1.2,2.26,2.87,3.38,5.02,3.38s3.79-1.13,4.94-3.38c1.15-2.26,1.73-4.92,1.73-7.99s-.58-5.69-1.73-7.94Zm14.83,31.46v-42.24h4.8v42.24h-4.8Z"/><path class="c" d="M568.35,179.04v-4.03h18.72v-9.55h4.8v9.55h18.72v4.03h-42.24Zm26.57-21.82c1.94,2.99,6.26,5.59,12.98,7.8l-3.12,3.36c-2.69-.64-5.54-2.02-8.57-4.15-3.02-2.13-5.27-4.54-6.74-7.22-1.18,2.24-3.08,4.44-5.69,6.6-2.61,2.16-5.82,3.75-9.62,4.78l-3.12-3.36c7.07-2.21,11.49-4.81,13.25-7.8,1.76-2.99,2.64-5.22,2.64-6.7v-.62h-13.58v-4.03h32.26v4.03h-13.58v.62c0,1.47,.97,3.7,2.9,6.7Z"/><path class="c" d="M612.51,163.06v-4.03h30.19c.26-1.09,.6-2.74,1.03-4.97,.43-2.22,.73-4.3,.89-6.22h-27.26v-4.03h32.78c-.16,3.49-.55,6.62-1.18,9.38-.62,2.77-1.08,4.71-1.37,5.83h7.15v4.03h-42.24Zm5.47,20.78v-16.08h31.3v16.08h-31.3Zm26.35-12.1h-21.46v8.11h21.46v-8.11Z"/></g><path class="c" d="M706.25,237.01l-21.12-20.47H329.29c-29.35,0-53.22-23.87-53.22-53.22s23.87-53.22,53.22-53.22h364.17c29.35,0,53.22,23.87,53.22,53.22,0,24.6-16.6,45.78-40.43,51.66v22.03ZM329.29,111.1c-28.79,0-52.22,23.43-52.22,52.22s23.43,52.22,52.22,52.22h356.24l19.72,19.11v-20.46l.38-.09c23.58-5.63,40.04-26.52,40.04-50.78,0-28.79-23.43-52.22-52.22-52.22H329.29Z"/></g><g><g><path class="c" d="M202.68,419.45v-10.46h4.8v42.24h-4.8v-16.27h-9.36c-.83,2.62-2.14,4.68-3.94,6.17-1.79,1.49-3.95,2.23-6.48,2.23-3.49,0-6.27-1.42-8.35-4.25s-3.12-6.62-3.12-11.35,1.04-8.56,3.12-11.38c2.08-2.82,4.86-4.22,8.35-4.22,2.37,0,4.41,.64,6.12,1.92,1.71,1.28,3.02,3.07,3.91,5.38h9.74Zm-14.76,.31c-1.14-2.26-2.79-3.38-4.97-3.38s-3.81,1.14-4.99,3.41c-1.18,2.27-1.78,4.91-1.78,7.92s.59,5.74,1.78,7.99c1.18,2.26,2.85,3.38,4.99,3.38s3.83-1.13,4.97-3.38c1.14-2.26,1.7-4.92,1.7-7.99s-.57-5.69-1.7-7.94Zm14.76,10.92v-7.01h-8.59c.1,.64,.17,1.3,.22,1.97,.05,.67,.07,1.38,.07,2.11,0,.51,0,1.01-.02,1.49-.02,.48-.06,.96-.12,1.44h8.45Z"/><path class="c" d="M232.84,430.25c-3.18,6.02-8.12,10.56-14.81,13.63l-3.6-2.83c6.3-2.85,10.77-6.64,13.39-11.38,2.62-4.74,4.06-8.7,4.32-11.9h-15.17v-4.03h20.69c-.03,4.99-1.64,10.5-4.82,16.51Zm14.09,20.98v-42.24h4.8v42.24h-4.8Z"/><path class="c" d="M300.21,432.7c-1.66-.45-3.55-1.42-5.66-2.9-2.11-1.49-3.92-3.21-5.42-5.16-.74,1.86-2.31,3.69-4.73,5.5-2.42,1.81-4.52,3.05-6.31,3.72l-3.36-3.36c5.22-2.08,8.5-4.5,9.84-7.25,1.34-2.75,2.02-4.94,2.02-6.58v-1.06h-8.93v-4.03h23.04v4.03h-8.93v1.06c0,1.63,.69,3.7,2.06,6.22,1.38,2.51,4.43,4.57,9.17,6.17l-2.78,3.65Zm9.65,16.87c-2.72,1.55-6.7,2.33-11.95,2.33s-9.19-.78-11.93-2.33c-2.74-1.55-4.1-3.53-4.1-5.93s1.37-4.43,4.1-6c2.74-1.57,6.71-2.35,11.93-2.35s9.23,.78,11.95,2.35c2.72,1.57,4.08,3.57,4.08,6s-1.36,4.38-4.08,5.93Zm-4.1-9.26c-1.97-.85-4.57-1.27-7.8-1.27s-5.9,.41-7.9,1.22c-2,.82-3,1.93-3,3.34s1,2.46,3,3.34c2,.88,4.63,1.32,7.9,1.32s5.83-.42,7.8-1.27c1.97-.85,2.95-1.94,2.95-3.29s-.98-2.54-2.95-3.38Zm2.9-5.74v-11.66h-8.5v-4.18h8.5v-9.74h4.8v25.58h-4.8Z"/><path class="c" d="M339.67,430.59c-3.52,.29-6.8,.43-9.84,.43h-8.59v-11.76h15.5v-4.32h-15.5v-3.84h20.3v11.95h-15.5v4.03h5.57c2.08,0,4.81-.14,8.18-.43,3.38-.29,5.56-.51,6.55-.67v3.94c-.93,.16-3.15,.38-6.67,.67Zm-13.49,20.16v-10.32h24.86v-3.22h-24.86v-3.65h30.05v10.32h-24.72v3.22h25.73v3.65h-31.06Zm25.39-19.2v-7.15h-7.39v-3.65h7.39v-3.07h-7.39v-3.65h7.39v-5.04h4.8v22.56h-4.8Z"/><path class="c" d="M362.08,430.54v-3.7h42.24v3.7h-42.24Zm33.22-19.66c2.72,1.49,4.08,3.3,4.08,5.45s-1.36,4.08-4.08,5.52c-2.72,1.44-6.75,2.16-12.1,2.16s-9.34-.71-12.1-2.14c-2.75-1.42-4.13-3.26-4.13-5.5s1.38-4.05,4.13-5.52c2.75-1.47,6.78-2.21,12.1-2.21s9.38,.74,12.1,2.23Zm-27.74,39.86v-10.42h26.16v-3.07h-26.16v-3.6h31.3v10.18h-26.21v3.26h27.26v3.65h-32.35Zm23.54-37.32c-1.94-.78-4.58-1.18-7.94-1.18s-6.08,.38-7.97,1.15c-1.89,.77-2.83,1.74-2.83,2.93s.98,2.18,2.93,2.98c1.95,.8,4.62,1.2,8.02,1.2s5.94-.4,7.85-1.2c1.9-.8,2.86-1.78,2.86-2.93s-.97-2.17-2.9-2.95Z"/><path class="c" d="M445.72,441.05c-2.77,.32-5.8,.5-9.1,.53l-10.51,.1v-27.89h20.64v4.08h-15.84v19.68l7.63-.05c2.14-.06,4.57-.22,7.27-.48,2.7-.26,4.36-.45,4.97-.58v3.98c-.61,.1-2.3,.3-5.06,.62Zm13.18-32.06v16.9h6.38v4.22h-6.38v21.12h-4.8v-42.24h4.8Z"/><path class="c" d="M493.79,443.17c-1.86-.83-3.93-2.5-6.22-5.02-2.29-2.51-3.99-5.06-5.11-7.66-.67,2.34-2.21,4.88-4.61,7.63-2.4,2.75-4.64,4.72-6.72,5.9l-3.84-3.02c4.45-2.46,7.66-5.6,9.65-9.41,1.98-3.81,2.98-8.3,2.98-13.49v-6.67h5.04v6.67c0,5.25,1.02,9.57,3.05,12.96,2.03,3.39,5.03,6.27,9,8.64l-3.22,3.46Zm7.73,8.06v-42.24h4.8v42.24h-4.8Z"/></g><path class="c" d="M140.7,503.92v-22.03c-23.82-5.88-40.43-27.06-40.43-51.66,0-29.35,23.87-53.22,53.22-53.22h364.17c29.35,0,53.22,23.87,53.22,53.22s-23.87,53.22-53.22,53.22H161.83l-21.12,20.47Zm12.79-125.91c-28.79,0-52.22,23.43-52.22,52.22,0,24.26,16.47,45.14,40.04,50.78l.38,.09v20.46l19.72-19.11h356.24c28.79,0,52.22-23.43,52.22-52.22s-23.43-52.22-52.22-52.22H153.5Z"/></g><g><g><path class="c" d="M369.27,650.56c-3.57,.27-6.3,.41-8.18,.41v7.06h-4.8v-7.01h-10.42v-4.08h13.54c2.46,0,5.65-.13,9.55-.38,3.9-.26,6.69-.51,8.35-.77v4.03c-1.79,.22-4.47,.47-8.04,.74Zm-18.89-6.89v-13.3h21.65v13.3h-21.65Zm2.45,26.93v-10.99h4.8v6.96h26.93v4.03h-31.73Zm14.45-36.38h-12.1v5.62h12.1v-5.62Zm11.57,27.22v-4.18h-9.98v-3.94h9.98v-24h4.75v32.11h-4.75Z"/><path class="c" d="M407.96,650.58c-3.18,6.02-8.12,10.56-14.81,13.63l-3.6-2.83c6.3-2.85,10.77-6.64,13.39-11.38,2.62-4.74,4.06-8.7,4.32-11.9h-15.17v-4.03h20.69c-.03,4.99-1.64,10.5-4.82,16.51Zm17.21-21.26v17.42h6.48v4.27h-6.48v20.54h-4.8v-42.24h4.8Z"/><path class="c" d="M476,653.03c-1.66-.45-3.55-1.42-5.66-2.9-2.11-1.49-3.92-3.21-5.42-5.16-.74,1.86-2.31,3.69-4.73,5.5-2.42,1.81-4.52,3.05-6.31,3.72l-3.36-3.36c5.22-2.08,8.5-4.5,9.84-7.25,1.34-2.75,2.02-4.94,2.02-6.58v-1.06h-8.93v-4.03h23.04v4.03h-8.93v1.06c0,1.63,.69,3.7,2.06,6.22,1.38,2.51,4.43,4.57,9.17,6.17l-2.78,3.65Zm9.65,16.87c-2.72,1.55-6.71,2.33-11.95,2.33s-9.19-.78-11.93-2.33c-2.74-1.55-4.1-3.53-4.1-5.93s1.37-4.43,4.1-6c2.74-1.57,6.71-2.35,11.93-2.35s9.23,.78,11.95,2.35c2.72,1.57,4.08,3.57,4.08,6s-1.36,4.38-4.08,5.93Zm-4.1-9.26c-1.97-.85-4.57-1.27-7.8-1.27s-5.9,.41-7.9,1.22-3,1.93-3,3.34,1,2.46,3,3.34c2,.88,4.63,1.32,7.9,1.32s5.83-.42,7.8-1.27c1.97-.85,2.95-1.94,2.95-3.29s-.98-2.54-2.95-3.38Zm2.9-5.74v-11.66h-8.5v-4.18h8.5v-9.74h4.8v25.58h-4.8Z"/><path class="c" d="M493.71,655.62v-4.03h18.62v-5.42h-13.15v-15.46h31.3v4.03h-26.5v7.39h26.98v4.03h-13.63v5.42h18.62v4.03h-42.24Zm5.47,14.98v-12.05h4.9v8.02h27.6v4.03h-32.5Z"/><path class="c" d="M562.86,655.19c-3.7,.29-8.06,.43-13.08,.43h-10.37v-4.03h13.25v-5.66h-9.31v-14.74h23.38v3.94h-18.58v6.82h19.06v3.98h-9.7v5.57c1.73-.06,3.93-.19,6.6-.38,2.67-.19,4.89-.4,6.65-.62v3.98c-1.57,.19-4.2,.43-7.9,.72Zm-16.2,15.41v-12.05h4.85v8.02h26.54v4.03h-31.39Zm25.68-9.89v-31.39h4.8v31.39h-4.8Z"/><path class="c" d="M598.83,665.46v-4.03h42.24v4.03h-42.24Zm5.62-12.62v-20.54h4.8v16.51h27.07v4.03h-31.87Z"/><path class="c" d="M656.72,643.14c-2.02,3.84-5.07,6.85-9.17,9.02l-3.31-2.35c3.04-1.54,5.46-3.67,7.25-6.41,1.79-2.74,2.8-5.16,3.02-7.27h-7.58v-3.98h13.01c-.13,3.49-1.2,7.15-3.22,10.99Zm-4.56,27.94v-15.65h30.62v15.65h-30.62Zm25.82-11.62h-21.02v7.58h21.02v-7.58Zm-7.9-16.18c-1.49,3.94-4.55,7.38-9.19,10.32l-3.84-2.21c3.46-2.21,5.96-4.69,7.51-7.44,1.55-2.75,2.47-5.36,2.76-7.82h-6.19v-3.98h11.57c-.26,3.49-1.13,7.2-2.62,11.14Zm8.04,10.03v-24h4.8v24h-4.8Z"/></g><path class="c" d="M706.25,728.63l-21.12-20.47H329.29c-29.35,0-53.22-23.87-53.22-53.22s23.87-53.22,53.22-53.22h364.17c29.35,0,53.22,23.87,53.22,53.22,0,24.6-16.6,45.78-40.43,51.66v22.03Zm-376.96-125.91c-28.79,0-52.22,23.43-52.22,52.22s23.43,52.22,52.22,52.22h356.24l19.72,19.11v-20.46l.38-.09c23.58-5.63,40.04-26.52,40.04-50.78,0-28.79-23.43-52.22-52.22-52.22H329.29Z"/></g><g><g><path class="c" d="M269.11,963.31c-1.66-.64-3.72-1.73-6.17-3.26-2.45-1.54-4.04-3.18-4.78-4.94-.99,1.86-2.46,3.64-4.42,5.35-1.95,1.71-4.16,3.02-6.62,3.91l-3.36-3.36c3.52-1.31,6.38-3.06,8.57-5.26,2.19-2.19,3.29-4.66,3.29-7.42h-8.98v-3.98h23.04v3.98h-8.98c0,2.72,1.31,5.13,3.94,7.22,2.62,2.1,5.07,3.45,7.34,4.06l-2.88,3.7Zm-17.38,20.4v-10.61h24.19v-3.12h-24.19v-3.84h29.33v10.61h-24.29v3.17h25.25v3.79h-30.29Zm29.33-28.9v9.31h-4.8v-22.18h4.8v8.69h6.19v4.18h-6.19Z"/><path class="c" d="M304.24,978.96v-4.03h18.58v-8.06h-12.82v-22.37h4.8v7.3h21.12v-7.3h4.85v22.37h-12.96v8.06h18.62v4.03h-42.19Zm31.68-23.14h-21.12v7.01h21.12v-7.01Z"/><path class="c" d="M370.96,972.05c-2.05,2.85-4.83,4.27-8.35,4.27s-6.28-1.42-8.38-4.25c-2.1-2.83-3.14-6.62-3.14-11.35s1.05-8.56,3.14-11.38c2.1-2.82,4.89-4.22,8.38-4.22s6.3,1.41,8.35,4.22c2.05,2.82,3.07,6.61,3.07,11.38s-1.02,8.48-3.07,11.33Zm-3.36-19.32c-1.15-2.26-2.8-3.38-4.94-3.38s-3.82,1.14-5.02,3.41c-1.2,2.27-1.8,4.91-1.8,7.92s.6,5.74,1.8,7.99c1.2,2.26,2.87,3.38,5.02,3.38s3.79-1.13,4.94-3.38c1.15-2.26,1.73-4.92,1.73-7.99s-.58-5.69-1.73-7.94Zm14.83,31.46v-42.24h4.8v42.24h-4.8Z"/><path class="c" d="M409.6,962.98c-2.37,5.63-6.46,10.19-12.29,13.68l-3.55-2.74c4.8-2.59,8.36-6.12,10.68-10.58,2.32-4.46,3.46-8.44,3.43-11.93h-11.57v-4.08h16.85c0,4.8-1.18,10.02-3.55,15.65Zm8.88,19.3v-19.54h-5.95v-4.51h5.95v-15.26h4.66v39.31h-4.66Zm8.88,1.92v-42.24h4.66v42.24h-4.66Z"/></g><path class="c" d="M140.7,1041.27v-22.03c-23.82-5.88-40.43-27.06-40.43-51.66,0-29.35,23.87-53.22,53.22-53.22h364.17c29.35,0,53.22,23.87,53.22,53.22s-23.87,53.22-53.22,53.22H161.83l-21.12,20.47Zm12.79-125.91c-28.79,0-52.22,23.43-52.22,52.22,0,24.26,16.47,45.14,40.04,50.78l.38,.09v20.46l19.72-19.11h356.24c28.79,0,52.22-23.43,52.22-52.22s-23.43-52.22-52.22-52.22H153.5Z"/></g><g><g><path d="M329.29,689.05h364.17c29.12,0,52.72,23.6,52.72,52.72h0c0,24.88-17.24,45.72-40.43,51.26v21.24l-20.42-19.79H329.29c-29.12,0-52.72-23.6-52.72-52.72h0c0-29.12,23.6-52.72,52.72-52.72Z"/><path class="c" d="M706.25,815.47l-21.12-20.47H329.29c-29.35,0-53.22-23.87-53.22-53.22s23.87-53.22,53.22-53.22h364.17c29.35,0,53.22,23.87,53.22,53.22,0,24.6-16.6,45.78-40.43,51.66v22.03Zm-376.96-125.91c-28.79,0-52.22,23.43-52.22,52.22s23.43,52.22,52.22,52.22h356.24l19.72,19.11v-20.46l.38-.09c23.58-5.63,40.04-26.51,40.04-50.78,0-28.79-23.43-52.22-52.22-52.22H329.29Z"/></g><g><path class="c" d="M380.67,746.25c-2.05,2.85-4.83,4.27-8.35,4.27s-6.28-1.42-8.38-4.25c-2.1-2.83-3.14-6.62-3.14-11.35s1.05-8.56,3.14-11.38c2.1-2.82,4.89-4.22,8.38-4.22s6.3,1.41,8.35,4.22c2.05,2.82,3.07,6.61,3.07,11.38s-1.02,8.48-3.07,11.33Zm-3.36-19.32c-1.15-2.26-2.8-3.38-4.94-3.38s-3.82,1.14-5.02,3.41c-1.2,2.27-1.8,4.91-1.8,7.92s.6,5.74,1.8,7.99c1.2,2.26,2.87,3.38,5.02,3.38s3.79-1.13,4.94-3.38c1.15-2.26,1.73-4.92,1.73-7.99s-.58-5.69-1.73-7.94Zm14.83,31.46v-42.24h4.8v42.24h-4.8Z"/><path class="c" d="M423.9,736.33c-2.96,.21-5.8,.33-8.52,.36l-9.79,.1v-11.18h15.46v-3.89h-15.46v-3.94h20.26v11.33h-15.46v3.84l6.77-.1c2.08-.03,4.49-.14,7.22-.34,2.74-.19,4.84-.4,6.31-.62v3.79c-1.57,.22-3.83,.44-6.79,.65Zm-15.53,11.02v-3.6h33.07v3.6h-33.07Zm27.36,10.32c-2.56,.93-6.13,1.39-10.7,1.39s-7.99-.46-10.63-1.39c-2.64-.93-3.96-2.24-3.96-3.94s1.34-2.93,4.01-3.89c2.67-.96,6.18-1.44,10.54-1.44s7.91,.48,10.58,1.44c2.67,.96,4.01,2.26,4.01,3.89s-1.28,3.01-3.84,3.94Zm-4.34-5.45c-1.68-.24-3.8-.36-6.36-.36s-4.61,.12-6.34,.36c-1.73,.24-2.59,.76-2.59,1.56,0,.7,.87,1.18,2.62,1.42,1.74,.24,3.85,.36,6.31,.36s4.56-.12,6.29-.36c1.73-.24,2.59-.71,2.59-1.42,0-.8-.84-1.32-2.52-1.56Zm-14.38-10.39v-3.55h15.5v3.55h-15.5Zm18.91-1.63v-11.71h-7.68v-3.89h7.68v-8.45h4.8v24.05h-4.8Z"/><path class="c" d="M463.47,737.17c-2.37,5.63-6.46,10.19-12.29,13.68l-3.55-2.74c4.8-2.59,8.36-6.12,10.68-10.58,2.32-4.46,3.46-8.44,3.43-11.93h-11.57v-4.08h16.85c0,4.8-1.18,10.02-3.55,15.65Zm8.88,19.3v-19.54h-5.95v-4.51h5.95v-15.26h4.66v39.31h-4.66Zm8.88,1.92v-42.24h4.66v42.24h-4.66Z"/><path class="c" d="M507.39,740.44v-4.03h18.67v-5.71h4.9v5.71h18.67v4.03h-42.24Zm27.43-14.81c2.13,1.74,6.17,3.13,12.12,4.15l-2.93,3.5c-3.39-.35-6.49-1.31-9.29-2.88-2.8-1.57-4.86-3.02-6.17-4.37-1.22,1.63-3.33,3.14-6.34,4.54-3.01,1.39-6.05,2.3-9.12,2.71l-2.93-3.5c4.64-.74,8.3-1.9,10.97-3.48,2.67-1.58,4.25-3.18,4.73-4.78h-13.49v-3.94h32.26v3.94h-13.49c.32,.99,1.54,2.36,3.67,4.1Zm-21.96,32.28v-13.87h31.3v13.87h-31.3Zm26.5-9.84h-21.7v5.81h21.7v-5.81Z"/><path class="c" d="M580.88,738.4c-.93,.08-1.9,.15-2.93,.22l-7.34,.14v-19.97h11.86v4.03h-7.1v11.9l3.89-.14c.8-.06,1.54-.12,2.21-.17,.67-.05,1.25-.1,1.73-.17v3.94c-.61,.06-1.38,.14-2.3,.22Zm19.58,19.99v-11.04h-25.97v-4.03h30.77v15.07h-4.8Zm-4.75-20.06c-.99,.1-1.95,.18-2.88,.24-1.6,.13-3.35,.19-5.26,.19h-3.05v-19.97h12.24v4.03h-7.49v11.9l4.22-.14c.86-.06,1.72-.14,2.57-.22,.85-.08,1.61-.17,2.28-.26v3.94c-.77,.1-1.65,.19-2.64,.29Zm9.55-8.21v10.9h-4.8v-24.86h4.8v9.94h5.86v4.03h-5.86Z"/><path class="c" d="M641.89,734.65c-.9,.08-1.92,.15-3.07,.22-1.57,.1-3.14,.14-4.73,.14h-2.52v-16.46h11.9v4.03h-7.1v8.4l3.84-.1c.83-.06,1.58-.13,2.23-.19,.66-.06,1.24-.11,1.75-.14v3.89c-.64,.06-1.41,.14-2.3,.22Zm-7.34,11.74v-3.6h33.46v3.6h-33.46Zm27.6,11.14c-2.59,.99-6.18,1.49-10.75,1.49s-8.13-.48-10.75-1.44c-2.62-.96-3.94-2.3-3.94-4.03s1.31-2.99,3.94-3.98c2.62-.99,6.21-1.49,10.75-1.49s8.16,.49,10.75,1.46c2.59,.98,3.89,2.31,3.89,4.01s-1.3,2.99-3.89,3.98Zm-4.25-5.74c-1.78-.3-3.94-.46-6.5-.46s-4.82,.15-6.58,.46c-1.76,.3-2.64,.9-2.64,1.8,0,.83,.88,1.38,2.64,1.63,1.76,.26,3.95,.38,6.58,.38s4.73-.13,6.5-.38c1.78-.26,2.66-.8,2.66-1.63,0-.9-.89-1.5-2.66-1.8Zm-14.76-10.97v-3.55h15.98v3.55h-15.98Zm13.82-6.19c-.99,.1-1.95,.18-2.88,.24-1.6,.1-3.39,.14-5.38,.14h-3.22v-16.46h12.24v4.03h-7.44v8.4l4.42-.14c.86-.06,1.74-.14,2.62-.22,.88-.08,1.64-.17,2.28-.26v3.98c-.77,.1-1.65,.19-2.64,.29Zm9.26-5.62v10.27h-4.75v-23.14h4.75v8.83h5.9v4.03h-5.9Z"/></g></g><g><g><path d="M141.7,120.44l-.38-.09c-23.58-5.63-40.04-26.52-40.04-50.78,0-28.79,23.43-52.22,52.22-52.22h364.17c28.79,0,52.22,23.43,52.22,52.22s-23.43,52.22-52.22,52.22H161.42l-19.72,19.11v-20.46Z"/><path class="c" d="M517.66,17.85c28.52,0,51.72,23.2,51.72,51.72s-23.2,51.72-51.72,51.72H161.22l-.29,.28-18.73,18.15v-19.67l-.77-.18c-11.11-2.66-21.18-9.06-28.36-18.03-7.39-9.24-11.3-20.4-11.3-32.26,0-28.52,23.2-51.72,51.72-51.72h364.17m0-1H153.5c-29.12,0-52.72,23.6-52.72,52.72,0,24.88,17.24,45.72,40.43,51.26v21.24l20.42-19.79h356.04c29.12,0,52.72-23.6,52.72-52.72s-23.6-52.72-52.72-52.72h0Z"/></g><g><path class="c" d="M190.12,78.62c-2.06,2.85-4.86,4.27-8.38,4.27s-6.27-1.42-8.35-4.25-3.12-6.62-3.12-11.35,1.04-8.56,3.12-11.38c2.08-2.82,4.86-4.22,8.35-4.22s6.31,1.41,8.38,4.22c2.06,2.82,3.1,6.61,3.1,11.38s-1.03,8.48-3.1,11.33Zm-3.36-19.32c-1.14-2.26-2.79-3.38-4.97-3.38s-3.81,1.14-4.99,3.41c-1.18,2.27-1.78,4.91-1.78,7.92s.59,5.74,1.78,7.99c1.18,2.26,2.85,3.38,4.99,3.38s3.83-1.13,4.97-3.38c1.14-2.26,1.7-4.92,1.7-7.99s-.57-5.69-1.7-7.94Zm18.6-10.78v17.42h6.34v4.27h-6.34v20.54h-4.8V48.53h4.8Z"/><path class="c" d="M229.6,69.26v-3.74h18.62v-4.37h4.99v4.37h18.62v3.74h-42.24Zm30.79-10.85c3.47,1.15,6.36,1.81,8.66,1.97l-2.59,3.36c-3.39-.29-6.52-1.1-9.38-2.42-2.86-1.33-4.99-2.73-6.36-4.2-1.28,1.66-3.44,3.11-6.48,4.34-3.04,1.23-6.14,2.04-9.31,2.42l-2.59-3.36c1.98-.22,4.81-.9,8.47-2.04,3.66-1.14,6.04-2.68,7.13-4.63h-13.34v-3.89h32.26v3.89h-13.34c1.12,1.89,3.42,3.41,6.89,4.56Zm-27.48,21.55v-3.46h35.57v3.46h-35.57Zm28.46,10.39c-3.42,.75-6.94,1.13-10.56,1.13-4.06,0-7.7-.38-10.92-1.13-3.22-.75-4.82-2.1-4.82-4.06s1.63-3.26,4.9-4.03,6.88-1.15,10.85-1.15,7.46,.38,10.75,1.13c3.3,.75,4.94,2.1,4.94,4.06s-1.71,3.3-5.14,4.06Zm-20.74-15.67v-3.41h19.97v3.41h-19.97Zm16.66,10.06c-2.24-.18-4.4-.26-6.48-.26-2.24,0-4.45,.09-6.62,.26-2.18,.18-3.26,.71-3.26,1.61,0,.83,1.09,1.33,3.26,1.49,2.18,.16,4.38,.24,6.62,.24,2.02,0,4.16-.08,6.43-.24,2.27-.16,3.41-.66,3.41-1.49,0-.9-1.12-1.43-3.36-1.61Z"/><path class="c" d="M273.76,74.11v-4.08h42.24v4.08h-42.24Zm33.05-10.18c-2.74,1.7-6.73,2.54-11.98,2.54s-9.12-.85-11.9-2.54c-2.78-1.7-4.18-3.86-4.18-6.48s1.38-4.78,4.15-6.55,6.74-2.66,11.93-2.66,9.24,.88,11.98,2.64c2.74,1.76,4.1,3.95,4.1,6.58s-1.37,4.78-4.1,6.48Zm-27.62,25.87v-12h4.8v7.97h27.84v4.03h-32.64Zm23.71-36.26c-2.02-1.04-4.69-1.56-8.02-1.56s-5.95,.51-7.97,1.54c-2.02,1.02-3.02,2.32-3.02,3.89s1.03,2.83,3.1,3.79c2.06,.96,4.68,1.44,7.85,1.44s5.89-.46,7.97-1.39c2.08-.93,3.12-2.18,3.12-3.74s-1.01-2.92-3.02-3.96Z"/><path class="c" d="M336.31,81.12c-1.5,.13-3.58,.22-6.24,.29l-8.45,.1v-27.79h15.07v4.13h-10.32v19.39l5.47-.05c1.5-.03,2.98-.1,4.44-.22,1.46-.11,2.57-.23,3.34-.36v4.13c-.7,.13-1.81,.26-3.31,.38Zm6.53,7.73v-20.16h-7.97v-4.22h7.97v-14.98h4.66v39.36h-4.66Zm9.36,1.92V48.53h4.66v42.24h-4.66Z"/><path class="c" d="M362.08,85.58v-4.03h10.94v-8.35h4.85v8.35h10.8v-8.35h4.9v8.35h10.75v4.03h-42.24Zm33.12-16.42c-2.98,2.11-6.98,3.17-12,3.17s-9.1-1.06-12.05-3.17c-2.94-2.11-4.42-4.77-4.42-7.97s1.48-5.84,4.44-7.92c2.96-2.08,6.97-3.12,12.02-3.12s9.1,1.03,12.05,3.1c2.94,2.06,4.42,4.71,4.42,7.94s-1.49,5.86-4.46,7.97Zm-3.91-12.98c-2.22-1.2-4.92-1.8-8.09-1.8s-5.82,.6-8.06,1.8c-2.24,1.2-3.36,2.89-3.36,5.06s1.12,3.82,3.36,5.04c2.24,1.22,4.93,1.82,8.06,1.82s5.82-.61,8.06-1.82c2.24-1.22,3.36-2.9,3.36-5.04s-1.11-3.86-3.34-5.06Z"/><path class="c" d="M423.04,71.81v-4.03h29.9c.29-1.22,.67-3.26,1.15-6.14,.48-2.88,.82-5.33,1.01-7.34h-27.12v-4.03h32.64c-.1,1.38-.45,4.21-1.06,8.5-.61,4.29-1.2,7.3-1.78,9.02h7.49v4.03h-42.24Zm5.47,18v-14.54h4.85v10.51h27.74v4.03h-32.59Z"/><path class="c" d="M485.59,81.12c-1.5,.13-3.58,.22-6.24,.29l-8.45,.1v-27.79h15.07v4.13h-10.32v19.39l5.47-.05c1.5-.03,2.98-.1,4.44-.22,1.46-.11,2.57-.23,3.34-.36v4.13c-.7,.13-1.81,.26-3.31,.38Zm6.53,7.73v-20.16h-7.97v-4.22h7.97v-14.98h4.66v39.36h-4.66Zm9.36,1.92V48.53h4.66v42.24h-4.66Z"/></g></g></g></g></svg>