<?xml version="1.0" encoding="UTF-8"?><svg xmlns="http://www.w3.org/2000/svg" viewBox="0 0 222.25 261.07"><defs><style>.d{fill:#fff;}</style></defs><g id="a"/><g id="b"><g><polygon class="d" points="159.56 118.37 145.1 61.9 165.76 56.62 80.13 5.88 29.4 91.52 50.06 86.23 64.51 142.7 78.96 199.16 58.3 204.45 143.94 255.18 194.67 169.54 174.01 174.83 159.56 118.37"/><polygon class="d" points="122.3 170.64 169.95 158.44 174.42 175.88 217.24 103.6 144.96 60.79 149.42 78.23 101.77 90.42 54.11 102.62 49.65 85.18 6.83 157.46 79.11 200.28 74.64 182.84 122.3 170.64"/><g><path d="M71.52,67.1l-1.34-5.24,14.53-3.72,1.34,5.24,10.24-2.62,1.95,7.62c.39,1.54,.29,2.75-.3,3.63-.59,.89-1.65,1.52-3.19,1.92l-25.56,6.54c-1.54,.39-2.77,.34-3.72-.15-.94-.49-1.61-1.5-2-3.04l-1.95-7.62,10-2.56Zm32.52,24.92c.79,3.07,.46,5.75-.99,8.04-1.44,2.29-3.73,3.83-6.85,4.63l-12.86,3.29c-3.12,.8-5.87,.54-8.23-.77-2.37-1.31-3.94-3.5-4.73-6.57l-1.99-7.78c-.79-3.07-.46-5.75,.99-8.04,1.45-2.29,3.73-3.83,6.85-4.63l12.86-3.29c3.12-.8,5.87-.54,8.23,.77,2.37,1.31,3.94,3.5,4.73,6.57l1.99,7.78Zm41.54,21.17c.91,3.55,.35,6.61-1.67,9.18-2.02,2.58-4.91,4.34-8.67,5.31l-34.93,8.94c-3.71,.95-7.08,.78-10.11-.5-3.04-1.28-5.01-3.7-5.91-7.24l-1.89-7.38c-.91-3.55-.33-6.58,1.73-9.11,2.06-2.53,4.94-4.27,8.65-5.22l34.93-8.94c3.76-.96,7.13-.82,10.13,.41,2.99,1.24,4.95,3.63,5.85,7.17l1.89,7.38Zm-56.91-21.39c-.15-.58-.4-.95-.75-1.12-.35-.16-1.03-.12-2.04,.14l-.32,.08c-1.01,.26-1.62,.54-1.85,.85-.23,.31-.27,.76-.12,1.34,.14,.53,.38,.89,.74,1.08,.36,.19,1.04,.16,2.05-.1l.32-.08c1-.26,1.62-.55,1.84-.9,.22-.34,.27-.77,.13-1.3Zm39.72,21.64c-.2-.79-.6-1.37-1.2-1.72-.6-.35-1.74-.31-3.44,.12l-20.8,5.32c-1.64,.42-2.68,.94-3.11,1.56-.43,.62-.55,1.32-.35,2.12l.06,.24c.2,.79,.64,1.35,1.31,1.65s1.83,.25,3.47-.17l20.8-5.32c1.69-.43,2.72-.94,3.08-1.51s.44-1.25,.24-2.05l-.06-.24Zm9.92-25.04c.38,1.48,.08,2.89-.91,4.21-.99,1.32-2.25,2.18-3.78,2.58l-8.65,2.22-4-15.64-2.14,.55,2.76,10.8c.37,1.43,.16,2.72-.61,3.88-.78,1.16-2.06,1.97-3.86,2.43l-8.97,2.3-10.81-42.24,14.69-3.76,3.41,13.34,2.14-.55-3.41-13.34,14.69-3.76,9.47,37Z"/><path d="M86.32,149.72c-1.27,.33-2.51,.18-3.71-.45-1.2-.62-2-1.7-2.39-3.24l-1.97-7.36,40.33-10.32,3.17,12.39c2.29,8.95,1.01,17.21-3.85,24.8-4.85,7.59-14.32,13.18-28.4,16.79l-3.19-12.46c7.73-1.98,13.19-4.94,16.38-8.89,3.19-3.95,4.29-7.85,3.3-11.72l-1.1-4.29-18.58,4.76Zm17.95,59.87c-1.64,.42-3.04,.31-4.19-.32-1.15-.64-1.93-1.75-2.33-3.34l-5.75-22.47,16.2-4.15,3.86,15.08,40.81-10.45,1.89,7.38c.41,1.59,.25,2.94-.48,4.06-.73,1.12-1.91,1.89-3.55,2.31l-46.44,11.89Zm36.75-70.57l10.48-2.68,2.32,9.05c.42,1.64,.24,2.96-.55,3.95-.79,.99-2.06,1.71-3.8,2.16l-4.92,1.26,4.61,18.02c.42,1.64,.2,3.09-.66,4.36-.86,1.26-2.22,2.13-4.07,2.61l-10,2.56-13.49-52.72,16.12-4.13,3.98,15.56Z"/></g></g></g><g id="c"/></svg>