<?xml version="1.0" encoding="UTF-8"?><svg xmlns="http://www.w3.org/2000/svg" xmlns:xlink="http://www.w3.org/1999/xlink" viewBox="0 0 180.2 175.2"><defs><style>.e{fill:none;}.f{fill:#022eff;}.g{fill:#fff;}.h{clip-path:url(#c);}</style><clipPath id="c"><rect class="e" x="17.35" y="15.59" width="145.49" height="145.49" transform="translate(-15.9 19.88) rotate(-11.58)"/></clipPath></defs><g id="a"/><g id="b"><g><g class="h"><rect class="f" x="3.47" y="11.61" width="169.08" height="158.31" transform="translate(-16.43 19.51) rotate(-11.58)"/><g><g><path d="M51.27,15.16c-1.59-2.82-4.49-4.59-6.29-7.23-.95-1.55-1.81-3.43-1.16-5.26,.16-.87,.24-1.68,.39-2.47,.29-1.59,.96-3.17,2.01-4.76,1.57-2.38,3.48-3.97,5.72-4.78,2.24-.8,4.54-.96,6.9-.47,2.36,.49,4.57,1.41,6.62,2.76,1.51,1,2.88,2.07,4.1,3.21,.61,.57,1.15,1.11,1.61,1.62s.85,1,1.15,1.46c-1.6,2.31-2.98,4.81-4.73,7.11l-.88,1.32c-.29-.91-.88-1.93-1.78-3.05-.9-1.12-1.91-2.05-3.03-2.8-1.1-.73-2.15-1.27-3.14-1.63-.99-.36-1.86-.49-2.62-.39-.76,.1-1.35,.46-1.77,1.1-.46,.7-.56,1.42-.29,2.18,.26,.76,.77,1.5,1.51,2.23,.74,.73,1.65,1.44,2.71,2.14,1.45,.96,2.97,1.63,4.55,2.02,1.58,.39,3.01,.49,4.3,.31l-2.46,3.72c-.35,.18-.59,.44-.85,.68-1.52,.46-2.66,1.8-2.66,3.38-2.89-.2-5.75-.25-8.43-1.61-.48-.23-.98-.48-1.49-.81Z"/><path d="M61.09,18.43c1.04-2.46,4.11-2.14,5.9-3.73,.36-.31,.71-.62,1.06-.93s.68-.62,1.01-.92c0,0,.72-.67,1.56-1.23,4.04-1.69,4.62-7.35,7.92-8.98,1.27-.74,3.65,1.62,5.35,3.1l1.05,.7,1.08,.71c.36,.24,.72,.47,1,.82,1.31,1.52,2.92,2.46,4.54,3.39,3.29,2.17-.46,5.47-1.88,7.82-.33,.7-.51,1.37-.88,2.11l-.68,1.85-.68,1.85c-1.74,3.48-2.97,6.99-4.83,10.63-4.65-3.61-12.55-7.2-4.73-12.03l-3.81-2.55-.27,.28c-.89,1.95-2.51,3.58-4.25,4.59-1.01-1.75-3.01-1.99-4.01-3.58-1.03-.85-2.12-1.57-3.05-2.68-.8-.88-1.41-1.23-1.41-1.23Zm18.21,2.09l.67-2.35c.16-.59,.37-1.18,.63-1.77,.25-.6,.53-1.19,.83-1.77,.06-.1,.12-.19,.17-.29,.05-.09,.09-.19,.14-.3l-.41-.27c-.13,.16-.26,.31-.37,.44-.12,.13-.23,.27-.36,.41-.36,.43-.73,.84-1.1,1.23-.37,.39-.79,.79-1.24,1.18l-1.89,1.54,2.93,1.94Z"/><path d="M100.31,49.07c-2.75-4.14-2.52-9.4-.17-13.79,.37-1.38-.51-2.5-1.63-1.62-1.99,3.01-5.48,5.03-5.21,9.54-3.64-1.86-6.41-5.85-10.05-7.71,5.87-3.16,9.09-9.68,14.13-14.23,1.76-1.47,1.54-4.12,.8-6.18,2.06-.74,4.56-.14,5.42,1.74,2.24,4.93,9,6.15,10.52,10.4,.51,2.5,1.28,6.25-1.46,8.77-2.87,1.89-7.25,2.79-9.26-.71-.35,4.63,4.53,6.24,7.15,3.09-4.62,2.9-4.33,10.66-9.55,11.47-.25-.19-.47-.46-.68-.76Zm2.07-15.36c.89,.93,2.14,.68,2.5-.7,.24-2-2.39-2.12-2.77-3.99-.5,.75-1.62,1.63-2.02,2.58l2.28,2.11Z"/><path d="M103.83,52.12c3.85-8.62,10.33-15.15,17.56-21.2,3.53,4.49,7.29,6.97,11.31,10.71-6.73,5.29-10.13,1.42-17.63,2.96,2.13,.87,3.88-.14,6.01,.72-1.6,4.89-5.26-.23-8.75,1.79,2.76,.74,6.14,1.35,9.39,1.33-4.99,4.28-9.33,11.68-16.2,4.94-1.02-.72-1.69-1.27-1.69-1.27Z"/><path d="M117.16,56c4.31-8.81,15.43-11.74,23.06-12.65,7-.78,15.67,6.56,19.84,14.17,1.27,3-4.62,2.9-5.35,5.66-3.16-5.87-9.44-11.09-16.83-12.18,3.77,2.49,8.03,4.22,11.92,7.33-6.38,.66-9.29-7.21-14.79-5.44-4.38,.9-8.86,4.42-13.59,3.21-2.35-.14-4.26-.1-4.26-.1Z"/><path d="M162.14,83.77c-4.1-4.34-9.13-9.82-7.53-14.71,1.11-4.13,6.86-4.66,10.34-9.94,1.49-2.26,4.89,1.6,6.97,4.7,.56,.37,1.08,.72,1.53,1.01l1.49,.98c-.91,.87-1.97,2.07-3.19,3.55-2.23,2.49-7.48,5.52-4.08,9.38,1.63,1.62,3.64,1.86,5.24-1.02l.44-.66c.97-1.47,1.91-3.06,2.83-4.76,.92-1.7,1.6-3.14,2.04-4.32l9.53,6.29c-.91,.87-1.97,2.07-3.17,3.58-1.21,1.51-2.3,3-3.27,4.48l-1.97,2.99c-1.32,2-2.83,3.42-4.55,4.18-4.56,1.76-8.45-1.35-11.57-4.18-.36-.49-.71-1.02-1.08-1.56Z"/><path d="M192.58,107.28c-.83-.55-1.55-1.1-2.14-1.66-.59-.56-1.3-1.27-2.11-2.14-.93-1-1.73-1.82-2.43-2.46-.69-.64-1.57-1.31-2.64-2.01-1.26-.83-2.48-1.41-3.65-1.74-1.17-.33-2.18-.51-3.02-.54,.91-.87,2.02-2.14,3.32-3.8,1.3-1.66,2.44-3.22,3.41-4.69l2.11-3.2c.95-1.43,1.88-3.01,2.8-4.72,.92-1.71,1.61-3.17,2.07-4.37l9.53,6.29c-.94,.88-2.01,2.06-3.19,3.54-1.19,1.48-2.26,2.95-3.22,4.4l-2.65,4.01,4.94,3.26c1.12,.74,2.26,1.31,3.4,1.7,1.14,.39,2.17,.58,3.07,.56l-5.75,8.72s-.05-.02-.08,0-.07,0-.13,0c-.46-.02-1.02-.11-1.68-.27-.66-.16-1.32-.45-1.98-.89Z"/></g><g><path d="M29.11,48.01c-2.02-3.63-4.04-7.13-4.42-10.82-.67-1.47-1.52-2.88-2.3-4.38-.98-1.7,.13-3.98,1.71-4.78,3.64-1.54,5.45-4.28,8.11-6.73,2.12-2.02,4.8-.51,6.84,.88,.39,.14,.77,.26,1.15,.39,1.51,.52,2.94,1.23,4.27,2.16,8.96,5.14,1.99,12.43-2.61,18.58,.98-4.76-3.83-15.5-7.93-10.1-2.49,3.77,4.05,10.24,6.2,14.36,1.89,2.87-4.97,7.53-5.95,12.29-1.01-1.75-1.52-4.25-2.32-5.83-.71-1.84-1.6-3.86-2.75-6.02Z"/><path d="M33.62,60.64c7.66-7.44,13-16.35,20.47-24.4,2.77,3.99,7.55,8.22,6.18,11.11-3.34,9.15-11.43,17.32-10.63,27.58,.51,2.5,3.14,2.61,5.64,2.1-3.99,2.77-10.72,8.06-12.74,4.57-1.89-2.87,.08-9.14-2.06-13.26-1.36,2.88-1.97,6.27-2.58,9.65,.11-2.63-1.78-5.5-2.29-8.3-1.06-4.59-1.98-9.05-1.98-9.05Zm10.07,5.97c1.39-4.42,3.12-8.68,4.85-12.95-2.61,3.14-3.85,6.65-6.01,9.48l1.16,3.46Z"/><path d="M81.81,79.92c-6.87-2.35-2.43-15.64-9.81-13.48-1.75,1.01-1.6,4.89-.96,8.01-4.89-1.6-10.77-1.7-15.26,1.82-1.68-11.38,4.03-21.67,12.4-25.34,9.12-3.17,25.42,3.26,26.35,14.14,.66,6.38-9.75,3.3-14.14,.94,3.89,3.11,8.67,7.34,13.78,3.69-3.24,3.27-3.34,9.15-9.26,11.12-1.13-.06-2.15-.36-3.1-.92Zm-3.74-14.95c1.69,1.19,2.82,.31,3.81-1.2-2.76-.74-4.15-4.36-9.16,.3l5.35,.89Z"/><path d="M88.16,83.32c.92-.89,1.99-2.1,3.2-3.62,3.83-4.98,7.94-10.38,8.66-16.39,5.14,2.85,9.42,7.84,15.93,7.81-.35,4.63,.54,9.01-1.81,13.4-1.52-4.25-5.66-5.35-8.8-7.97q-.5,.75-1.09,1.34l3.34,2.2c1.7,1.12,3.02,1.93,3.94,2.4l-1.66,2.57c-.77-.65-2.03-1.54-3.77-2.7l-3.34-2.2-.73,1.1,3.46,2.28c.8,.53,1.54,.99,2.21,1.4s1.28,.75,1.82,1.03c1.13,.57,2.64,1.56,3.89,1.31-1.23,3.51-4.73,5.53-6.94,8.83-1.17-.86-2.46-1.71-3.44-2.98l-3.62-2.39-11.24-7.42Z"/><path d="M110.56,97.04c5.98-7.15,8.57-16.8,9.4-25.44,.48-4.01,8.72-8.3,14.12-4.2,2.52,2.74,.66,6.38,1.92,9.38-2.52-2.74-7.28-3.72-9.14-.08-.5,.75-1.36,2.88-.74,2.76,2.13,.87,3.11-3.89,5.87-3.16,.13,.63,.51,2.5,.02,3.25-5.87,3.16-7.21,9.29-8.19,14.05-1.23,3.51-7.12,3.41-11.12,3.41-1.29,0-2.14,.03-2.14,.03Z"/><path d="M146.48,109.83c-5.63-12.55-8.32-25.68-6.5-39.08,6.15,4.6,12.82,11.7,12.74,20.84-1.38-.37-3.77-2.49-4.01-.48-1.11,4.13-1.45,12.02,2.93,11.12,3.25-.02,7.23-6.04,5.58-10.91,3.53,4.49,5.3,9.99,9.45,14.35-6.62,2.66-5.2,12.79-12.07,14.2-3.88,.14-6.65-3.85-7.62-7.55-.19-.76-.35-1.59-.5-2.49Z"/><path d="M171.63,139.03c-2.48-.71-4.47-2.68-5.63-5.08-.33-.5-.7-.86-1.05-1.18-.69-.64-1.57-1.31-2.64-2.01-1.26-.83-2.48-1.41-3.64-1.75-1.04-.65-2.29-.4-3.04-.89,5.35-5.66,11.08-12.69,13.7-20.48,0,0,2.4,1.65,4.78,3.22l4.76,3.14c-.94,.88-2.01,2.06-3.19,3.54-1.19,1.48-2.26,2.95-3.22,4.4l-2.65,4.01,4.94,3.26c1.12,.74,2.26,1.31,3.4,1.7,1.14,.39,2.17,.58,3.07,.56l-1.82,2.76c-.35,.46-.73,.96-1.13,1.42-1.67,2.08-2.51,4.94-5.56,3.61-.35-.06-.72-.14-1.1-.24Z"/></g><g><path d="M9.57,78.57c-1.97-2.18-3.73-4.43-5.68-6.37-1.05-.89-1.73-2.1-2.03-3.39s-.2-2.67,.3-3.92c.03-.4,.08-.79,.15-1.19,.29-1.59,.96-3.17,2.01-4.76,.79-1.19,1.66-2.18,2.61-2.98,.32-.27,.64-.51,.98-.73,1.39-.59,2.79-1.51,4.54-1.74,2.18-.04,4.68-.55,6.31,1.07,7.29,6.97,10.35,18.72,4.26,27.14-1.78-5.5-4.23-20.63-8.96-15.1-6.48,6.54,15.85,16.94,4.37,24.51-1.39-3.62-4.41-5.61-6.54-9.3-.78-1.02-1.61-2.05-2.33-3.23Z"/><path d="M18.25,91.4c5.33,2.55,11.32,.02,13.55-5,2.16,7.37,9.95,13.59,15.55,5.93-2.21,8.27-.42,17.02,4.37,24.51-3.62,1.39-8.25,1.04-10.64-1.08-3.14-2.61-3.28-6.49-7.55-8.22-.63,.13-2.24,1.76-3,1.27-5.27-3.48-7.18-9.6-10.67-14.77-.98-1.58-1.61-2.64-1.61-2.64Zm21.12,18.25c-.58-1.88-1.09-4.38-.85-6.38-.99,1.51-2.12,2.39-3.29,3.41l4.15,2.97Z"/><path d="M64.08,113.23c-3.76-2.05-4.53-5.8-5.17-8.93,.24-2,4.86-4.9,2.23-5.02-7.76,.29-4.59,9.41-5.44,14.79-2.13-.87-3,1.27-4.12,2.15-.17-10.39-4.66-32.27,11.18-32.14,3.64,1.35,6.96,3.47,6.96,3.47,1.19,.79,2.22,1.62,3.09,2.49,.29,.29,.56,.59,.81,.89,.42,2.49,2.74,4.54,2.2,6.55-.48,1.52-2.72,2.93-4.54,3.3-1.43,.37-2.65-.37-3.85-1.33s-2.4-2.14-3.76-2.61c1.86,1.32,2.36,3.75,3.98,5.47,1.59,1.57,4.2,1.2,5.62-.36-1.7,3.66-4.19,7.42-6.87,11.55-.75,.18-1.5,.1-2.32-.28Zm-2.46-17.09c.75-.36,1.38-.49,2-.62l-.38-1.88c-3.51-1.23-5.88-.1-5.11,3.65,.63-.13,1.25-.26,1.83-.69,.8-.28,1.67-.47,1.67-.47Z"/><path d="M70.41,115.6c-.2-3.84,2.55-6.36,4.5-9.47,.5-1.28,.89-2.63,1.4-4,.78-1.58,2.85-1.53,3.97-3.03,1-1.31,1.44-2.99,.37-4.35,3.22-1.29,5.84,1.49,6.62,4.37l1.09,.72c1.19,.78,2.41,1.58,3.69,2.31,6.54,1.85,8.43,4.72,9.71,10.97-5.64-2.1-11.52-2.2-16.67-5.05,1.78,5.5,9.39,1.33,11.67,6.08-4.63-.35-8.77-1.46-12.9-2.57,6.03,3.98,14.41,3.56,21.41,2.78-3.19,13.03-23.51,2.86-33.32,1.93-1.01-.49-1.54-.68-1.54-.68Z"/><path d="M110.87,119.3c1.66-4.49-1.98-6.35-3.87-9.22-.26-1.25,.24-2-.02-3.25,7.13-.16,13.88-2.19,21-5.61,2.37-1.14,5.13-.4,5.51,1.48,.4,5.13-1.7,10.77-3.31,15.66,2.23-5.02-1.79-8.75-7.05-8.98,1.76,2.24,5.64,2.1,5.66,5.35,.26,1.25-1.36,2.88-1.73,4.26-.51-2.5-1.02-5-4.53-6.24,.27,4.5-2.97,7.77-3.45,11.78-1.27-3-3.53-4.49-6.07-5.01-1.22-.21-2.14-.23-2.14-.23Z"/><path d="M121.55,150.76c-3.61-3.19-1.38-8.2-.28-12.34,3.45-11.78,13.55-19.71,14.86-32.36,6.68,10.36,.97,20.64-6.37,29.31-.99,1.51-.98,4.76,.27,4.5,5.63-1.15,10.1-7.93,10.82-13.94,3.89,3.11,1.17,8.88,5.56,11.24-6.73,5.29-8.18,17.31-19.07,16.69-1.98-.35-3.96-1.36-5.8-3.11Z"/><path d="M150.68,170.78c-.83-.55-1.55-1.1-2.14-1.66-.59-.56-1.3-1.27-2.11-2.14-.46-.5-.9-.95-1.3-1.36s-.78-.77-1.05-1.21c-1.9-3.31-5.86-4.08-9.38-3.52,1.39-2.5,2.8-4.85,4.93-6.9,.78-.73,1.31-1.49,1.8-2.23l2.11-3.2c.95-1.43,1.88-3.01,2.82-4.75,.94-1.73,1.65-3.21,2.12-4.44,0,0,2.31,1.67,4.69,3.24l4.76,3.14c-.94,.88-2.01,2.06-3.19,3.54-1.19,1.48-2.26,2.95-3.22,4.4l-2.65,4.01,4.94,3.26c1.12,.74,2.26,1.31,3.4,1.7,1.14,.39,2.17,.58,3.07,.56l-5.75,8.72s-.05-.02-.08,0c-.03,0-.07,0-.13,0-.46-.02-1.02-.11-1.68-.27-.66-.16-1.32-.45-1.98-.89Z"/></g><g><path d="M-11.44,109.38c-2.05-1.35-3.76-3.02-5.12-5.01-1.36-1.98-2.11-4.16-2.23-6.54-.11-1.98,.38-3.96,1.45-5.95,.24-.36,.51-.72,.91-.97,3.05-1.1,4.47-4.24,6.77-6.13,1.48-1.25,3.58-1.05,5.2-.12,.73,.48,1.07,1.36,1.95,1.81,2.07,.84,4.28,1.38,6.24,2.51,7.96,4.14,5.23,9.91-.38,14.31-.26-1.25-.51-2.5-1.28-3.69-1.36-1.22-2.94-2.96-4.65-4.05s-3.54-1.55-5.4-.22c-1.39,.92-1.11,3.08-.04,4.44,1.77,2.48,4.76,3.14,7.68,4.28,.67,.18,1.16,1.03,1.86,1.36,.67,.18,1.28,.05,1.88-.07-1.75,3.05-2.15,7.24-4.97,8.93-1.12,.7-3.38-1.05-4.97-2.08-.37-.18-.74-.37-1.13-.57-1.16-.62-2.42-1.37-3.77-2.27Z"/><path d="M-1.88,115.28c2.16-1.14,3.77-2.77,5.31-4.52,3.06-4.84,9.06-7.37,12.57-6.13,8.91,5.34,14.21,15.33,24.74,19.03-7,.78-10.6,8.68-16.35,9.21-3.13,.64-9.15-3.34-10.18-8.34-.13-.63,2.24-1.76,3.49-2.02-2.15-4.12-7.53-4.97-10.77-1.7-1.25,.26-2.63-.11-3.37-1.46-1.16-1.12-2.41-2.6-3.8-3.25-.97-.47-1.65-.82-1.65-.82Zm20.14,3.37c-.99-2.32-.28-3.98,2.54-3.38-4.03-2.27-5.32-.23-6.92,.88,.78,.32,1.24,.72,2.12,1.15,1.1,.65,2.26,1.35,2.26,1.35Z"/><path d="M49.47,145.95c-1-.42-2.38-.79-2.01-2.17,1.86-3.64,6.36-3.91,9.23-5.8-11.76-.19-21.49,6.36-31.3-3.36,9.01-.54,17.12-5.46,26-6.63,8.75-1.79,22.38-5.24,26.67,3,2.77,3.99-9.23,5.8-15.61,6.46,5.02,2.23,10.39-.17,15-3.07-7.36,5.42-14.72,10.83-24.14,12.15-1.69,.03-2.95-.18-3.84-.58Zm12.48-9.64c1.5-.36,3.5-.12,4.5-1.63-2.88-1.36-6.76-1.22-8.88,1.17-.63,.13,1.38,.37,2.12,.34,1.21,.04,2.26,.12,2.26,.12Z"/><path d="M56.05,148.06c10.18-4.87,23.31-7.56,27.51-18.84,.37-1.38-1.76-2.24-3.14-2.61,6.62-2.66,12.65,1.32,17.04,3.67,5.4,4.1-6.33,10.42-10.82,13.94,2.24-1.76,2.6-6.39-.29-7.76-.63,.13-1.75,1.01-2.24,1.76,4.52,2.98,.53,5.75-2.34,7.64-.38-1.88-.14-3.88-1.65-4.87-.63,.13-1.75,1.01-2.24,1.76,2.26,1.49,1.15,5.63,5.03,5.48-5.24,3.03-10.36,6.68-15.47,10.33-2.02-3.49-4.79-7.49-8.96-9.37-1.39-.7-2.42-1.15-2.42-1.15Z"/><path d="M69.66,160.71c11.25-9.46,23.23-17.78,35.07-26.72,.3,11.01-1.03,20.4-9.25,27.95-.14-3.88-2.66-6.62-4.05-10.24-.5,.75-1.75,1.01-1.62,1.63,.77,3.75,6.04,7.23,.41,8.38-1.25,.26-2.27-4.74-3.53-4.49-4.38,.9-6.6,5.91-8.34,10.18-1.51-.99-2.52-2.74-4.69-3.49-2.14-1.59-4.02-3.2-4.02-3.2Z"/><path d="M99.98,182.9c-2.07-1.37-3.67-2.87-4.8-4.52-1.12-1.65-1.67-3.44-1.64-5.38,.03-1.94,.77-4,2.26-6.2,2.3-4.74,6.04-8.77,9.02-13.29,.38,1.88,1.89,2.87,3,4.18,1.89,1.8,4.26,3.37,4.26,3.37-.91,.87-1.97,2.07-3.17,3.58-.6,.76-1.34,1.56-1.97,2.4-2.15,2.34-4.98,7.82-.2,8.74,2.31,.48,3.15-2.39,3.87-4.27,.48-1.52,1.29-2.95,2.4-4.12,.65-.75,1.17-1.46,1.51-2.19s.62-1.38,.84-1.97l9.53,6.29c-.91,.87-1.97,2.07-3.17,3.58-1.21,1.51-2.3,3-3.27,4.48l-1.97,2.99c-1.32,2-2.83,3.42-4.53,4.27-1.7,.85-3.56,1.11-5.57,.79-2.01-.33-4.15-1.24-6.41-2.73Z"/><path d="M129.73,202.53c-.83-.55-1.55-1.1-2.14-1.66-.59-.56-1.3-1.27-2.11-2.14-.93-1-1.73-1.82-2.43-2.46-.69-.64-1.57-1.31-2.64-2.01-1.26-.83-2.48-1.41-3.65-1.74-1.17-.33-2.18-.51-3.02-.54,.91-.87,2.02-2.14,3.32-3.8,1.3-1.66,2.44-3.22,3.41-4.69l2.11-3.2c.95-1.43,1.88-3.01,2.8-4.72,.92-1.71,1.61-3.17,2.07-4.37l9.53,6.29c-.94,.88-2.01,2.06-3.19,3.54-1.19,1.48-2.26,2.95-3.22,4.4l-2.65,4.01,4.94,3.26c1.12,.74,2.26,1.31,3.4,1.7,1.14,.39,2.17,.58,3.07,.56l-5.75,8.72s-.05-.02-.08,0c-.03,0-.07,0-.13,0-.46-.02-1.02-.11-1.68-.27-.66-.16-1.32-.45-1.98-.89Z"/></g></g></g><g><g><path class="f" d="M112.37,131.81c-2.1,.43-4.13-.18-5.72-1.72-2.25-2.17-5.43-3.1-8.49-2.47s-5.62,2.73-6.84,5.61c-.86,2.04-2.49,3.41-4.59,3.84-1.78,.36-3.65,0-5.13-1.01-.99-.67-2.26-1.95-2.66-4.22-.45-2.55-1.87-4.74-3.99-6.19-2.12-1.44-4.76-1.98-7.24-1.47-1.06,.22-2.07,.62-3.02,1.19-.69,.42-1.41,.7-2.14,.85-2.34,.48-4.85-.49-6.38-2.48-1.55-2-1.79-4.47-.66-6.78,1.37-2.81,1.27-6.12-.28-8.84-1.55-2.72-4.33-4.51-7.45-4.77-3.57-.3-5.36-2.97-5.81-5.16-.45-2.19,.15-5.35,3.31-7.03,2.76-1.47,4.62-4.2,4.97-7.31,.35-3.11-.86-6.19-3.22-8.24-1.94-1.68-2.69-4.05-2.06-6.49,.63-2.43,2.56-4.31,4.9-4.79,.73-.15,1.51-.17,2.31-.06,1.09,.15,2.18,.12,3.24-.1,2.48-.51,4.7-2.04,6.08-4.2,1.39-2.17,1.83-4.74,1.24-7.26-.52-2.24,.14-3.92,.78-4.93,.96-1.51,2.54-2.58,4.32-2.94,2.1-.43,4.13,.18,5.72,1.72,2.25,2.17,5.43,3.1,8.49,2.47s5.62-2.73,6.84-5.61c.86-2.04,2.49-3.41,4.59-3.84,1.78-.36,3.65,0,5.13,1.01,.99,.67,2.26,1.95,2.66,4.22,.45,2.55,1.87,4.74,3.99,6.19,2.12,1.44,4.76,1.98,7.24,1.47,1.06-.22,2.07-.62,3.02-1.19,.69-.42,1.41-.7,2.14-.85,2.34-.48,4.85,.49,6.39,2.48,1.55,2,1.79,4.46,.66,6.78-1.37,2.81-1.27,6.12,.28,8.84,1.55,2.72,4.33,4.51,7.45,4.77,3.57,.3,5.36,2.97,5.81,5.16,.45,2.19-.15,5.35-3.31,7.03-2.76,1.47-4.62,4.2-4.97,7.31-.35,3.11,.85,6.19,3.22,8.24,1.94,1.68,2.69,4.05,2.06,6.49-.63,2.43-2.56,4.31-4.9,4.79-.73,.15-1.51,.17-2.31,.06-1.09-.15-2.18-.12-3.24,.1-2.48,.51-4.7,2.04-6.08,4.2-1.39,2.17-1.83,4.74-1.24,7.26,.52,2.24-.14,3.92-.78,4.93-.96,1.51-2.54,2.58-4.32,2.94Z"/><path d="M93.77,41.07c1.37-.28,2.86,.01,3.98,.78,.75,.51,1.72,1.49,2.02,3.24,.52,2.95,2.16,5.49,4.63,7.17,2.45,1.67,5.51,2.29,8.39,1.7,1.23-.25,2.4-.71,3.49-1.37,.54-.33,1.1-.55,1.67-.67,1.79-.37,3.71,.39,4.9,1.93,.56,.72,1.73,2.68,.5,5.2-1.59,3.26-1.47,7.09,.32,10.24,1.79,3.15,5.01,5.22,8.63,5.52,2.74,.23,4.11,2.2,4.47,3.97,.36,1.77-.12,4.12-2.55,5.41-3.2,1.7-5.35,4.87-5.76,8.47-.41,3.6,.99,7.17,3.73,9.54,2.13,1.84,1.82,4.09,1.59,4.98-.49,1.88-1.96,3.33-3.75,3.7-.57,.12-1.17,.13-1.8,.04-1.26-.18-2.52-.14-3.75,.11-2.88,.59-5.44,2.36-7.04,4.86-1.61,2.51-2.12,5.5-1.43,8.41,.41,1.73-.09,3.01-.59,3.78-.74,1.15-1.99,2-3.36,2.28-.92,.19-2.72,.27-4.38-1.33-2.61-2.52-6.28-3.59-9.84-2.86-3.55,.73-6.51,3.16-7.92,6.5-.9,2.13-2.58,2.76-3.51,2.95-1.37,.28-2.86-.01-3.98-.78-.75-.51-1.72-1.49-2.02-3.24-.52-2.95-2.16-5.49-4.62-7.17-2.45-1.67-5.51-2.29-8.39-1.7-1.23,.25-2.4,.71-3.49,1.37-.54,.33-1.1,.55-1.67,.67-1.79,.37-3.71-.39-4.9-1.93-.56-.72-1.73-2.68-.5-5.2,1.59-3.26,1.47-7.09-.32-10.24-1.79-3.15-5.01-5.22-8.63-5.52-2.74-.23-4.11-2.2-4.47-3.97-.36-1.77,.12-4.12,2.55-5.41,3.2-1.7,5.35-4.87,5.76-8.47,.41-3.6-.99-7.17-3.73-9.54-2.13-1.84-1.82-4.09-1.59-4.98,.49-1.88,1.96-3.33,3.75-3.7,.57-.12,1.17-.13,1.8-.04,1.26,.18,2.52,.14,3.75-.11,2.88-.59,5.44-2.36,7.04-4.86,1.61-2.51,2.12-5.5,1.43-8.41-.41-1.73,.09-3.01,.59-3.78,.74-1.15,1.99-2,3.36-2.28,.92-.19,2.72-.27,4.38,1.33,2.61,2.52,6.28,3.59,9.84,2.86,3.55-.73,6.51-3.16,7.92-6.5,.9-2.13,2.58-2.76,3.51-2.95m-.6-2.94c-2.36,.48-4.53,2.03-5.67,4.72h0c-1.09,2.59-3.31,4.22-5.76,4.72s-5.13-.13-7.15-2.08h0c-2.1-2.03-4.71-2.6-7.07-2.11-4.06,.83-7.41,4.77-6.26,9.68h0c1.06,4.54-1.93,8.78-6.16,9.65-.87,.18-1.78,.21-2.73,.08h0c-1-.14-1.94-.11-2.82,.07-6.03,1.24-8.78,9.33-3.52,13.88h0c4.25,3.67,3.48,10.46-1.47,13.1h0c-7.03,3.74-4.86,14.34,3.08,15.01h0c5.59,.47,8.97,6.42,6.51,11.46h0c-3.05,6.25,2.66,12.61,8.69,11.38,.87-.18,1.76-.52,2.62-1.04h0c.82-.49,1.67-.82,2.54-1,4.23-.87,8.65,1.86,9.46,6.45h0c.87,4.96,5.5,7.27,9.56,6.44,2.36-.48,4.53-2.03,5.67-4.72h0c1.09-2.59,3.31-4.22,5.76-4.72,2.45-.5,5.13,.13,7.15,2.08h0c2.1,2.03,4.71,2.6,7.07,2.11,4.06-.83,7.41-4.77,6.26-9.68h0c-1.06-4.54,1.93-8.78,6.16-9.65,.87-.18,1.78-.21,2.73-.08h0c1,.14,1.94,.11,2.82-.07,6.03-1.24,8.78-9.33,3.52-13.88h0c-4.25-3.67-3.48-10.46,1.47-13.1h0c7.03-3.74,4.86-14.34-3.08-15.01h0c-5.59-.47-8.97-6.42-6.51-11.46h0c3.05-6.25-2.66-12.61-8.69-11.38-.87,.18-1.76,.52-2.62,1.04h0c-.82,.49-1.67,.82-2.54,1-4.23,.87-8.65-1.86-9.46-6.45h0c-.87-4.96-5.5-7.27-9.56-6.44h0Z"/></g><g><path class="g" d="M76.55,103.12c-3.03,.62-6.29-.44-9.18-2.98-3.09-2.71-5.3-6.73-6.24-11.32-.94-4.58-.48-9.15,1.29-12.86,1.66-3.47,4.24-5.73,7.27-6.35s6.29,.44,9.18,2.98c3.09,2.71,5.3,6.73,6.24,11.32s.48,9.15-1.29,12.86c-1.66,3.47-4.24,5.73-7.27,6.35Z"/><path d="M69.9,70.67c2.43-.5,5.27,.48,7.78,2.69,2.94,2.59,5.06,6.44,5.96,10.85,.9,4.41,.47,8.79-1.21,12.32-1.44,3.02-3.66,5.04-6.09,5.53s-5.27-.48-7.78-2.69c-2.94-2.59-5.06-6.44-5.96-10.85s-.47-8.79,1.21-12.32c1.44-3.02,3.66-5.04,6.09-5.53m-.43-2.1c-7.43,1.52-11.83,10.73-9.81,20.56,2.01,9.83,9.67,16.56,17.11,15.04,7.43-1.52,11.83-10.73,9.81-20.56-2.01-9.83-9.67-16.56-17.11-15.04h0Z"/></g><ellipse cx="67.75" cy="87.47" rx="7.76" ry="10.42" transform="translate(-16.18 15.38) rotate(-11.58)"/><g><g><path class="g" d="M101.19,98.07c-3.03,.62-6.29-.44-9.18-2.98-3.09-2.71-5.3-6.73-6.24-11.32-.94-4.58-.48-9.15,1.29-12.86,1.66-3.47,4.24-5.73,7.27-6.35s6.29,.44,9.18,2.98c3.09,2.71,5.3,6.73,6.24,11.32s.48,9.15-1.29,12.86c-1.66,3.47-4.24,5.73-7.27,6.35Z"/><path d="M94.54,65.62c2.43-.5,5.27,.48,7.78,2.69,2.94,2.59,5.06,6.44,5.96,10.85s.47,8.79-1.21,12.32c-1.44,3.02-3.66,5.04-6.09,5.53s-5.27-.48-7.78-2.69c-2.94-2.59-5.06-6.44-5.96-10.85-.9-4.41-.47-8.79,1.21-12.32,1.44-3.02,3.66-5.04,6.09-5.53m-.43-2.1c-7.43,1.52-11.83,10.73-9.81,20.56,2.01,9.83,9.67,16.56,17.11,15.04,7.43-1.52,11.83-10.73,9.81-20.56-2.01-9.83-9.67-16.56-17.11-15.04h0Z"/></g><ellipse cx="99.54" cy="75.77" rx="7.76" ry="10.42" transform="translate(-13.18 21.52) rotate(-11.58)"/></g></g></g></g><g id="d"/></svg>