<?xml version="1.0" encoding="UTF-8"?><svg xmlns="http://www.w3.org/2000/svg" viewBox="0 0 110.87 112.19"><defs><style>.c{fill:#022eff;}.d{fill:#fff;}</style></defs><g id="a"/><g id="b"><g><g><path class="c" d="M77.7,99.58c-2.1,.43-4.13-.18-5.72-1.72-2.25-2.17-5.43-3.1-8.49-2.47s-5.62,2.73-6.84,5.61c-.86,2.04-2.49,3.41-4.59,3.84-1.78,.36-3.65,0-5.13-1.01-.99-.67-2.26-1.95-2.66-4.22-.45-2.55-1.87-4.74-3.99-6.19-2.12-1.44-4.76-1.98-7.24-1.47-1.06,.22-2.07,.62-3.02,1.19-.69,.42-1.41,.7-2.14,.85-2.34,.48-4.85-.49-6.38-2.48-1.55-2-1.79-4.47-.66-6.78,1.37-2.81,1.27-6.12-.28-8.84-1.55-2.72-4.33-4.51-7.45-4.77-3.57-.3-5.36-2.97-5.81-5.16-.45-2.19,.15-5.35,3.31-7.03,2.76-1.47,4.62-4.2,4.97-7.31,.35-3.11-.86-6.19-3.22-8.24-1.94-1.68-2.69-4.05-2.06-6.49,.63-2.43,2.56-4.31,4.9-4.79,.73-.15,1.51-.17,2.31-.06,1.09,.15,2.18,.12,3.24-.1,2.48-.51,4.7-2.04,6.08-4.2,1.39-2.17,1.83-4.74,1.24-7.26-.52-2.24,.14-3.92,.78-4.93,.96-1.51,2.54-2.58,4.32-2.94,2.1-.43,4.13,.18,5.72,1.72,2.25,2.17,5.43,3.1,8.49,2.47s5.62-2.73,6.84-5.61c.86-2.04,2.49-3.41,4.59-3.84,1.78-.36,3.65,0,5.13,1.01,.99,.67,2.26,1.95,2.66,4.22,.45,2.55,1.87,4.74,3.99,6.19,2.12,1.44,4.76,1.98,7.24,1.47,1.06-.22,2.07-.62,3.02-1.19,.69-.42,1.41-.7,2.14-.85,2.34-.48,4.85,.49,6.39,2.48,1.55,2,1.79,4.46,.66,6.78-1.37,2.81-1.27,6.12,.28,8.84s4.33,4.51,7.45,4.77c3.57,.3,5.36,2.97,5.81,5.16,.45,2.19-.15,5.35-3.31,7.03-2.76,1.47-4.62,4.2-4.97,7.31s.85,6.19,3.22,8.24c1.94,1.68,2.69,4.05,2.06,6.49-.63,2.43-2.56,4.31-4.9,4.79-.73,.15-1.51,.17-2.31,.06-1.09-.15-2.18-.12-3.24,.1-2.48,.51-4.7,2.04-6.08,4.2-1.39,2.17-1.83,4.74-1.24,7.26,.52,2.24-.14,3.92-.78,4.93-.96,1.51-2.54,2.58-4.32,2.94Z"/><path d="M59.11,8.83c1.37-.28,2.86,.01,3.98,.78,.75,.51,1.72,1.49,2.02,3.24,.52,2.95,2.16,5.49,4.63,7.17,2.45,1.67,5.51,2.29,8.39,1.7,1.23-.25,2.4-.71,3.49-1.37,.54-.33,1.1-.55,1.67-.67,1.79-.37,3.71,.39,4.9,1.93,.56,.72,1.73,2.68,.5,5.2-1.59,3.26-1.47,7.09,.32,10.24,1.79,3.15,5.01,5.22,8.63,5.52,2.74,.23,4.11,2.2,4.47,3.97s-.12,4.12-2.55,5.41c-3.2,1.7-5.35,4.87-5.76,8.47-.41,3.6,.99,7.17,3.73,9.54,2.13,1.84,1.82,4.09,1.59,4.98-.49,1.88-1.96,3.33-3.75,3.7-.57,.12-1.17,.13-1.8,.04-1.26-.18-2.52-.14-3.75,.11-2.88,.59-5.44,2.36-7.04,4.86-1.61,2.51-2.12,5.5-1.43,8.41,.41,1.73-.09,3.01-.59,3.78-.74,1.15-1.99,2-3.36,2.28-.92,.19-2.72,.27-4.38-1.33-2.61-2.52-6.28-3.59-9.84-2.86-3.55,.73-6.51,3.16-7.92,6.5-.9,2.13-2.58,2.76-3.51,2.95-1.37,.28-2.86-.01-3.98-.78-.75-.51-1.72-1.49-2.02-3.24-.52-2.95-2.16-5.49-4.62-7.17-2.45-1.67-5.51-2.29-8.39-1.7-1.23,.25-2.4,.71-3.49,1.37-.54,.33-1.1,.55-1.67,.67-1.79,.37-3.71-.39-4.9-1.93-.56-.72-1.73-2.68-.5-5.2,1.59-3.26,1.47-7.09-.32-10.24-1.79-3.15-5.01-5.22-8.63-5.52-2.74-.23-4.11-2.2-4.47-3.97s.12-4.12,2.55-5.41c3.2-1.7,5.35-4.87,5.76-8.47,.41-3.6-.99-7.17-3.73-9.54-2.13-1.84-1.82-4.09-1.59-4.98,.49-1.88,1.96-3.33,3.75-3.7,.57-.12,1.17-.13,1.8-.04,1.26,.18,2.52,.14,3.75-.11,2.88-.59,5.44-2.36,7.04-4.86,1.61-2.51,2.12-5.5,1.43-8.41-.41-1.73,.09-3.01,.59-3.78,.74-1.15,1.99-2,3.36-2.28,.92-.19,2.72-.27,4.38,1.33,2.61,2.52,6.28,3.59,9.84,2.86,3.55-.73,6.51-3.16,7.92-6.5,.9-2.13,2.58-2.76,3.51-2.95m-.6-2.94c-2.36,.48-4.53,2.03-5.67,4.72h0c-1.09,2.59-3.31,4.22-5.76,4.72s-5.13-.13-7.15-2.08h0c-2.1-2.03-4.71-2.6-7.07-2.11-4.06,.83-7.41,4.77-6.26,9.68h0c1.06,4.54-1.93,8.78-6.16,9.65-.87,.18-1.78,.21-2.73,.08h0c-1-.14-1.94-.11-2.82,.07-6.03,1.24-8.78,9.33-3.52,13.88h0c4.25,3.67,3.48,10.46-1.47,13.1h0c-7.03,3.74-4.86,14.34,3.08,15.01h0c5.59,.47,8.97,6.42,6.51,11.46h0c-3.05,6.25,2.66,12.61,8.69,11.38,.87-.18,1.76-.52,2.62-1.04h0c.82-.49,1.67-.82,2.54-1,4.23-.87,8.65,1.86,9.46,6.45h0c.87,4.96,5.5,7.27,9.56,6.44,2.36-.48,4.53-2.03,5.67-4.72h0c1.09-2.59,3.31-4.22,5.76-4.72,2.45-.5,5.13,.13,7.15,2.08h0c2.1,2.03,4.71,2.6,7.07,2.11,4.06-.83,7.41-4.77,6.26-9.68h0c-1.06-4.54,1.93-8.78,6.16-9.65,.87-.18,1.78-.21,2.73-.08h0c1,.14,1.94,.11,2.82-.07,6.03-1.24,8.78-9.33,3.52-13.88h0c-4.25-3.67-3.48-10.46,1.47-13.1h0c7.03-3.74,4.86-14.34-3.08-15.01h0c-5.59-.47-8.97-6.42-6.51-11.46h0c3.05-6.25-2.66-12.61-8.69-11.38-.87,.18-1.76,.52-2.62,1.04h0c-.82,.49-1.67,.82-2.54,1-4.23,.87-8.65-1.86-9.46-6.45h0c-.87-4.96-5.5-7.27-9.56-6.44h0Z"/></g><g><path class="d" d="M41.88,70.88c-3.03,.62-6.29-.44-9.18-2.98-3.09-2.71-5.3-6.73-6.24-11.32-.94-4.58-.48-9.15,1.29-12.86,1.66-3.47,4.24-5.73,7.27-6.35,3.03-.62,6.29,.44,9.18,2.98,3.09,2.71,5.3,6.73,6.24,11.32,.94,4.58,.48,9.15-1.29,12.86-1.66,3.47-4.24,5.73-7.27,6.35Z"/><path d="M35.23,38.43c2.43-.5,5.27,.48,7.78,2.69,2.94,2.59,5.06,6.44,5.96,10.85,.9,4.41,.47,8.79-1.21,12.32-1.44,3.02-3.66,5.04-6.09,5.53s-5.27-.48-7.78-2.69c-2.94-2.59-5.06-6.44-5.96-10.85s-.47-8.79,1.21-12.32c1.44-3.02,3.66-5.04,6.09-5.53m-.43-2.1c-7.43,1.52-11.83,10.73-9.81,20.56,2.01,9.83,9.67,16.56,17.11,15.04,7.43-1.52,11.83-10.73,9.81-20.56-2.01-9.83-9.67-16.56-17.11-15.04h0Z"/></g><ellipse cx="33.09" cy="55.23" rx="7.76" ry="10.42" transform="translate(-10.41 7.77) rotate(-11.58)"/><g><g><path class="d" d="M66.52,65.83c-3.03,.62-6.29-.44-9.18-2.98-3.09-2.71-5.3-6.73-6.24-11.32s-.48-9.15,1.29-12.86c1.66-3.47,4.24-5.73,7.27-6.35s6.29,.44,9.18,2.98c3.09,2.71,5.3,6.73,6.24,11.32s.48,9.15-1.29,12.86c-1.66,3.47-4.24,5.73-7.27,6.35Z"/><path d="M59.87,33.38c2.43-.5,5.27,.48,7.78,2.69,2.94,2.59,5.06,6.44,5.96,10.85s.47,8.79-1.21,12.32c-1.44,3.02-3.66,5.04-6.09,5.53s-5.27-.48-7.78-2.69c-2.94-2.59-5.06-6.44-5.96-10.85-.9-4.41-.47-8.79,1.21-12.32,1.44-3.02,3.66-5.04,6.09-5.53m-.43-2.1c-7.43,1.52-11.83,10.73-9.81,20.56,2.01,9.83,9.67,16.56,17.11,15.04,7.43-1.52,11.83-10.73,9.81-20.56-2.01-9.83-9.67-16.56-17.11-15.04h0Z"/></g><ellipse cx="64.87" cy="43.53" rx="7.76" ry="10.42" transform="translate(-7.42 13.91) rotate(-11.58)"/></g></g></g></svg>