<?xml version="1.0" encoding="UTF-8"?><svg xmlns="http://www.w3.org/2000/svg" viewBox="0 0 218.12 93.55"><defs><style>.c{fill:#f2a73b;}.d{fill:#c000ff;}</style></defs><g id="a"/><g id="b"><g><path class="c" d="M31.89,88.79L192.51,52.2c11.9-2.71,19.35-14.55,16.64-26.45l-4.91-21.55L22.07,45.7c-11.9,2.71-19.35,14.55-16.64,26.45h0c2.71,11.9,14.55,19.35,26.45,16.64Z"/><g><path class="d" d="M34.29,75.83c-.16-.89-.44-1.98-.83-3.25-.39-1.28-.83-2.52-1.33-3.73-.07-.2-.14-.4-.22-.6-.09-.2-.17-.39-.25-.57l-1.27-2.98s-.02-.06-.03-.08c-.01-.02-.03-.04-.03-.08-.56-1.32-1.22-2.69-1.98-4.13-.76-1.44-1.46-2.61-2.11-3.51l9.25-2.11c.11,.59,.3,1.28,.55,2.09,.25,.8,.58,1.72,.97,2.76l.69,1.83c.04,.11,.08,.22,.12,.33,.04,.11,.07,.21,.11,.3,.19,.47,.36,.94,.53,1.39,.16,.46,.32,.95,.48,1.46l.34-.08,.2-11,5.73-1.3,4.94,9.83,.37-.08c-.08-.53-.15-1.04-.2-1.53-.05-.48-.09-.98-.13-1.48,0-.1-.01-.21-.03-.32-.02-.12-.03-.23-.04-.35l-.18-1.95s-.02-.07-.02-.1c0-.03,0-.05,.01-.08-.11-.91-.22-1.81-.33-2.7-.12-.89-.24-1.61-.39-2.15l9.25-2.11c-.19,1.09-.31,2.45-.38,4.08-.06,1.63-.06,3.16,0,4.58,0,.04,0,.07,0,.09,0,.02,0,.05,0,.09l.14,3.23c0,.22,.02,.44,.04,.67,.01,.23,.03,.48,.05,.73,.1,1.3,.25,2.6,.44,3.89,.2,1.29,.41,2.36,.64,3.19l-10.38,2.37-4.16-9-.37,.08,.15,9.91-10.35,2.36Z"/><path class="d" d="M60.41,69.88c.24-1.12,.43-2.52,.59-4.2,.15-1.68,.24-3.26,.25-4.75l.03-3.27c.02-1.49-.04-3.04-.17-4.65-.13-1.61-.3-2.93-.51-3.95l13.97-3.18,.03,.14c.25,1.03,.67,2.29,1.26,3.76,.58,1.48,1.19,2.86,1.82,4.14l1.44,2.94c.66,1.33,1.42,2.72,2.29,4.17,.86,1.45,1.65,2.62,2.35,3.53l-9.25,2.11c-.14-.6-.34-1.3-.61-2.09-.27-.79-.59-1.64-.95-2.54l-.12-.27-3.75,.85v.32c.03,.31,.09,1.02,.2,2.12,.13,1.18,.26,2.08,.41,2.7l-9.25,2.11Zm11.34-10.68l-1.02-1.76c-.26-.44-.49-.9-.7-1.4-.21-.5-.41-1-.58-1.51-.02-.09-.04-.18-.07-.27-.03-.08-.06-.17-.1-.26l-.39,.09c.02,.17,.04,.33,.05,.48,.01,.15,.03,.3,.04,.45,.05,.46,.08,.92,.1,1.37,.02,.45,.02,.93,0,1.43l-.16,2.03,2.85-.65Z"/><path class="d" d="M102.01,60.85c-1.22,.28-2.27,.24-3.14-.1-.87-.34-1.58-.84-2.12-1.49s-1.13-1.5-1.77-2.56c-.47-.74-.86-1.33-1.19-1.76-.33-.43-.7-.76-1.13-.99s-.91-.28-1.43-.16c-.09,.02-.18,.05-.26,.09s-.15,.08-.22,.14l.04,.2,.1,.42c.34,1.39,.74,2.8,1.2,4.24,.47,1.44,.92,2.6,1.36,3.49l-9.25,2.11c0-1.05-.11-2.37-.32-3.96-.21-1.59-.48-3.1-.81-4.53l-.71-3.1c-.33-1.43-.74-2.91-1.23-4.44-.5-1.53-.97-2.77-1.42-3.71l12.75-2.9c1.54-.35,2.97-.48,4.27-.4,1.31,.09,2.4,.43,3.29,1.03,.89,.6,1.46,1.46,1.72,2.59,.27,1.17,.14,2.2-.39,3.12-.53,.91-1.34,1.68-2.46,2.31-1.11,.63-2.44,1.12-3.98,1.47l-.08,.02,.04,.17h.03c.17-.04,.35-.07,.53-.07,.19,0,.38,0,.56,0,.19,0,.38,.02,.59,.03,.26,.02,.54,.03,.84,.04,.3,.01,.59,0,.89,0,.29-.02,.6-.06,.92-.14,1.13-.26,2.01-.79,2.63-1.61,.62-.81,1.03-1.79,1.21-2.92l2.33,10.21c-.12,.68-.51,1.33-1.17,1.96-.66,.63-1.39,1.03-2.2,1.21Zm-8.77-9.07c.34-.08,.63-.19,.86-.33,.23-.14,.4-.32,.5-.53,.1-.21,.12-.45,.06-.71-.06-.26-.18-.47-.36-.61-.18-.15-.41-.23-.68-.26-.27-.03-.58,0-.92,.08l-2.85,.65,.54,2.37,2.85-.65Z"/><path class="d" d="M107.53,59.14c0-1.05-.11-2.37-.32-3.96-.21-1.59-.48-3.1-.81-4.53l-.71-3.1c-.33-1.43-.74-2.91-1.23-4.44-.5-1.53-.97-2.77-1.42-3.71l8.39-1.85,7.26,7.4,.42-.1-.1-.42c-.3-1.3-.71-2.78-1.25-4.44-.54-1.66-.99-2.87-1.36-3.64l9.25-2.11c0,1.05,.11,2.37,.32,3.96,.21,1.59,.48,3.1,.81,4.53l2.6,11.43-7.25,1.65-7.78-7.96-.45,.1,.08,.37c.33,1.43,.77,3.03,1.35,4.81,.57,1.78,1.05,3.08,1.44,3.9l-9.25,2.11Z"/><path class="d" d="M132.64,53.42c0-1.05-.11-2.37-.32-3.96-.21-1.59-.49-3.1-.81-4.53l-.71-3.1c-.33-1.43-.74-2.91-1.23-4.44-.5-1.53-.97-2.77-1.42-3.71l9.25-2.11c0,1.05,.11,2.37,.32,3.96,.21,1.59,.48,3.1,.81,4.53l.71,3.1c.33,1.43,.74,2.91,1.23,4.44,.5,1.53,.97,2.77,1.42,3.71l-9.25,2.11Z"/><path class="d" d="M144.38,50.75c0-1.05-.11-2.37-.32-3.96-.21-1.59-.49-3.1-.81-4.53l-.71-3.1c-.33-1.43-.74-2.91-1.23-4.44-.5-1.53-.97-2.77-1.42-3.71l8.39-1.85,7.26,7.4,.42-.1-.1-.42c-.3-1.3-.71-2.78-1.25-4.44-.54-1.66-.99-2.87-1.36-3.64l9.25-2.11c0,1.05,.11,2.37,.32,3.96s.48,3.1,.81,4.53l2.6,11.43-7.25,1.65-7.78-7.96-.45,.1,.08,.37c.33,1.43,.77,3.03,1.35,4.81,.57,1.78,1.05,3.08,1.44,3.9l-9.25,2.11Z"/><path class="d" d="M179.63,43.16c-2.11,.48-4.09,.49-5.96,.04-1.87-.46-3.45-1.35-4.77-2.68-1.31-1.33-2.21-3.04-2.68-5.13-.47-2.07-.39-4,.25-5.79,.64-1.79,1.73-3.3,3.27-4.53s3.36-2.09,5.47-2.57c1.64-.37,3.11-.58,4.41-.63,1.3-.05,2.43-.02,3.39,.1l1.74,7.65c-.63-.33-1.49-.49-2.59-.48-1.1,.01-2.18,.14-3.25,.38-1.22,.28-2.23,.62-3.02,1.03s-1.35,.88-1.69,1.42c-.34,.54-.44,1.13-.29,1.77,.12,.53,.37,.94,.76,1.25,.39,.31,.89,.5,1.51,.58,.62,.08,1.33,.02,2.12-.16,.36-.08,.7-.18,1.02-.29,.32-.11,.6-.23,.84-.37s.42-.27,.54-.42l-.27-1.07-.79,.18c-.28,.06-.66,.18-1.14,.33-.48,.16-.84,.3-1.09,.41l-.5-2.2,10.75-2.45,1.83,8.04c-.65,.88-1.5,1.69-2.53,2.43s-2.19,1.37-3.44,1.9c-1.26,.52-2.55,.94-3.89,1.24Z"/></g></g></g></svg>