<?xml version="1.0" encoding="UTF-8"?><svg xmlns="http://www.w3.org/2000/svg" viewBox="0 0 175.61 78.54"><defs><style>.c{fill:#bb1454;}</style></defs><g id="a"/><g id="b"><g><ellipse class="c" cx="87.92" cy="39.48" rx="37.04" ry="85.91" transform="translate(38.72 122.35) rotate(-83.48)"/><g><path d="M36.69,41.77l1.77-15.51c.58-5.1,5.48-6.94,11.4-6.26,7.29,.83,9.88,3.97,9.9,10.46l-7.34,.2c-.22-2.63-.86-4.05-2.94-4.29-1.81-.21-3.46,.54-3.67,2.36l-1.4,12.29c-.21,1.81,1.23,2.91,3.04,3.12,2.29,.26,3.39-1.1,4.25-3.82l7.07,1.85c-1.55,6.55-4.86,9.12-12.39,8.26-5.92-.68-10.28-3.57-9.69-8.67Z"/><path d="M83.46,24.36l7.33,.84-3.36,29.41-6.68-.76,1.9-16.64-.61,1.39-5.71,10.48-4.49-.51-3.2-11.5-.28-1.49-1.9,16.64-6.68-.76,2.84-24.82-1.74-4.85,9.59,1.1,4.5,15.22,.21,.93,.44-.85,7.82-13.81Z"/><path d="M108.96,27.28l7.43,.85-10.49,17.77-1.22,10.68-7.53-.86,1.22-10.68-4.71-14.93-2.12-4.82,8.05,.92,3.47,11.25,5.92-10.18Z"/><path d="M130.99,44.29l6.9,16.08-8.22-.94-6.16-14.65-1.57,13.76-7.19-.82,2.84-24.82-1.74-4.85,9.45,1.08-1.49,13.04,8.41-12.25,8.01,.92-9.24,13.44Z"/></g></g></g></svg>