<?xml version="1.0" encoding="UTF-8"?><svg xmlns="http://www.w3.org/2000/svg" viewBox="0 0 264.68 220.85"><defs><style>.d{fill:#fff;}</style></defs><g id="a"/><g id="b"><g><polygon class="d" points="124.14 59.97 64.19 69.72 60.63 47.78 0 131.94 84.16 192.56 80.59 170.63 140.54 160.88 200.49 151.14 204.06 173.07 264.68 88.91 180.52 28.29 184.09 50.23 124.14 59.97"/><polygon class="d" points="90.24 117.27 98.37 167.29 80.07 170.27 150.29 220.85 200.88 150.63 182.57 153.6 174.44 103.58 166.31 53.56 184.61 50.59 114.39 0 63.8 70.22 82.11 67.25 90.24 117.27"/><g><path d="M101.51,143.55c-.27,3.56-2.2,7.46-5.79,11.69-3.59,4.24-7.33,7.1-11.21,8.6l-4.85-13.14c3.15-1.83,5.41-4.99,6.79-9.47,1.38-4.48,.65-10.57-2.19-18.26l-9.08-24.6-7.77,2.87c-1.55,.57-2.84,.65-3.87,.24-1.03-.41-1.83-1.39-2.4-2.94l-2.99-8.09,41.18-15.2,2.99,8.09c.57,1.55,.6,2.81,.08,3.79-.52,.98-1.55,1.76-3.1,2.33l-7.37,2.72,9.08,24.6c2.84,7.69,6.18,12.81,10.04,15.37,3.85,2.55,7.47,3.54,10.83,2.97l4.85,13.14c-3.76,1.33-8.27,1.51-13.55,.54-5.27-.97-9.17-2.72-11.68-5.25Zm25.63-50.42l11.14-4.11,3.25,8.81c.67,1.82,.58,3.34-.27,4.56-.85,1.23-2.24,2.19-4.16,2.9l-4.81,1.77,8.99,24.36c1.08,2.94,.99,5.78-.27,8.52-1.26,2.74-3.37,4.66-6.3,5.74l-5.85,2.16-27.17-73.63,16.26-6,9.19,24.92Z"/><path d="M133.13,144.33c-1.77,.03-3.15-.41-4.17-1.33-1.01-.92-1.54-2.23-1.57-3.94l-.47-24.16,17.42-.34,.31,16.22,43.89-.85,.15,7.94c.03,1.71-.45,3.04-1.46,4-1.01,.96-2.39,1.46-4.16,1.49l-49.95,.97Zm-3.91-65.01c-1.37,.03-2.59-.42-3.66-1.34-1.07-.92-1.62-2.2-1.65-3.85l-.24-7.94,43.37-.84,.26,13.32c.19,9.62-3.09,17.7-9.82,24.23-6.74,6.54-17.67,9.95-32.81,10.24l-.26-13.41c8.31-.16,14.56-1.86,18.74-5.1,4.18-3.24,6.23-6.94,6.15-11.09l-.09-4.61-19.98,.39Zm58.04,2.21l11.27-.22,.19,9.73c.03,1.76-.47,3.06-1.51,3.87-1.04,.82-2.5,1.24-4.37,1.28l-5.29,.1,.37,19.38c.03,1.77-.54,3.19-1.71,4.26-1.18,1.08-2.76,1.63-4.75,1.67l-10.76,.21-1.1-56.69,17.33-.34,.32,16.73Z"/></g></g></g><g id="c"/></svg>