<?xml version="1.0" encoding="UTF-8"?><svg xmlns="http://www.w3.org/2000/svg" xmlns:xlink="http://www.w3.org/1999/xlink" viewBox="0 0 567.88 573.79"><defs><style>.e{fill:none;}.f{fill:#022eff;}.g{fill:#fff;}.h{clip-path:url(#c);}</style><clipPath id="c"><rect class="e" x="75.53" y="73.88" width="426.02" height="426.02" transform="translate(116.49 -81.84) rotate(20.15)"/></clipPath></defs><g id="a"/><g id="b"><g><g class="h"><rect class="f" x="32.05" y="57.95" width="495.1" height="463.56" transform="translate(116.92 -78.58) rotate(20.15)"/><g><g><path d="M304.53,44.87c.38-9.46-4.09-18.35-4.53-27.7,.02-5.31,.77-11.32,5.23-14.89,1.76-1.93,3.18-3.8,4.76-5.55,3.17-3.5,7.29-6.42,12.34-8.76,7.58-3.51,14.78-4.54,21.59-3.09,6.81,1.45,12.78,4.6,17.91,9.45,5.13,4.85,9.21,10.54,12.24,17.08,2.23,4.81,3.98,9.57,5.27,14.29,.64,2.36,1.14,4.53,1.5,6.52,.36,1.99,.57,3.79,.63,5.4-7.54,3.3-14.84,7.38-22.73,10.44l-4.21,1.93c.69-2.72,.78-6.16,.26-10.34-.52-4.18-1.6-8.06-3.25-11.64-1.63-3.51-3.39-6.48-5.3-8.89-1.9-2.41-3.88-4.09-5.92-5.01-2.04-.93-4.08-.92-6.11,.02-2.22,1.03-3.58,2.69-4.09,4.99-.51,2.3-.4,4.92,.33,7.88,.73,2.96,1.88,6.13,3.45,9.52,2.14,4.62,4.88,8.64,8.21,12.04,3.33,3.4,6.74,5.86,10.22,7.4l-11.85,5.49c-1.16-.1-2.15,.17-3.16,.4-4.48-1.19-9.41,.39-11.83,4.33-6.89-4.94-13.93-9.46-18.51-17-.85-1.3-1.69-2.71-2.48-4.31Z"/><path d="M323.96,68.12c6.38-4.53,13.54,.99,20.46-.21,1.38-.22,2.73-.44,4.07-.68s2.64-.49,3.92-.74c0,0,2.82-.58,5.78-.66,12.66,1.99,22.82-11.2,33.56-10.16,4.3,.13,6.6,9.67,8.55,15.97l1.55,3.35,1.58,3.42c.53,1.14,1.06,2.29,1.24,3.59,.9,5.8,3.49,10.62,6.07,15.44,4.85,10.48-9.58,12.92-16.72,16.58-1.9,1.24-3.38,2.63-5.43,3.89l-4.53,3.56-4.53,3.56c-9.69,5.99-18.17,12.83-28.41,19.03-6.02-16.14-20.17-37.25,6.74-37.24l-5.56-12.2-1.1,.29c-5.21,3.48-11.76,5.06-17.67,4.88,.18-5.91-4.44-9.59-4.48-15.08-1.25-3.69-2.86-7.18-3.48-11.37-.63-3.4-1.61-5.22-1.61-5.22Zm42.13,33.25l5.3-4.81c1.31-1.21,2.74-2.36,4.3-3.45,1.55-1.1,3.15-2.13,4.79-3.12,.31-.14,.59-.29,.86-.45,.26-.16,.53-.34,.81-.55l-.6-1.3c-.58,.2-1.12,.37-1.61,.52-.49,.15-1,.31-1.52,.48-1.57,.5-3.12,.95-4.65,1.37-1.53,.41-3.17,.76-4.91,1.04l-7.1,.93,4.33,9.34Z"/><path d="M374.44,204.82c-.47-14.55,8.19-27.29,20.82-34.6,3.04-2.86,2.57-7.02-1.58-6.55-9.59,4.44-21.4,4.09-27.66,15.72-6.2-10.23-6.95-24.45-13.15-34.68,19.47,1.17,37.54-10.11,57.11-13.68,6.65-.96,10.18-7.89,11.51-14.17,6.28,1.34,11.57,6.66,10.82,12.67-2.02,15.72,12.95,29.18,10.2,42.1-2.57,7.02-6.44,17.54-17.14,19.59-10.06,.29-22.34-4.22-21.98-16.03-8.01,10.99,1.69,22.51,13.04,18.72-15.96,.11-27.2,19.88-41.46,13.86-.34-.87-.47-1.86-.52-2.94Zm28.82-35.07c.77,3.69,4.28,4.98,7.32,2.11,3.69-4.62-2.69-8.95-.76-14.21-2.4,1.11-6.55,1.58-9,3.32l2.44,8.78Z"/><path d="M378.52,217.85c22.86-15.53,49.06-21.84,76.37-25.75,1.87,16.61,7.42,28.6,11.68,44.09-24.91,2.8-27.42-12.05-48.47-19.78,3.98,5.44,9.88,5.62,13.86,11.06-11.52,9.7-12.75-8.66-24.56-9.01,5.73,6.08,13.21,12.81,21.34,17.78-19.01,2.98-41.23,14.73-47.95-12.63-1.42-3.38-2.27-5.77-2.27-5.77Z"/><path d="M405.74,248.04c24.3-15.31,56.52-5.48,76.92,4,18.65,8.83,28.94,40.47,27.59,65.85-1.46,9.41-15.96,.11-22.05,5.84,1.17-19.47-6.42-42.16-23.14-56.26,5.55,11.99,13.5,22.87,18.41,36.61-16.9-8.19-12.04-32.28-28.47-36.32-12.28-4.51-28.89-2.64-38.8-12.92-5.64-3.97-10.46-6.8-10.46-6.8Z"/><path d="M475,386.47c-3.54-17.12-7.63-38.52,3.9-48.23,9.12-8.59,24.27-1.05,41.05-8.82,7.19-3.33,9.7,11.52,10.12,22.45,.82,1.79,1.59,3.45,2.25,4.87l2.2,4.74c-3.61,.77-8.08,2.11-13.42,3.93-9.41,2.77-27.12,2.24-24.61,17.09,1.58,6.55,6.2,10.23,14.62,5.53l2.12-.97c4.69-2.17,9.48-4.67,14.38-7.5,4.9-2.83,8.82-5.38,11.74-7.63l14.05,30.34c-3.61,.77-8.08,2.11-13.41,4.02-5.33,1.91-10.34,3.95-15.03,6.12l-9.53,4.41c-6.35,2.94-12.3,4.16-17.77,3.41-14.05-2.64-18.96-16.39-22.39-28.22-.15-1.78-.2-3.63-.28-5.55Z"/><path d="M514.6,491.91c-1.23-2.65-2.15-5.13-2.76-7.43-.62-2.3-1.27-5.16-1.96-8.59-.76-3.91-1.52-7.2-2.26-9.85-.74-2.65-1.9-5.68-3.47-9.06-1.86-4.01-3.99-7.33-6.41-9.95-2.42-2.63-4.65-4.63-6.71-5.99,3.61-.77,8.31-2.22,14.11-4.34,5.79-2.12,11.03-4.27,15.72-6.44l10.17-4.71c4.56-2.11,9.31-4.59,14.25-7.44,4.93-2.85,8.89-5.41,11.88-7.69l14.05,30.34c-3.7,.74-8.17,2.04-13.41,3.91-5.24,1.87-10.17,3.87-14.8,6.01l-12.76,5.91,7.28,15.72c1.66,3.58,3.61,6.73,5.85,9.48,2.24,2.74,4.5,4.79,6.77,6.13l-27.75,12.85c-.03-.06-.09-.11-.18-.14s-.2-.1-.31-.19c-1.1-.76-2.36-1.85-3.76-3.26-1.4-1.41-2.59-3.16-3.56-5.26Z"/></g><g><path d="M198.75,92.56c.57-12.15,.92-23.97,5.65-33.76,.59-4.71,.66-9.51,1.03-14.46,.17-5.74,6.46-9.71,11.62-9.27,11.43,1.78,20.17-2.27,30.57-4.25,8.38-1.76,12.74,6.12,15.67,12.72,.76,.94,1.52,1.83,2.26,2.73,2.95,3.61,5.44,7.59,7.32,11.94,14.41,26.6-14.19,34.02-35.12,42.26,9.77-10.35,14.34-44.5-4.2-37.37-11.99,5.55-5.68,31.75-6.68,45.32,.29,10.06-23.98,11.1-33.75,21.45,.18-5.91,2.75-12.92,3.22-18.1,1.06-5.67,1.97-12.07,2.42-19.22Z"/><path d="M190.53,130.95c30.53-6.74,57.55-20.71,88.55-29.24,.76,14.21,6.13,32.11-1.7,37.19-22.4,17.65-55.15,25.54-68.96,52.32-2.57,7.02,3.8,11.35,10.81,13.92-14.21,.76-39.12,3.56-38.77-8.25-.29-10.06,14.27-22.63,15.27-36.19-7.84,5.09-14.56,12.57-21.29,20.05,4.33-6.37,4.04-16.43,7.09-24.2,4.42-13.05,8.99-25.59,8.99-25.59Zm15.88,30.37c10.26-8.87,21.14-16.82,32.02-24.77-11.35,3.8-19.83,10.64-29.58,14.36l-2.44,10.41Z"/><path d="M280.85,253.18c-13.5-16.45,18.03-42.7-3.67-48.67-5.91-.18-11.52,9.7-14.74,18.48-9.7-11.52-24.2-20.82-40.81-18.96,13.34-30.93,43.4-47.77,69.89-44.02,27.6,6.15,58.29,47.26,43.84,75.8-8.19,16.9-29.35-6.79-36.66-19.42,4.91,13.74,10.28,31.64,28.65,30.41-13.1,3.15-22.4,17.65-40.2,13.44-2.72-1.87-4.8-4.21-6.3-7.06Zm13.71-43c2.39,5.57,6.54,5.1,11.33,2.88-5.73-6.08-3.62-17.25-23.28-13.35l11.94,10.46Z"/><path d="M291.42,271.43c3.67-.8,8.19-2.16,13.55-4.09,17.22-6.5,35.76-13.63,46.82-27.49,8.42,15.03,11.39,34.04,27.65,43.98-8.01,10.99-12.52,23.27-25.15,30.58,2.75-12.92-5.84-22.05-9.64-33.39q-2.4,1.11-4.78,1.67l4.94,10.63c2.51,5.43,4.55,9.44,6.12,12.03l-8.1,3.83c-.92-2.79-2.66-6.97-5.23-12.52l-4.93-10.64-3.51,1.63,5.1,11.01c1.18,2.55,2.29,4.84,3.34,6.88,1.05,2.04,2.03,3.83,2.95,5.36,1.93,3.16,4.15,7.96,7.66,9.24-8.48,6.84-20.29,6.49-30.9,11.3-1.6-3.96-3.51-8.04-3.97-12.7l-5.34-11.53-16.57-35.78Z"/><path d="M326.09,340.08c25.91-8.6,47.21-28.65,62.59-48.88,7.37-9.24,34.5-7.24,41.63,11.3,2.04,10.7-8.19,16.9-9.65,26.31-2.04-10.7-12.39-20.47-22.63-14.27-2.4,1.11-7.84,5.09-6.08,5.73,3.98,5.44,13.74-4.91,19.47,1.17-.64,1.75-2.57,7.02-4.97,8.13-19.47-1.17-32.28,12.04-42.05,22.39-8.48,6.84-22.98-2.46-32.94-8.65-3.2-2-5.36-3.22-5.36-3.22Z"/><path d="M395.85,427.26c5.32-39.92,18.83-76.76,43.99-107.33,8.24,20.94,13.91,48.89-.37,71.52-2.86-3.04-5.55-11.99-9.24-7.37-9.12,8.59-22.11,27.71-9.83,32.22,8.13,4.97,27.31-3.91,30.7-18.59,1.87,16.61-2.17,33.04,1.45,50.29-20.58-3.57-32.64,23.85-51.93,16.77-9.88-5.62-10.64-19.83-7.36-30.53,.71-2.18,1.57-4.5,2.58-6.97Z"/><path d="M413.53,538.72c-5.08-5.6-7-13.55-6.19-21.31-.05-1.74-.42-3.22-.79-4.55-.74-2.65-1.9-5.67-3.47-9.07-1.86-4.01-3.99-7.32-6.39-9.96-1.57-3.22-5.08-4.51-6.19-6.91,22.05-5.84,47.14-14.55,65.67-29.92,0,0,3.44,7.8,6.96,15.38l7.03,15.17c-3.7,.74-8.17,2.04-13.41,3.91-5.24,1.87-10.17,3.87-14.8,6.01l-12.76,5.91,7.28,15.72c1.66,3.58,3.61,6.74,5.85,9.48,2.24,2.74,4.5,4.79,6.77,6.13l-8.78,4.07c-1.6,.61-3.31,1.27-4.99,1.79-7.35,2.6-13.85,8.44-19.41,.44-.79-.7-1.58-1.46-2.38-2.3Z"/></g><g><path d="M103.01,138.56c-1.53-8.47-2.47-16.77-4.33-24.61-1.25-3.84-1.09-7.89,.17-11.57s3.62-6.97,6.79-9.29c.68-.95,1.41-1.86,2.2-2.73,3.17-3.5,7.29-6.42,12.34-8.76,3.79-1.76,7.49-2.89,11.09-3.41,1.2-.17,2.39-.27,3.57-.31,4.39,.67,9.27,.53,13.98,2.66,5.48,3.25,12.5,5.83,14.07,12.38,7.42,28.6-3.06,62.57-31.19,74.14,4.04-16.43,21.24-57.89,.95-51.4-26.2,6.31,13.38,66.61-26.86,67.77,2.11-11.17-2.33-20.76-1.96-33.24-.36-3.75-.84-7.59-.82-11.63Z"/><path d="M104.87,183.89c9.34,14.56,28.17,17.49,41.44,8.43-5.97,21.69,3.85,49.18,29.58,38.72-18.25,17.19-27.26,41.75-26.86,67.77-11.17-2.11-22.16-10.12-24.85-19.07-3.8-11.35,1.82-21.23-6.13-32.11-1.75-.64-8.3,.93-9.41-1.46-7.77-16.78-3.09-34.97-3.84-53.23,0-5.45,.06-9.05,.06-9.05Zm24.49,77.98c1.45-5.58,4.02-12.6,7.71-17.22-4.8,2.22-8.95,2.69-13.46,3.43l5.75,13.79Z"/><path d="M185.41,308.83c-6.2-10.9-2.33-21.42,.88-30.19,3.69-4.62,19.65-4.73,13.28-9.06-19.76-11.23-25.91,16.37-36.32,28.47-3.98-5.44-9.41-1.46-13.57-1,15.56-26.14,38.09-87.53,77.35-62.84,6.99,8.98,12,19.36,12,19.36,1.76,3.79,3.04,7.45,3.84,10.96,.27,1.17,.49,2.33,.65,3.47-2.79,6.84-.17,15.53-4.61,19.7-3.54,3.05-11.29,3.11-16.4,1.23-4.13-1.27-6.02-4.99-7.55-9.24-1.52-4.25-2.67-9.02-5.35-12.3,2.6,6.15,.09,12.97,1.47,19.76,1.53,6.36,8.62,9.45,14.56,7.76-9.88,6.48-21.86,12.03-34.89,18.19-2.15-.72-3.9-2.07-5.34-4.27Zm20.2-46.35c2.44,.25,4.19,.9,5.95,1.54l1.93-5.26c-6.84-8.48-14.5-9.3-18.36,1.22,1.75,.64,3.51,1.29,5.61,1.09,2.44,.53,4.87,1.41,4.87,1.41Z"/><path d="M197.52,324.47c5.43-9.86,16.13-11.91,25.79-16.64,3.21-2.41,6.26-5.19,9.64-7.81,4.39-2.74,9.46,.57,14.54-1.43,4.5-1.73,8.2-5.21,7.63-10.25,10,1.74,12.25,12.71,9.77,21.07l1.6,3.46c1.75,3.78,3.57,7.65,5.64,11.43,13.44,14.66,13.73,24.72,7.29,42.26-10.81-13.92-25.32-23.22-33.73-38.25-4.04,16.43,21.34,17.78,19.7,33.1-10.99-8.01-19.59-17.14-28.18-26.26,8.88,19.18,30.4,31.06,49.05,39.89-28.02,27.54-62.97-29.08-85.96-46.5-1.76-2.77-2.79-4.06-2.79-4.06Z"/><path d="M292.59,396.01c11.04-8.63,4.84-18.87,4.55-28.92,1.29-3.51,3.69-4.62,4.97-8.13,18.01,10.59,37.95,15.91,60.93,18.38,7.66,.82,13.39,6.9,11.46,12.17-6.9,13.39-20.82,24.2-32.35,33.91,13.28-9.06,9.01-24.56-3.73-33.22,.93,8.3,10.81,13.92,5.84,22.05-1.29,3.51-7.84,5.09-10.88,7.95,2.57-7.02,5.15-14.03-1.69-22.51-6.26,11.64-19.36,14.79-26.73,24.03,1.46-9.41-1.87-16.61-7.4-21.82-2.7-2.4-4.97-3.87-4.97-3.87Z"/><path d="M270.74,490.8c-4.09-13.5,9.19-22.56,18.31-31.15,26.73-24.03,64.1-28.23,86.85-57.7,.69,36.08-29.37,52.91-61.01,63.2-4.8,2.22-9.77,10.35-6.26,11.64,15.79,5.79,37.37-4.2,48.42-18.06,4.91,13.74-10.77,23.91-3.46,36.55-24.91,2.8-47.02,30.51-73.19,12.2-4.39-3.93-7.75-9.49-9.67-16.68Z"/><path d="M312.45,585.53c-1.23-2.65-2.15-5.13-2.76-7.43-.62-2.3-1.27-5.16-1.96-8.59-.38-1.96-.76-3.76-1.14-5.4-.38-1.64-.75-3.13-.75-4.65,.36-11.18-8.3-19.19-17.95-23.21,7.3-4.09,14.45-7.75,22.92-9.59,3.08-.62,5.56-1.7,7.91-2.79l10.17-4.71c4.56-2.11,9.33-4.6,14.34-7.47,5-2.87,9.05-5.47,12.12-7.78,0,0,3.19,7.71,6.7,15.29l7.03,15.17c-3.7,.74-8.17,2.04-13.41,3.91-5.24,1.87-10.17,3.87-14.8,6.01l-12.76,5.91,7.28,15.72c1.66,3.58,3.61,6.74,5.85,9.48,2.24,2.74,4.5,4.79,6.77,6.13l-27.75,12.85c-.03-.06-.09-.11-.18-.14-.09-.03-.2-.1-.31-.19-1.1-.76-2.36-1.85-3.76-3.26-1.4-1.41-2.59-3.16-3.56-5.26Z"/></g><g><path d="M3.24,182.93c-3.03-6.54-4.71-13.32-5.05-20.35-.34-7.03,1.17-13.61,4.51-19.73,2.79-5.1,7.05-9.29,12.78-12.58,1.16-.53,2.38-1.02,3.74-1.01,9.29,1.97,17.65-3.67,26.3-4.85,5.62-.84,10.54,2.9,13.12,7.72,1.08,2.33,.57,5.04,2.07,7.53,3.86,5.28,8.53,10.02,11.68,15.87,13.45,22.57-2.22,32.74-22.98,35.07,1.29-3.51,2.57-7.02,2.5-11.15-1.5-5.14-2.77-11.89-5.33-17.25-2.57-5.35-6.43-9.31-13.12-8.86-4.89,.14-7.5,5.95-6.93,10.99,.59,8.92,7.01,15.14,12.54,22.49,1.39,1.48,1.31,4.35,2.54,6.25,1.39,1.48,3.1,2.1,4.8,2.73-9.05,4.9-16.52,14.72-26.14,14.58-3.88,.03-6.8-7.81-9.19-12.83-.64-1-1.29-2.06-1.94-3.17-1.94-3.33-3.91-7.15-5.9-11.45Z"/><path d="M17.97,212.35c7.14,.48,13.67-1.09,20.17-3.07,15.08-7.33,33.91-4.4,40.75,4.08,13.97,27.02,11.8,60.06,32.32,85.5-18.65-8.83-39.77,5.31-54.91-2.24-8.77-3.22-17.65-22.4-12.51-36.43,.64-1.75,8.3-.93,11.81,.35,1-13.57-11.1-23.98-24.2-20.82-3.51-1.29-6.37-4.33-6.14-8.83-1.15-4.58-1.99-10.18-4.45-13.95-1.7-2.68-2.84-4.59-2.84-4.59Zm44.96,39.41c1.1-7.3,5.42-10.34,11.54-4.51-6.55-11.85-12.89-8.76-18.58-8.45,1.44,2,1.96,3.71,3.5,6.12,1.75,3.31,3.54,6.85,3.54,6.85Z"/><path d="M98.63,367.82c-1.83-2.59-4.69-5.63-1.65-8.5,10.23-6.2,21.87,.06,31.93-.23-29-18.6-63.33-17.27-72.79-56.56,23.27,12.52,51.05,12.76,74.96,23.53,24.56,9.01,63.79,21.42,61.8,48.55,.76,14.21-31.93,.23-48.83-7.96,9.06,13.28,26.14,15.56,42.1,15.45-26.67,2.16-53.33,4.31-78.84-6.91-4.26-2.53-7.06-4.99-8.68-7.36Zm45.92-4.8c4.29,1.41,8.91,5.09,13.71,2.87-5.09-7.84-14.97-13.45-23.91-10.77-1.75-.64,2.86,3.04,4.76,4.1,2.95,1.98,5.45,3.79,5.45,3.79Z"/><path d="M111.78,383.21c32.85,3.54,69.69,17.06,97.53-4.57,3.04-2.86-.93-8.3-3.8-11.35,20.58,3.57,29.47,22.75,36.77,35.39,7.13,18.54-31.82,16.19-48.42,18.06,8.3-.93,16.32-11.93,11.23-19.76-1.75-.64-5.91-.18-8.3,.93,6.66,14.39-7.55,15.14-17.61,15.43,1.93-5.26,5.62-9.88,3.4-14.68-1.75-.64-5.91-.18-8.3,.93,3.33,7.19-5.79,15.79,4.09,21.4-17.72-.53-36.08,.69-54.44,1.92,.35-11.81-.4-26.02-7.88-37.13-2.38-3.89-4.26-6.58-4.26-6.58Z"/><path d="M126.17,435.68c42.6-6.23,85.23-8.5,128.5-12.53-16.2,27.89-33.99,49.23-66.09,55.36,5.62-9.88,3.57-20.58,5.68-31.75-2.4,1.11-5.91-.18-6.55,1.58-3.86,10.52,3.91,27.31-11.88,21.52-3.51-1.29,1.64-15.32-1.87-16.61-12.28-4.51-25.56,4.56-36.43,12.51-2.22-4.8-2.04-10.7-6.3-15.91-2.9-7.26-5.07-14.16-5.07-14.16Z"/><path d="M167.52,537.63c-3.06-6.6-4.72-12.81-4.98-18.64s1.13-11.14,4.19-15.93c3.06-4.79,8.08-8.77,15.19-11.95,13.04-8.27,28.54-12.53,42.93-19.2-1.93,5.26,.29,10.06,1.04,15.05,1.93,7.38,5.41,14.95,5.41,14.95-3.61,.77-8.08,2.11-13.41,4.02-2.67,.95-5.74,1.83-8.59,2.93-8.94,2.51-24.44,11.81-13.96,21.46,5.03,4.74,11.52-1.09,16.22-4.68,3.54-3.05,7.77-5.37,12.32-6.57,2.77-.87,5.17-1.84,7.13-3.11,1.96-1.27,3.67-2.47,5.13-3.6l14.05,30.34c-3.61,.77-8.08,2.11-13.41,4.02-5.33,1.91-10.34,3.95-15.03,6.12l-9.53,4.41c-6.35,2.94-12.3,4.16-17.85,3.66-5.55-.5-10.58-2.7-15.08-6.61-4.51-3.91-8.43-9.46-11.77-16.68Z"/><path d="M211.38,632.34c-1.23-2.65-2.15-5.13-2.76-7.43-.62-2.3-1.27-5.16-1.96-8.59-.76-3.91-1.52-7.2-2.26-9.85-.74-2.65-1.9-5.67-3.47-9.07-1.86-4.01-3.99-7.32-6.41-9.95-2.42-2.63-4.65-4.63-6.71-5.99,3.61-.77,8.31-2.22,14.11-4.34,5.79-2.12,11.03-4.27,15.72-6.44l10.17-4.71c4.56-2.11,9.31-4.59,14.25-7.44,4.93-2.85,8.9-5.41,11.88-7.69l14.05,30.34c-3.7,.74-8.17,2.04-13.41,3.91-5.24,1.87-10.17,3.87-14.8,6.01l-12.76,5.91,7.28,15.72c1.66,3.58,3.61,6.74,5.85,9.48,2.24,2.74,4.5,4.79,6.77,6.13l-27.75,12.85c-.03-.06-.09-.11-.18-.14-.09-.03-.2-.1-.31-.19-1.1-.76-2.36-1.85-3.76-3.26-1.4-1.41-2.59-3.16-3.56-5.26Z"/></g></g></g><g><g><path class="f" d="M277.04,429.48c-5.88-2.16-10-6.81-11.6-13.11-2.26-8.88-8.75-16.07-17.35-19.23-8.61-3.16-18.2-1.87-25.67,3.44-5.29,3.77-11.45,4.65-17.33,2.49-5-1.83-9.08-5.62-11.22-10.4-1.43-3.21-2.62-8.34-.12-14.61,2.8-7.03,2.66-14.69-.41-21.56-3.06-6.85-8.81-12.25-15.78-14.81-2.97-1.09-6.11-1.66-9.34-1.69-2.35-.02-4.59-.42-6.65-1.18-6.57-2.41-11.31-8.69-12.09-16-.78-7.35,2.42-13.88,8.79-17.89,7.75-4.89,12.58-13.28,12.93-22.44,.34-9.16-3.85-17.89-11.21-23.35-8.42-6.25-8.78-15.65-6.52-21.81,2.26-6.15,8.61-13.1,19.08-12.41,9.15,.6,17.99-3.35,23.65-10.56,5.66-7.21,7.4-16.73,4.66-25.48-2.25-7.18-.48-14.23,4.87-19.33,5.32-5.07,13-6.79,19.57-4.38,2.06,.76,4.02,1.9,5.84,3.41,2.48,2.06,5.24,3.66,8.21,4.75,6.97,2.56,14.85,2.16,21.61-1.09,6.79-3.26,11.85-9,14.26-16.18,2.15-6.39,6.37-9.54,9.54-11.06,4.72-2.27,10.29-2.51,15.29-.68,5.88,2.16,10,6.81,11.6,13.11,2.26,8.88,8.74,16.07,17.35,19.23,8.61,3.16,18.2,1.87,25.67-3.44,5.29-3.77,11.45-4.65,17.33-2.5,5,1.83,9.09,5.63,11.22,10.41,1.43,3.21,2.61,8.34,.12,14.61-2.8,7.03-2.66,14.69,.41,21.56,3.06,6.85,8.81,12.25,15.78,14.81,2.97,1.09,6.11,1.66,9.34,1.69,2.35,.02,4.59,.42,6.65,1.18,6.57,2.41,11.31,8.69,12.09,16,.78,7.35-2.42,13.87-8.79,17.89-7.75,4.89-12.58,13.28-12.93,22.44s3.85,17.89,11.21,23.35c8.42,6.25,8.78,15.65,6.52,21.81-2.26,6.15-8.61,13.1-19.08,12.42-9.15-.6-17.99,3.35-23.65,10.56-5.66,7.21-7.4,16.73-4.66,25.48,2.25,7.18,.48,14.23-4.87,19.33-5.32,5.07-13,6.79-19.57,4.39-2.06-.76-4.02-1.9-5.83-3.41-2.48-2.06-5.24-3.66-8.21-4.75-6.97-2.56-14.85-2.16-21.61,1.09-6.79,3.26-11.85,9-14.26,16.18-2.15,6.39-6.37,9.54-9.54,11.06-4.72,2.27-10.29,2.51-15.29,.68Z"/><path d="M370.48,174.84c3.83,1.41,7.1,4.43,8.73,8.08,1.09,2.43,1.98,6.35,.05,11.19-3.25,8.14-3.07,17.01,.48,24.98,3.54,7.93,10.2,14.17,18.27,17.14,3.44,1.26,7.08,1.92,10.8,1.96,1.85,.02,3.6,.32,5.19,.91,5.01,1.84,8.64,6.68,9.24,12.34,.28,2.66,.19,9.33-6.77,13.72-8.98,5.67-14.57,15.38-14.97,25.99-.4,10.61,4.45,20.72,12.98,27.04,6.47,4.8,6.83,11.81,5.01,16.77-1.82,4.96-6.63,10.07-14.67,9.55-10.59-.69-20.83,3.88-27.39,12.23-6.56,8.35-8.57,19.38-5.39,29.5,2.46,7.85-1.78,12.99-3.71,14.84-4.12,3.93-10.02,5.28-15.03,3.44-1.59-.58-3.12-1.48-4.54-2.66-2.86-2.38-6.06-4.23-9.51-5.49-8.07-2.96-17.19-2.51-25.02,1.25-7.86,3.77-13.73,10.43-16.52,18.74-1.66,4.94-4.87,7.35-7.28,8.5-3.6,1.73-8.04,1.92-11.88,.52-2.6-.95-7.2-3.53-8.86-10.07-2.62-10.29-10.13-18.61-20.09-22.27s-21.08-2.17-29.73,3.99c-5.5,3.92-10.68,2.9-13.27,1.95-3.83-1.41-7.1-4.43-8.73-8.08-1.09-2.43-1.98-6.35-.05-11.19,3.24-8.14,3.07-17.01-.48-24.97-3.54-7.93-10.2-14.17-18.27-17.14-3.44-1.26-7.08-1.92-10.8-1.96-1.85-.02-3.6-.32-5.19-.91-5.01-1.84-8.64-6.68-9.24-12.34-.28-2.66-.19-9.33,6.77-13.72,8.98-5.67,14.57-15.38,14.97-25.99,.4-10.61-4.45-20.72-12.98-27.04-6.47-4.8-6.83-11.81-5.01-16.77,1.82-4.96,6.63-10.07,14.67-9.55,10.59,.69,20.83-3.88,27.39-12.23,6.56-8.35,8.57-19.38,5.39-29.5-2.46-7.85,1.78-12.99,3.71-14.84,4.12-3.93,10.02-5.28,15.03-3.44,1.59,.58,3.12,1.48,4.54,2.66,2.87,2.38,6.06,4.23,9.51,5.49,8.07,2.96,17.19,2.51,25.02-1.25,7.86-3.77,13.73-10.43,16.52-18.74,1.66-4.94,4.87-7.35,7.28-8.5,3.6-1.73,8.04-1.92,11.88-.52,2.6,.95,7.2,3.53,8.86,10.07,2.62,10.29,10.13,18.61,20.09,22.27s21.08,2.17,29.73-3.99c5.5-3.92,10.68-2.9,13.27-1.95m3.02-8.24c-6.62-2.43-14.4-1.93-21.38,3.04h0c-6.7,4.76-14.74,5.42-21.62,2.9-6.88-2.52-12.59-8.23-14.61-16.19h0c-2.11-8.31-7.72-13.72-14.34-16.15-11.4-4.18-25.8,.48-30.49,14.47h0c-4.34,12.93-18.34,18.89-30.2,14.54-2.43-.89-4.77-2.22-6.92-4h0c-2.27-1.89-4.67-3.25-7.13-4.15-16.93-6.21-36.24,9.71-30.14,29.15h0c4.92,15.68-7.44,31.42-23.84,30.35h0c-23.27-1.52-34.19,28.23-15.46,42.12h0c13.2,9.79,12.45,29.79-1.45,38.56h0c-17.23,10.88-12.8,35.51,4.13,41.72,2.45,.9,5.17,1.41,8.12,1.44h0c2.8,.03,5.44,.53,7.87,1.42,11.86,4.35,18.68,17.95,13.63,30.62h0c-5.46,13.71,2.5,26.57,13.9,30.76,6.62,2.43,14.4,1.93,21.38-3.04h0c6.7-4.76,14.74-5.42,21.62-2.9,6.88,2.52,12.59,8.23,14.61,16.19h0c2.11,8.31,7.72,13.72,14.34,16.15,11.4,4.18,25.8-.48,30.49-14.47h0c4.34-12.93,18.34-18.9,30.2-14.54,2.43,.89,4.77,2.22,6.92,4h0c2.27,1.89,4.67,3.25,7.13,4.15,16.93,6.21,36.24-9.71,30.14-29.15h0c-4.92-15.68,7.44-31.42,23.84-30.35h0c23.27,1.52,34.19-28.23,15.46-42.12h0c-13.2-9.79-12.45-29.79,1.45-38.56h0c17.23-10.88,12.8-35.51-4.13-41.72-2.45-.9-5.17-1.41-8.12-1.44h0c-2.8-.03-5.44-.53-7.87-1.42-11.86-4.35-18.68-17.95-13.63-30.62h0c5.46-13.71-2.5-26.57-13.9-30.76h0Z"/></g><g><path class="g" d="M232.02,302.85c-8.5-3.12-15-10.78-18.28-21.56-3.51-11.51-2.84-24.94,1.88-37.8,4.72-12.86,12.89-23.53,23.01-30.04,9.48-6.1,19.38-7.74,27.88-4.61s15,10.78,18.28,21.56c3.51,11.51,2.84,24.94-1.88,37.8-4.72,12.86-12.89,23.53-23.01,30.04-9.48,6.1-19.38,7.74-27.88,4.61Z"/><path d="M265.43,211.78c6.82,2.5,12.37,9.31,15.22,18.68,3.34,10.97,2.68,23.84-1.86,36.22-4.54,12.38-12.36,22.62-22.01,28.82-8.24,5.3-16.87,6.9-23.69,4.4-6.82-2.5-12.37-9.31-15.22-18.68-3.34-10.97-2.68-23.84,1.86-36.22,4.54-12.38,12.36-22.62,22.01-28.82,8.24-5.3,16.87-6.9,23.69-4.4m2.16-5.88c-20.86-7.65-45.98,8.5-56.1,36.09-10.12,27.58-1.42,56.15,19.44,63.81,20.86,7.65,45.98-8.5,56.1-36.09,10.12-27.58,1.42-56.15-19.44-63.81h0Z"/></g><ellipse cx="234.23" cy="250.33" rx="30.5" ry="22.71" transform="translate(-81.46 383.98) rotate(-69.85)"/><g><g><path class="g" d="M301.16,328.22c-8.5-3.12-15-10.78-18.28-21.56-3.51-11.51-2.84-24.94,1.88-37.8,4.72-12.86,12.89-23.53,23.01-30.04,9.48-6.1,19.38-7.74,27.88-4.61,8.5,3.12,15,10.78,18.28,21.56,3.51,11.51,2.84,24.94-1.88,37.8-4.72,12.86-12.89,23.53-23.01,30.04-9.48,6.1-19.38,7.74-27.88,4.61Z"/><path d="M334.58,237.15c6.82,2.5,12.37,9.31,15.22,18.68,3.34,10.97,2.68,23.84-1.86,36.22-4.54,12.38-12.36,22.62-22.01,28.82-8.24,5.3-16.87,6.9-23.69,4.4s-12.37-9.31-15.22-18.68c-3.34-10.97-2.68-23.84,1.86-36.22,4.54-12.38,12.36-22.62,22.01-28.82,8.24-5.3,16.87-6.9,23.69-4.4m2.16-5.88c-20.86-7.65-45.98,8.5-56.1,36.09-10.12,27.58-1.42,56.15,19.44,63.81,20.86,7.65,45.98-8.5,56.1-36.09,10.12-27.58,1.42-56.15-19.44-63.81h0Z"/></g><ellipse cx="331.41" cy="270.14" rx="30.5" ry="22.71" transform="translate(-36.36 488.2) rotate(-69.85)"/></g></g></g></g><g id="d"/></svg>