<?xml version="1.0" encoding="UTF-8"?><svg xmlns="http://www.w3.org/2000/svg" viewBox="0 0 981.83 986.7"><defs><style>.d{fill:#030020;}.e{fill:#6a00ff;}.f{fill:#c000ff;}.g{fill:#c600ff;}</style></defs><g id="a"/><g id="b"><g><path class="d" d="M98.43,97.46c-131.15,126.43-129.74,340.67,3.15,478.53l395.72,410.51,474.94-457.83L576.53,118.16C443.63-19.7,229.58-28.97,98.43,97.46Z"/><path class="e" d="M123.35,123.31c29.36-28.3,63.67-49.71,101.97-63.64,37.03-13.46,76.23-19.4,116.5-17.66,40.31,1.75,79.67,11.1,116.97,27.82,38.64,17.31,73.38,41.8,103.25,72.78l372.29,386.21-435.49,419.79L126.55,562.41c-29.87-30.98-53.06-66.59-68.94-105.85-15.33-37.89-23.24-77.56-23.51-117.91-.27-40.31,7.11-79.26,21.92-115.77,15.32-37.76,37.97-71.26,67.33-99.56m-5.96-6.18C-6.28,236.34-4.95,438.37,120.37,568.37l378.26,392.39,447.85-431.72L568.22,136.65C442.91,6.66,241.07-2.09,117.39,117.13h0Z"/><g><path class="g" d="M457.48,551.86l-51.79,49.93c-1.79,1.73-2,3.66-.63,5.79l-18.89-6.05,22.78-21.96-5.18-5.37c-1.38-1.43-2.9-2.29-4.54-2.56-1.65-.28-3.29,.17-4.93,1.33l18.07-30.07,16.68,17.3,18.91-18.23,9.53,9.89Zm-30.74,82.08c-3.11-3.22-5.24-6.83-6.4-10.83-1.16-4-1.42-8.17-.77-12.52,.64-4.35,2.2-8.72,4.67-13.11,2.47-4.39,5.75-8.55,9.83-12.49,4.08-3.94,8.33-7.02,12.73-9.27,4.4-2.24,8.79-3.6,13.16-4.09,4.37-.48,8.53-.07,12.49,1.23,3.95,1.3,7.48,3.57,10.59,6.79,3.25,3.37,5.48,7.09,6.71,11.15,1.23,4.07,1.5,8.26,.82,12.58-.68,4.32-2.23,8.62-4.67,12.9-2.44,4.28-5.69,8.39-9.78,12.33-4.08,3.94-8.35,7.08-12.79,9.42-4.44,2.35-8.83,3.78-13.17,4.3-4.34,.52-8.52,.09-12.54-1.29-4.02-1.38-7.65-3.75-10.9-7.11Zm16.87-16.26c1.45,1.5,3.08,2.8,4.89,3.89,1.81,1.09,3.75,1.81,5.82,2.16,2.07,.36,4.2,.2,6.39-.46,2.19-.66,4.33-1.99,6.41-4s3.36-3.97,4.07-6.1c.71-2.13,.94-4.22,.7-6.27-.24-2.04-.89-4.01-1.95-5.89-1.06-1.88-2.31-3.58-3.76-5.08-1.52-1.57-3.18-2.91-4.99-4-1.81-1.09-3.71-1.77-5.72-2.06-2-.28-4.06-.09-6.19,.57-2.12,.67-4.19,1.97-6.19,3.9-2.08,2-3.51,4.07-4.28,6.2-.78,2.13-1.06,4.2-.85,6.21,.21,2.01,.84,3.96,1.9,5.84,1.06,1.88,2.31,3.58,3.76,5.08Zm83.24-9.13l-78.62-81.56c-.97-1-2.1-1.74-3.39-2.23-1.29-.48-2.68-.42-4.17,.19l15.71-27.58,35.63,36.96,14.51-13.98,10.57,10.96-14.51,13.98,33.87,35.14c3.31,3.44,4.89,6.72,4.73,9.85-.16,3.13-2.04,6.42-5.62,9.87l-8.7,8.39Z"/><path class="g" d="M544.2,554.51c3.99-6.33,7.03-13.2,9.14-20.63,2.11-7.42,2.93-15.09,2.48-23.02-.45-7.92-2.35-15.98-5.68-24.17-3.33-8.19-8.41-16.32-15.23-24.4l-27.62,26.62c-1.79,1.73-2,3.66-.63,5.79l-19.41-6.58,37.82-36.46-4.35-4.51,23.99-13.18,6.32,6.55c6.56,6.81,11.69,14.78,15.39,23.93,3.7,9.15,5.56,18.86,5.59,29.13,.02,10.28-2,20.83-6.07,31.66-4.07,10.83-10.63,21.3-19.68,31.41l-2.07-2.15Zm92.25-51.61l-78.62-81.56c-.97-1-2.09-1.74-3.39-2.23-1.29-.48-2.68-.42-4.17,.19l15.71-27.58,80.07,83.06c3.31,3.44,4.89,6.72,4.73,9.85-.16,3.13-2.04,6.42-5.62,9.87l-8.7,8.39Z"/></g><g><path class="f" d="M253.74,305.08c-.38-.4-.81-.64-1.27-.72-.46-.08-.92,.05-1.37,.37l4.44-7.8,3.35,3.47c1,1.04,1.82,2.17,2.47,3.4,1.71-1.34,3.41-2.02,5.08-2.04,1.68-.02,3.16,.64,4.45,1.98,.6,.62,.92,1.32,.96,2.11,.04,.79-.25,1.56-.9,2.34-.62,.75-1.31,1.29-2.06,1.61-.75,.32-1.46,.4-2.12,.23-.13-.49-.34-.98-.62-1.45s-.62-.89-1.01-1.25c-.39-.36-.82-.64-1.29-.83-.48-.19-.97-.28-1.48-.25,.68,2.39,.66,4.91-.05,7.56-.72,2.65-2.3,5.37-4.74,8.15l-.58-.6c1.42-2.8,1.83-5.59,1.23-8.38-.61-2.79-2.1-5.42-4.49-7.89Zm37.73-4.25c.67,.7,1.05,1.6,1.14,2.71,.09,1.11-.13,2.38-.64,3.8-.52,1.42-1.36,2.97-2.53,4.63-1.17,1.67-2.67,3.38-4.51,5.15-1.84,1.77-3.61,3.21-5.31,4.32-1.71,1.11-3.29,1.9-4.74,2.37-1.45,.47-2.73,.65-3.83,.52-1.11-.13-2-.54-2.67-1.24-.67-.7-1.06-1.61-1.16-2.73-.1-1.12,.12-2.39,.64-3.83,.53-1.43,1.37-2.98,2.54-4.65,1.17-1.66,2.67-3.38,4.51-5.15,1.84-1.77,3.61-3.21,5.32-4.32,1.71-1.11,3.28-1.89,4.72-2.35,1.44-.46,2.72-.63,3.83-.49,1.12,.14,2.01,.56,2.68,1.26Zm-5.66,5.46c-.69-.72-1.79-.88-3.3-.49-1.51,.39-3.24,1.53-5.2,3.42-1.98,1.91-3.19,3.6-3.64,5.1-.45,1.49-.33,2.6,.37,3.32s1.78,.88,3.27,.49c1.49-.39,3.23-1.55,5.23-3.48,1.96-1.89,3.16-3.57,3.62-5.05,.46-1.48,.34-2.58-.35-3.3Zm-3.67-6.57l-6.06-6.29-2.25,2.17,2.34,2.43c.92,.96,1.36,1.87,1.32,2.75-.05,.87-.57,1.79-1.57,2.75l-1.83,1.76-10.57-10.96c-.27-.28-.58-.49-.95-.62-.36-.13-.75-.12-1.16,.05l4.07-6.81,5.69,5.9,2.25-2.17-3.81-3.95c-.27-.28-.58-.49-.94-.62-.36-.13-.75-.12-1.16,.05l4.07-6.81,12.64,13.12c.92,.96,1.36,1.87,1.32,2.75-.05,.87-.57,1.79-1.57,2.75l-1.83,1.76Z"/><path class="f" d="M287.36,292.02c1.31-1.72,2.33-3.57,3.07-5.53,.74-1.97,1.19-4.07,1.35-6.3,.11-1.57-.03-3.05-.42-4.45s-.91-2.66-1.58-3.79l-7.49,7.22c-.5,.48-.56,1.02-.18,1.61l-5.41-1.83,10.54-10.16-1.21-1.26,6.69-3.67,.4,.42c.92,.96,1.67,2,2.24,3.13,.57,1.13,.99,2.31,1.26,3.55,.27,1.24,.4,2.51,.37,3.8-.02,1.29-.16,2.59-.42,3.88-.3,1.41-.74,2.76-1.32,4.05-.58,1.29-1.26,2.53-2.04,3.7-.78,1.17-1.62,2.28-2.52,3.32-.9,1.04-1.82,2.02-2.76,2.92l-.58-.6Zm26.83-22.63l6.76,7.01c.92,.96,1.36,1.87,1.32,2.75-.05,.87-.57,1.79-1.57,2.75l-2.43,2.34-6.73-6.98-13.75,13.25c-.5,.48-.56,1.02-.18,1.62l-5.26-1.69,21.83-21.05Zm-6.54,3.82l-11.29-11.71c-.27-.28-.58-.49-.95-.62-.36-.13-.75-.12-1.16,.05l4.38-7.69,5.66,5.87,4.04-3.9,2.66,2.76-4.04,3.9,3.38,3.5c.92,.96,1.36,1.87,1.32,2.75-.05,.87-.57,1.79-1.57,2.75l-2.43,2.34Z"/><path class="f" d="M303.64,333.23l-14.43,13.91c-.5,.48-.56,1.02-.18,1.62l-5.26-1.69,6.35-6.12-1.44-1.5c-.38-.4-.81-.64-1.27-.71-.46-.08-.92,.05-1.37,.37l5.04-8.38,4.65,4.82,5.27-5.08,2.66,2.76Zm-8.57,22.88c-.87-.9-1.46-1.9-1.78-3.02-.32-1.11-.39-2.28-.22-3.49,.18-1.21,.61-2.43,1.3-3.65s1.6-2.38,2.74-3.48,2.32-1.96,3.55-2.58c1.23-.62,2.45-1,3.67-1.14,1.22-.13,2.38-.02,3.48,.34,1.1,.36,2.09,.99,2.95,1.89,.9,.94,1.53,1.97,1.87,3.11,.34,1.13,.42,2.3,.23,3.51-.19,1.2-.62,2.4-1.3,3.59-.68,1.19-1.59,2.34-2.73,3.44-1.14,1.1-2.33,1.97-3.56,2.63-1.24,.65-2.46,1.05-3.67,1.2s-2.37,.03-3.49-.36c-1.12-.38-2.13-1.04-3.04-1.98Zm4.7-4.53c.4,.42,.86,.78,1.36,1.08,.5,.3,1.05,.51,1.62,.6,.58,.1,1.17,.06,1.78-.13,.61-.18,1.21-.56,1.79-1.11,.56-.54,.94-1.11,1.13-1.7,.2-.59,.26-1.18,.19-1.75-.07-.57-.25-1.12-.54-1.64-.29-.52-.64-1-1.05-1.42-.42-.44-.89-.81-1.39-1.11-.5-.3-1.04-.49-1.59-.57-.56-.08-1.13-.03-1.72,.16-.59,.19-1.17,.55-1.73,1.09-.58,.56-.98,1.13-1.19,1.73-.22,.59-.3,1.17-.24,1.73,.06,.56,.23,1.1,.53,1.63,.29,.53,.64,1,1.05,1.42Zm23.2-2.55l-21.91-22.73c-.27-.28-.58-.49-.95-.62-.36-.13-.75-.12-1.16,.05l4.38-7.69,9.93,10.3,4.04-3.9,2.94,3.05-4.04,3.9,9.44,9.79c.92,.96,1.36,1.87,1.32,2.75-.05,.87-.57,1.79-1.57,2.75l-2.43,2.34Z"/><path class="f" d="M359.06,309.57l-24.8,23.9c-.58,.56-.65,1.17-.21,1.82l-6.07-1.14,9.4-9.06-6.78-7.04c-.27-.28-.58-.49-.95-.62-.36-.13-.75-.12-1.16,.05l4.67-7.39,9.53,9.88,13.69-13.19,2.69,2.79Zm-16.84,4.1c.23-.8,.2-1.64-.09-2.52-.29-.88-.73-1.75-1.32-2.63-.59-.87-1.26-1.73-2.01-2.57-.75-.84-1.47-1.62-2.16-2.33l-3.75-3.89-13.15,12.67c-.5,.48-.56,1.02-.18,1.61l-5.41-1.83,15.93-15.36-1.21-1.26,6.69-3.67,5.31,5.51c2.41,2.5,3.8,5.11,4.2,7.83,.39,2.72-.37,5.73-2.27,9.03l-.58-.6Z"/></g><g><path class="f" d="M600.39,664.69c-.38-.4-.81-.64-1.27-.72-.46-.08-.92,.05-1.37,.37l4.44-7.8,3.35,3.47c1,1.04,1.82,2.17,2.47,3.4,1.71-1.34,3.41-2.02,5.08-2.04,1.68-.02,3.16,.64,4.45,1.98,.6,.62,.92,1.32,.96,2.11,.04,.79-.25,1.56-.9,2.34-.62,.75-1.31,1.29-2.06,1.61-.75,.32-1.46,.4-2.12,.23-.13-.49-.34-.98-.62-1.45s-.62-.89-1.01-1.25c-.39-.36-.82-.64-1.29-.83-.48-.19-.97-.28-1.48-.25,.68,2.39,.66,4.91-.05,7.56-.72,2.65-2.3,5.37-4.74,8.15l-.58-.6c1.42-2.8,1.83-5.59,1.23-8.38-.61-2.79-2.1-5.42-4.49-7.89Zm37.73-4.25c.67,.7,1.05,1.6,1.14,2.71,.09,1.11-.13,2.38-.64,3.8-.52,1.42-1.36,2.97-2.53,4.63-1.17,1.67-2.67,3.38-4.51,5.15-1.84,1.77-3.61,3.21-5.31,4.32-1.71,1.11-3.29,1.9-4.74,2.37-1.45,.47-2.73,.65-3.83,.52-1.11-.13-2-.54-2.67-1.24s-1.06-1.61-1.16-2.73c-.1-1.12,.12-2.39,.64-3.83,.53-1.43,1.37-2.98,2.54-4.65,1.17-1.66,2.67-3.38,4.51-5.15,1.84-1.77,3.61-3.21,5.32-4.32,1.71-1.11,3.28-1.89,4.72-2.35s2.72-.63,3.83-.49c1.12,.14,2.01,.56,2.68,1.26Zm-5.66,5.46c-.69-.72-1.79-.88-3.3-.49-1.51,.39-3.24,1.53-5.2,3.42s-3.19,3.6-3.64,5.1c-.45,1.49-.33,2.6,.37,3.32,.69,.72,1.78,.88,3.27,.49s3.23-1.55,5.23-3.48,3.16-3.57,3.62-5.05c.46-1.48,.34-2.58-.35-3.3Zm-3.67-6.57l-6.06-6.29-2.25,2.17,2.34,2.43c.92,.96,1.36,1.87,1.32,2.75-.05,.87-.57,1.79-1.57,2.75l-1.83,1.76-10.57-10.96c-.27-.28-.58-.49-.95-.62-.36-.13-.75-.12-1.16,.05l4.07-6.81,5.69,5.9,2.25-2.17-3.81-3.95c-.27-.28-.58-.49-.94-.62-.36-.13-.75-.12-1.16,.05l4.07-6.81,12.64,13.12c.92,.96,1.36,1.87,1.32,2.75-.05,.87-.57,1.79-1.57,2.75l-1.83,1.76Z"/><path class="f" d="M634.02,651.63c1.31-1.72,2.33-3.57,3.07-5.53,.74-1.97,1.19-4.07,1.35-6.3,.11-1.57-.03-3.05-.42-4.45-.39-1.4-.91-2.66-1.58-3.79l-7.49,7.22c-.5,.48-.56,1.02-.18,1.61l-5.41-1.83,10.54-10.16-1.21-1.26,6.69-3.67,.4,.42c.92,.96,1.67,2,2.24,3.13,.57,1.13,.99,2.31,1.26,3.55,.27,1.24,.4,2.51,.37,3.8-.02,1.29-.16,2.59-.42,3.88-.3,1.41-.74,2.76-1.32,4.05-.58,1.29-1.26,2.53-2.04,3.7-.78,1.17-1.62,2.28-2.52,3.32-.9,1.04-1.82,2.02-2.76,2.92l-.58-.6Zm26.83-22.63l6.76,7.01c.92,.96,1.36,1.87,1.32,2.75-.05,.87-.57,1.79-1.57,2.75l-2.43,2.34-6.73-6.98-13.75,13.25c-.5,.48-.56,1.02-.18,1.62l-5.26-1.69,21.83-21.05Zm-6.54,3.82l-11.29-11.71c-.27-.28-.58-.49-.95-.62-.36-.13-.75-.12-1.16,.05l4.38-7.69,5.66,5.87,4.04-3.9,2.66,2.76-4.04,3.9,3.38,3.5c.92,.96,1.36,1.87,1.32,2.75-.05,.87-.57,1.79-1.57,2.75l-2.43,2.34Z"/><path class="f" d="M650.3,692.85l-14.43,13.91c-.5,.48-.56,1.02-.18,1.62l-5.26-1.69,6.35-6.12-1.44-1.5c-.38-.4-.81-.64-1.27-.71-.46-.08-.92,.05-1.37,.37l5.04-8.38,4.65,4.82,5.27-5.08,2.66,2.76Zm-8.57,22.88c-.87-.9-1.46-1.9-1.78-3.02-.32-1.11-.39-2.28-.22-3.49s.61-2.43,1.3-3.65c.69-1.22,1.6-2.38,2.74-3.48,1.14-1.1,2.32-1.96,3.55-2.58,1.23-.62,2.45-1,3.67-1.14,1.22-.13,2.38-.02,3.48,.34,1.1,.36,2.09,.99,2.95,1.89s1.53,1.97,1.87,3.11c.34,1.13,.42,2.3,.23,3.51-.19,1.2-.62,2.4-1.3,3.59-.68,1.19-1.59,2.34-2.73,3.44-1.14,1.1-2.33,1.97-3.56,2.63-1.24,.65-2.46,1.05-3.67,1.2s-2.37,.03-3.49-.36c-1.12-.38-2.13-1.04-3.04-1.98Zm4.7-4.53c.4,.42,.86,.78,1.36,1.08,.5,.3,1.05,.51,1.62,.6,.58,.1,1.17,.06,1.78-.13,.61-.18,1.21-.56,1.79-1.11,.56-.54,.94-1.11,1.13-1.7,.2-.59,.26-1.18,.19-1.75-.07-.57-.25-1.12-.54-1.64-.29-.52-.64-1-1.05-1.42s-.89-.81-1.39-1.11c-.5-.3-1.04-.49-1.59-.57-.56-.08-1.13-.03-1.72,.16-.59,.19-1.17,.55-1.73,1.09-.58,.56-.98,1.13-1.19,1.73-.22,.59-.3,1.17-.24,1.73,.06,.56,.23,1.1,.53,1.63,.29,.53,.64,1,1.05,1.42Zm23.2-2.55l-21.91-22.73c-.27-.28-.58-.49-.95-.62-.36-.13-.75-.12-1.16,.05l4.38-7.69,9.93,10.3,4.04-3.9,2.94,3.05-4.04,3.9,9.44,9.79c.92,.96,1.36,1.87,1.32,2.75-.05,.87-.57,1.79-1.57,2.75l-2.43,2.34Z"/><path class="f" d="M705.71,669.18l-24.8,23.9c-.58,.56-.65,1.17-.21,1.82l-6.07-1.14,9.4-9.06-6.78-7.04c-.27-.28-.58-.49-.95-.62-.36-.13-.75-.12-1.16,.05l4.67-7.39,9.53,9.88,13.69-13.19,2.69,2.79Zm-16.84,4.1c.23-.8,.2-1.64-.09-2.52-.29-.88-.73-1.75-1.32-2.63-.59-.87-1.26-1.73-2.01-2.57-.75-.84-1.47-1.62-2.16-2.33l-3.75-3.89-13.15,12.67c-.5,.48-.56,1.02-.18,1.61l-5.41-1.83,15.93-15.36-1.21-1.26,6.69-3.67,5.31,5.51c2.41,2.5,3.8,5.11,4.2,7.83,.39,2.72-.37,5.73-2.27,9.03l-.58-.6Z"/></g><g><path class="g" d="M303.47,560.7c4.58-4.42,8.67-8.57,12.26-12.44,3.59-3.87,6.81-7.56,9.65-11.06,2.84-3.5,5.4-6.9,7.68-10.2,2.28-3.3,4.33-6.59,6.14-9.86l-43.5-45.13c-.97-1-2.1-1.74-3.39-2.23-1.29-.48-2.68-.42-4.17,.19l15.71-27.58,80.07,83.06c3.31,3.44,4.89,6.72,4.73,9.85-.16,3.13-2.04,6.42-5.62,9.87l-8.7,8.39-27.55-28.58c-2.53,7.7-6.91,15.92-13.12,24.67-6.21,8.75-14.01,17.65-23.4,26.7l-22.03,21.23-52.72-54.69c-1.38-1.43-2.9-2.29-4.54-2.56-1.65-.28-3.29,.17-4.93,1.33l16.57-28.41,3.31,3.44,32.77-31.59,10.05,10.42-32.77,31.59,39.67,41.16,7.84-7.56Z"/><path class="g" d="M400.37,387.89l-17.73,17.09c3.52,3.94,6.62,8.02,9.33,12.26,2.7,4.24,5,8.63,6.88,13.16,3.85-2.6,7.84-4.59,11.98-5.96,4.14-1.37,8.3-1.96,12.49-1.78,4.18,.18,8.33,1.19,12.45,3.03,4.12,1.84,7.97,4.62,11.56,8.34,2.35,2.44,3.6,5.31,3.75,8.62,.15,3.31-1.07,6.49-3.66,9.54-2.38,2.98-5.3,5.18-8.78,6.59-3.47,1.42-6.92,1.35-10.34-.19-.36-3.38-1.36-6.46-3-9.24-1.64-2.77-3.67-5.1-6.1-6.97-2.43-1.87-5.17-3.21-8.21-4-3.05-.8-6.12-.87-9.23-.22,3.39,10.97,4.32,22.41,2.8,34.3-1.52,11.9-5.98,23.98-13.38,36.22l-2.07-2.15c2.33-8.05,3.23-16.04,2.71-23.96-.52-7.92-2.07-15.48-4.65-22.67-2.58-7.19-5.92-13.92-10.03-20.19-4.11-6.27-8.58-11.77-13.42-16.5l-13.22,12.74c-1.79,1.73-2,3.66-.63,5.79l-19.41-6.58,59.85-57.7,10.05,10.42Zm79.26,64.15l-78.62-81.56c-.97-1-2.1-1.74-3.39-2.23-1.29-.48-2.68-.42-4.17,.19l15.71-27.58,34.08,35.35,14.51-13.98,10.57,10.96-14.51,13.98,35.43,36.75c3.31,3.44,4.89,6.72,4.73,9.85-.16,3.13-2.04,6.42-5.62,9.87l-8.7,8.39Z"/><path class="g" d="M459.02,349.8c-3.59-3.72-6.1-7.9-7.53-12.54-1.43-4.63-1.85-9.34-1.27-14.11,.58-4.77,2.09-9.51,4.54-14.22,2.44-4.7,5.71-9.03,9.79-12.96,4.08-3.94,8.5-7.02,13.26-9.26,4.76-2.23,9.53-3.55,14.32-3.96,4.79-.4,9.46,.21,14.01,1.84,4.54,1.63,8.61,4.31,12.2,8.03,3.8,3.94,6.43,8.21,7.89,12.81,1.46,4.6,1.91,9.29,1.33,14.06-.58,4.78-2.09,9.48-4.53,14.11-2.44,4.64-5.7,8.92-9.79,12.86-4.08,3.94-8.5,7.06-13.26,9.36-4.76,2.31-9.53,3.66-14.32,4.07-4.79,.4-9.48-.19-14.06-1.79-4.58-1.6-8.77-4.36-12.57-8.31Zm55.99,26.25c-1.38-1.43-2.9-2.29-4.54-2.56-1.65-.28-3.29,.17-4.93,1.33l19.17-26.78,19.47,20.2,46.96-45.27c1.43-1.38,2.29-2.9,2.56-4.54,.28-1.65-.17-3.29-1.33-4.93l19.05,9-76.72,73.96-19.68-20.42Zm-38.05-43.55c1.93,2.01,4.1,3.72,6.5,5.13s4.85,2.38,7.34,2.88c2.49,.5,4.88,.51,7.18,.03,2.3-.48,4.37-1.62,6.24-3.42,1.72-1.66,2.86-3.62,3.43-5.9,.57-2.28,.67-4.65,.29-7.12-.38-2.47-1.23-4.93-2.56-7.38-1.33-2.45-2.99-4.72-5-6.79-2-2.08-4.19-3.81-6.55-5.19-2.37-1.38-4.78-2.3-7.23-2.77-2.45-.47-4.81-.44-7.07,.08-2.26,.52-4.25,1.61-5.97,3.27-1.86,1.8-3.1,3.81-3.7,6.05-.6,2.24-.72,4.6-.34,7.07,.38,2.47,1.21,4.91,2.5,7.33,1.29,2.42,2.94,4.66,4.94,6.74Zm87.51-11.8l-53.86-55.88c-.97-1-2.1-1.74-3.39-2.23-1.29-.48-2.68-.42-4.17,.19l15.71-27.58,55.31,57.38c3.31,3.44,4.89,6.72,4.73,9.85-.16,3.13-2.04,6.42-5.62,9.87l-8.7,8.39Z"/></g><path class="e" d="M491.48,197.57c.18,2.63-4.27,10.35-27.18,32.43-35.78,34.49,2.73-2.63-21.2,20.44l-2.94,2.84-222.69,214.66c-22.91,22.08-30.79,26.24-33.41,25.97,.94,6.37-7.19,18.3-7.19,18.3L442.73,255.95l2.94-2.84,64.36-62.04s-12.23,7.69-18.56,6.51Z"/><path class="e" d="M745.14,460.71c-2.62-.27-10.5,3.89-33.41,25.97-35.78,34.49,2.73-2.63-21.2,20.44l-2.94,2.84-222.69,214.66c-22.91,22.08-27.35,29.8-27.18,32.43-6.33-1.17-18.56,6.51-18.56,6.51l265.85-256.27,2.94-2.84,64.36-62.04s-8.13,11.94-7.19,18.3Z"/><g><path class="e" d="M435.06,140.07s-8.32,11.81-14.61,13.16c1.18,2.36,.05,11.2-12.57,40.4-2.81,6.49-8.02,18.56-14.89,34.47,1.13,.49,2.25,1.01,3.37,1.54l38.7-89.57Z"/><path class="e" d="M345.99,217.29l1.17-97.6s-3.12,14.1-8.4,17.78c1.99,1.72,4.37,10.31,3.98,42.12-.08,7.07-.24,20.23-.45,37.56,1.23,.02,2.47,.08,3.7,.14Z"/><path class="e" d="M258.2,134.79s2.56,14.21-.9,19.64c2.5,.82,8,7.83,19.92,37.33,2.65,6.56,7.57,18.74,14.06,34.81,1.15-.46,2.3-.9,3.46-1.33l-36.54-90.46Z"/><path class="e" d="M250.56,252.43l-68.63-69.4s7.84,12.13,6.75,18.47c2.63-.21,10.41,4.14,32.78,26.76,4.98,5.03,14.22,14.38,26.42,26.72,.31-.3,.59-.62,.9-.92,.58-.56,1.19-1.08,1.78-1.63Z"/><path class="e" d="M130.18,256.94s11.91,8.17,13.35,14.44c2.34-1.21,11.19-.19,40.56,12.05,6.53,2.72,18.65,7.78,34.64,14.45,.48-1.14,.99-2.26,1.5-3.38l-90.05-37.55Z"/><path class="e" d="M208.52,345.02l-97.6,.08s14.14,2.94,17.88,8.18c1.7-2.02,10.25-4.5,42.07-4.52,7.08,0,20.24-.02,37.59-.03,0-1.23,.02-2.47,.05-3.7Z"/><path class="e" d="M127.16,433.86s14.18-2.74,19.66,.65c.79-2.51,7.73-8.1,37.07-20.4,6.53-2.73,18.66-7.82,34.65-14.52-.47-1.14-.96-2.27-1.4-3.42l-89.97,37.69Z"/></g><g><path class="e" d="M610.24,713.86c-2.6,2.5-6.74,2.43-9.25-.17-2.5-2.6-2.43-6.74,.17-9.25,2.6-2.5,6.74-2.43,9.25,.17s2.43,6.74-.17,9.25Zm-7.45-7.73c-1.67,1.61-1.71,4.27-.11,5.93,1.61,1.67,4.27,1.71,5.93,.11,1.67-1.61,1.71-4.27,.11-5.93-1.61-1.67-4.27-1.71-5.93-.11Z"/><path class="e" d="M694.35,632.77c-2.6,2.5-6.74,2.43-9.25-.17-2.5-2.6-2.43-6.74,.17-9.25s6.74-2.43,9.25,.17c2.5,2.6,2.43,6.74-.17,9.25Zm-7.45-7.73c-1.67,1.61-1.71,4.27-.11,5.93,1.61,1.67,4.27,1.71,5.93,.11,1.67-1.61,1.71-4.27,.11-5.93s-4.27-1.71-5.93-.11Z"/></g></g></g><g id="c"/></svg>