<?xml version="1.0" encoding="UTF-8"?><svg xmlns="http://www.w3.org/2000/svg" viewBox="0 0 460.05 190.14"><defs><style>.d{fill:#3fa0ec;}.e{fill:#7ac043;}</style></defs><g id="a"/><g id="b"><g><path class="d" d="M420.92,89.77L70.63,2.58C44.68-3.88,18.41,11.92,11.95,37.87L.26,84.86l397.27,98.88c25.95,6.46,52.22-9.34,58.68-35.29h0c6.46-25.95-9.34-52.22-35.29-58.68Z"/><g><path class="e" d="M403.36,112.82c-.56,1.91-1.09,4.3-1.59,7.18-.5,2.88-.86,5.75-1.1,8.61-.07,.46-.12,.93-.15,1.4-.03,.47-.06,.92-.08,1.35l-.45,7.07c-.02,.08-.03,.15-.01,.19,.01,.05,0,.11-.02,.19-.21,3.13-.28,6.47-.21,10.04,.07,3.57,.29,6.55,.65,8.95l-20.18-5.02c.36-1.26,.69-2.8,.99-4.62,.3-1.82,.58-3.94,.83-6.36l.47-4.26c.02-.25,.05-.51,.09-.76,.04-.25,.07-.48,.08-.7,.1-1.11,.22-2.19,.35-3.24,.13-1.06,.3-2.17,.5-3.34l-.74-.18-11.25,21.31-12.49-3.11,.05-24.1-.8-.2c-.37,1.13-.74,2.19-1.12,3.18-.38,.99-.78,2-1.21,3.03-.09,.2-.18,.41-.26,.65-.08,.24-.17,.48-.28,.71l-1.58,3.99c-.02,.08-.04,.15-.05,.22-.02,.06-.05,.11-.1,.14-.69,1.88-1.36,3.75-2.02,5.61-.66,1.86-1.12,3.39-1.37,4.59l-20.18-5.02c1.44-1.95,3.03-4.48,4.77-7.6s3.24-6.11,4.52-8.97c.02-.08,.05-.14,.08-.18,.03-.04,.06-.1,.08-.18l2.92-6.46c.2-.43,.39-.88,.6-1.35,.21-.47,.41-.96,.63-1.48,1.09-2.65,2.09-5.33,2.98-8.04,.9-2.72,1.53-5.01,1.91-6.88l22.64,5.64-.76,21.7,.8,.2,9.5-19.52,22.58,5.62Z"/><path class="e" d="M346.39,98.64c-1.58,1.96-3.34,4.5-5.3,7.63-1.95,3.13-3.68,6.14-5.19,9.03l-3.28,6.37c-1.5,2.89-2.93,5.98-4.27,9.26-1.34,3.28-2.31,6.03-2.9,8.23l-30.46-7.58,.08-.31c.52-2.27,.94-5.13,1.26-8.61,.32-3.47,.5-6.77,.54-9.9l.08-7.17c.03-3.26-.09-6.73-.35-10.41-.26-3.68-.63-6.75-1.1-9.23l20.18,5.02c-.33,1.31-.62,2.87-.87,4.68-.26,1.81-.47,3.78-.66,5.91l-.03,.65,8.18,2.04,.29-.65c.29-.63,.86-2.07,1.73-4.34,.91-2.43,1.53-4.32,1.87-5.68l20.18,5.02Zm-32.73,9.69l.27,4.44c.07,1.11,.07,2.25,0,3.43-.07,1.18-.19,2.36-.36,3.54-.05,.21-.09,.4-.12,.59-.02,.19-.04,.39-.05,.61l.86,.21c.13-.36,.26-.69,.38-.98,.12-.3,.24-.61,.36-.92,.37-.95,.75-1.88,1.15-2.78,.4-.9,.87-1.83,1.41-2.79l2.32-3.8-6.21-1.55Z"/><path class="e" d="M256.11,75.19c2.67,.66,4.68,1.76,6.04,3.3,1.36,1.54,2.25,3.21,2.67,5.01,.42,1.8,.73,4.06,.93,6.76,.18,1.92,.37,3.46,.58,4.62,.21,1.16,.62,2.18,1.23,3.05s1.49,1.45,2.64,1.74c.21,.05,.41,.08,.6,.08,.19,0,.39-.01,.57-.05l.11-.43,.23-.92c.72-3.05,1.33-6.2,1.84-9.47,.51-3.27,.77-5.99,.79-8.17l20.18,5.02c-1.03,2.05-2.13,4.74-3.28,8.07-1.16,3.33-2.12,6.55-2.9,9.67l-1.68,6.77c-.78,3.12-1.43,6.42-1.97,9.9-.54,3.48-.83,6.37-.88,8.67l-27.81-6.92c-3.36-.84-6.28-1.99-8.75-3.45s-4.27-3.22-5.42-5.27c-1.15-2.05-1.41-4.3-.8-6.77,.63-2.54,1.91-4.45,3.84-5.71,1.93-1.26,4.29-1.96,7.09-2.09,2.8-.13,5.88,.22,9.24,1.06l.18,.05,.09-.37-.06-.02c-.37-.09-.74-.23-1.11-.41-.37-.18-.73-.37-1.1-.57-.36-.2-.74-.41-1.12-.64-.49-.3-1.03-.6-1.6-.92-.58-.32-1.16-.6-1.75-.86-.59-.26-1.23-.47-1.93-.64-2.46-.61-4.7-.43-6.73,.54-2.03,.98-3.78,2.48-5.24,4.51l5.54-22.27c.91-1.21,2.32-2.1,4.23-2.67,1.91-.57,3.74-.64,5.5-.2Zm8.19,26.41c-.74-.18-1.41-.25-2.01-.21-.6,.05-1.1,.23-1.51,.54-.41,.31-.68,.76-.82,1.33-.14,.57-.11,1.09,.1,1.56,.21,.47,.57,.86,1.08,1.18,.51,.32,1.13,.58,1.87,.76l6.21,1.55,1.29-5.17-6.21-1.55Z"/><path class="e" d="M243.64,73.07c-1.03,2.05-2.13,4.74-3.28,8.07-1.15,3.33-2.12,6.55-2.9,9.67l-1.68,6.77c-.78,3.12-1.43,6.42-1.97,9.9-.54,3.48-.83,6.37-.88,8.67l-18.24-4.67-6.9-21.64-.92-.23-.23,.92c-.7,2.83-1.35,6.13-1.94,9.91-.59,3.77-.9,6.59-.93,8.46l-20.18-5.02c1.03-2.05,2.13-4.74,3.28-8.07,1.16-3.33,2.12-6.55,2.9-9.67l6.2-24.92,15.81,3.94,7.34,23.26,.99,.24,.2-.8c.78-3.12,1.48-6.7,2.12-10.74,.64-4.04,.99-7.06,1.04-9.05l20.18,5.02Z"/><path class="e" d="M188.88,59.44c-1.03,2.05-2.13,4.74-3.28,8.07-1.15,3.33-2.12,6.55-2.9,9.67l-1.68,6.77c-.78,3.12-1.43,6.42-1.97,9.9-.54,3.48-.83,6.37-.88,8.67l-20.18-5.02c1.03-2.05,2.13-4.74,3.28-8.07,1.16-3.33,2.12-6.55,2.9-9.67l1.68-6.77c.78-3.12,1.43-6.42,1.97-9.9,.54-3.48,.83-6.37,.88-8.67l20.18,5.02Z"/><path class="e" d="M163.28,53.07c-1.03,2.05-2.13,4.74-3.28,8.07-1.15,3.33-2.12,6.55-2.9,9.67l-1.68,6.77c-.78,3.12-1.43,6.42-1.97,9.9-.54,3.48-.83,6.37-.88,8.67l-18.24-4.67-6.9-21.64-.92-.23-.23,.92c-.7,2.83-1.35,6.13-1.94,9.91s-.9,6.59-.93,8.46l-20.18-5.02c1.03-2.05,2.13-4.74,3.28-8.07,1.16-3.33,2.12-6.55,2.9-9.67l6.2-24.92,15.81,3.94,7.34,23.26,.98,.25,.2-.8c.78-3.12,1.48-6.7,2.12-10.74,.64-4.04,.98-7.06,1.04-9.05l20.18,5.02Z"/><path class="e" d="M86.85,33.06c4.59,1.14,8.49,3.08,11.69,5.82,3.2,2.73,5.42,6.05,6.67,9.96,1.25,3.9,1.31,8.13,.17,12.69-1.12,4.51-3.2,8.2-6.22,11.06-3.02,2.86-6.64,4.74-10.87,5.62-4.23,.89-8.64,.76-13.23-.39-3.57-.89-6.65-1.93-9.25-3.12-2.6-1.19-4.78-2.38-6.53-3.55l4.15-16.67c.9,1.27,2.43,2.43,4.59,3.49,2.15,1.06,4.4,1.88,6.74,2.46,2.67,.66,4.97,.99,6.91,.97s3.52-.39,4.72-1.11c1.2-.72,1.98-1.79,2.32-3.18,.29-1.15,.2-2.21-.25-3.2-.45-.98-1.25-1.86-2.39-2.62-1.14-.76-2.57-1.36-4.29-1.79-.78-.19-1.54-.34-2.28-.44-.74-.1-1.41-.13-2-.11-.6,.03-1.09,.12-1.48,.29l-.52,2.35,1.72,.43c.62,.15,1.47,.31,2.56,.47,1.09,.16,1.94,.25,2.55,.27l-1.19,4.8-23.44-5.83,4.36-17.54c2.14-1.08,4.59-1.83,7.36-2.25,2.76-.42,5.63-.53,8.6-.31,2.97,.22,5.92,.69,8.83,1.41Z"/></g></g></g><g id="c"/></svg>