<?xml version="1.0" encoding="UTF-8"?><svg xmlns="http://www.w3.org/2000/svg" viewBox="0 0 1573.9 609.1"><defs><style>.d,.e{fill:#fff;}.f{fill:#ff007a;}.g{fill:#c6e900;}.e{opacity:0;}</style></defs><g id="a"/><g id="b"><g><path class="g" d="M61.78,602.22l1153.43-166.17c-2.91-20.2,11.11-38.94,31.31-41.85,20.2-2.91,38.94,11.11,41.85,31.31l264.32-38.08L1498.08,8.43l-264.32,38.08c2.91,20.2-11.11,38.94-31.31,41.85-20.2,2.91-38.94-11.11-41.85-31.31L7.18,223.23l54.6,378.99Z"/><g><path d="M104.89,371.39l56.2-8.1,14.99,104.04,87.1-12.55,5.51,38.27-143.3,20.65-20.5-142.3Z"/><path d="M303.79,342.73l68.96-9.93,81.09,133.57-59.79,8.61-8.33-15.48-58.6,8.44-3.62,17.2-59.79,8.61,40.09-151.03Zm40.88,38.05l-.4,.06-9.79,50.64,33.88-4.88-23.69-45.82Z"/><path d="M485.34,420.94l-77.91-93.14,64.18-9.25,35.14,51.9,19.07-59.71,64.18-9.25-48.45,111.34,5.77,40.06-56.2,8.1-5.77-40.06Z"/><path class="e" d="M601.7,329.82c4.92-11.49,12.01-20.41,21.27-26.76,9.26-6.35,18.84-10.88,28.76-13.6,9.91-2.72,20.78-4.93,32.61-6.63,11.82-1.7,22.88-2.65,33.16-2.84,10.28-.19,20.76,1.45,31.43,4.93,10.67,3.48,19.99,10.04,27.96,19.67,7.96,9.64,13.19,23.09,15.68,40.36,2.49,17.27,1.27,31.66-3.65,43.15-4.93,11.49-12.01,20.42-21.27,26.77-9.26,6.35-18.85,10.88-28.76,13.6-9.92,2.72-20.79,4.93-32.61,6.63-11.83,1.7-22.88,2.65-33.16,2.84-10.28,.19-20.76-1.45-31.43-4.93-10.67-3.48-19.99-10.04-27.96-19.67-7.97-9.63-13.19-23.09-15.68-40.36-2.49-17.27-1.27-31.65,3.65-43.15Zm70.31,63.72c7.44,5.51,17.14,7.4,29.1,5.67,11.96-1.72,20.73-6.27,26.31-13.66,5.58-7.38,7.37-18.05,5.36-32-2.01-13.95-6.74-23.68-14.17-29.19-7.44-5.5-17.14-7.4-29.1-5.67-11.96,1.72-20.73,6.28-26.31,13.66-5.58,7.38-7.37,18.05-5.36,32,2.01,13.95,6.73,23.68,14.17,29.19Z"/><path d="M799.26,271.35l56.2-8.1,12.4,86.1c1.26,8.77,4.55,14.64,9.86,17.6,5.31,2.97,12.81,3.75,22.51,2.35,9.7-1.4,16.68-4.26,20.93-8.61,4.26-4.34,5.75-10.9,4.49-19.67l-12.4-86.1,56.2-8.1,12.72,88.29c1.63,11.29,1.26,20.98-1.11,29.05-2.36,8.07-6.68,14.83-12.95,20.28-6.27,5.45-14.54,9.93-24.82,13.44-10.28,3.52-22.86,6.35-37.74,8.49-14.88,2.14-27.75,2.98-38.6,2.51-10.85-.47-20.05-2.43-27.6-5.89-7.55-3.45-13.6-8.72-18.14-15.8-4.55-7.08-7.63-16.26-9.26-27.55l-12.72-88.29Z"/><path d="M1036.61,273.77l-52.02,7.49-5.17-35.87,160.24-23.09,5.17,35.87-52.02,7.49,15.33,106.43-56.2,8.1-15.33-106.43Z"/></g><g><path d="M140.48,307.11l-13.77,1.98-.5-3.47-.11,.02c-.7,1.3-2.13,2.61-4.28,3.93-2.15,1.32-4.79,2.2-7.9,2.65-4.17,.6-7.66,.09-10.45-1.54-2.79-1.63-4.48-4.51-5.08-8.65l-2.91-20.2,14.23-2.05,2.38,16.5c.27,1.9,.95,3.24,2.03,4.03,1.08,.79,2.5,1.06,4.24,.81,2.2-.32,3.76-1.21,4.67-2.68,.91-1.47,1.2-3.38,.86-5.73l-2.12-14.68,14.23-2.05,4.48,31.13Z"/><path d="M142.82,275l13.77-1.98,.53,3.7,.11-.02c1.11-1.71,2.64-3.09,4.6-4.15,1.96-1.06,4.47-1.81,7.55-2.25,2.35-.34,4.64-.33,6.86,.03,2.22,.36,4.25,1.1,6.1,2.23,1.85,1.13,3.4,2.68,4.65,4.65,1.25,1.97,2.08,4.36,2.48,7.16,.4,2.81,.28,5.33-.36,7.58-.65,2.24-1.69,4.17-3.15,5.77-1.45,1.6-3.2,2.89-5.22,3.86-2.03,.97-4.22,1.62-6.57,1.96-5.8,.84-10.13-.03-12.98-2.6l-.11,.02,2.06,14.28-14.23,2.05-6.09-42.28Zm19.16,18.68c1.45,1.03,3.52,1.35,6.21,.96,2.47-.36,4.28-1.28,5.44-2.79,1.16-1.5,1.59-3.3,1.29-5.38-.31-2.16-1.19-3.79-2.65-4.88-1.45-1.09-3.51-1.44-6.17-1.06-2.66,.38-4.53,1.27-5.63,2.67-1.1,1.4-1.48,3.23-1.15,5.51,.33,2.28,1.21,3.93,2.66,4.96Z"/><path d="M225.53,289.46c-1.2,1.37-2.8,2.48-4.81,3.31-2.01,.83-4.36,1.44-7.06,1.83-6.11,.88-10.96,.27-14.55-1.82-3.59-2.1-5.74-5.59-6.45-10.49-.34-2.39-.18-4.59,.5-6.61,.68-2.01,1.78-3.79,3.3-5.33,1.52-1.54,3.38-2.79,5.59-3.77,2.2-.98,4.63-1.66,7.29-2.04,5.54-.8,10.02,.05,13.44,2.54l-.51-3.53,13.77-1.98,4.17,28.91c.7,4.86-.59,8.63-3.86,11.33-3.27,2.7-8.55,4.57-15.83,5.62-3.91,.56-7.24,.84-9.99,.83-2.75,0-5.06-.33-6.93-.95-1.87-.62-3.38-1.55-4.52-2.78-1.15-1.23-2.03-2.83-2.66-4.79l15.71-2.26c.38,1.03,1.08,1.7,2.09,2.02,1.14,.38,2.75,.42,4.84,.12,2.85-.41,4.78-1.21,5.81-2.41,1.03-1.19,1.38-2.89,1.07-5.09l-.39-2.67Zm-4.23-15.48c-1.47-.95-3.63-1.22-6.48-.81-2.77,.4-4.73,1.26-5.87,2.59-1.14,1.33-1.59,2.88-1.33,4.66,.26,1.82,1.13,3.22,2.61,4.19,1.48,.97,3.6,1.25,6.37,.85,2.85-.41,4.84-1.29,5.98-2.63,1.14-1.35,1.58-2.93,1.32-4.75-.26-1.78-1.12-3.15-2.59-4.1Z"/><path d="M242.87,260.58l13.77-1.98,.86,5.98,.11-.02c1.44-2.61,3.22-4.63,5.32-6.05,2.1-1.43,4.42-2.32,6.96-2.69,1.59-.23,3.17-.34,4.72-.33l1.84,12.75c-1.61-.15-2.95-.25-4.02-.29-1.07-.04-2.16,.02-3.26,.18-1.37,.2-2.65,.52-3.84,.96-1.2,.44-2.24,1.05-3.14,1.82-.9,.77-1.56,1.75-1.99,2.93-.43,1.19-.53,2.57-.3,4.17l1.68,11.67-14.23,2.05-4.48-31.13Z"/><path d="M280.31,264.83c.11-2.22,.54-4.09,1.31-5.59,.77-1.51,1.97-2.78,3.6-3.83,1.6-1,3.67-1.87,6.22-2.58,2.55-.72,5.76-1.35,9.63-1.91,7.32-1.05,12.66-.87,16.03,.57,3.36,1.43,5.37,4.44,6.04,9.04l2.16,15.02c.16,1.1,.41,2.01,.74,2.74s.76,1.36,1.26,1.91l-14.57,2.1c-.4-.87-.72-1.87-.95-3-1.38,1.71-3.28,3.1-5.7,4.16-2.42,1.07-5.51,1.87-9.27,2.41-5.08,.73-9.07,.48-11.96-.75-2.89-1.23-4.61-3.74-5.15-7.54-.43-2.96,.4-5.44,2.47-7.44,2.07-2,5.64-3.48,10.69-4.44l11.93-2.3c1.39-.28,2.35-.65,2.86-1.11,.51-.46,.71-1.13,.58-2-.14-.99-.83-1.65-2.06-2-1.23-.34-2.89-.37-4.98-.07-1.94,.28-3.5,.76-4.7,1.43-1.2,.68-1.85,1.72-1.96,3.13l-14.23,2.05Zm29.42,3.43c-.99,.38-2.27,.76-3.84,1.16-1.57,.4-3.74,.92-6.52,1.55-.41,.1-.73,.18-.95,.25-2.55,.6-3.69,1.81-3.43,3.63,.34,2.35,2.27,3.27,5.8,2.77,1.33-.19,2.56-.46,3.69-.82,1.13-.36,2.14-.85,3.04-1.48,.9-.63,1.57-1.42,2.01-2.35,.45-.94,.58-2.05,.39-3.34l-.2-1.37Z"/><path d="M361.15,271.95l-.11,.02c-1.11,1.71-2.64,3.09-4.6,4.15-1.96,1.06-4.47,1.81-7.55,2.25-2.35,.34-4.64,.33-6.86-.03-2.22-.36-4.25-1.1-6.1-2.23-1.85-1.13-3.4-2.68-4.65-4.65-1.25-1.97-2.08-4.36-2.48-7.17-.4-2.81-.28-5.33,.36-7.57,.64-2.24,1.69-4.17,3.15-5.77,1.45-1.6,3.19-2.89,5.22-3.86,2.03-.97,4.22-1.62,6.57-1.96,5.8-.84,10.13,.03,12.98,2.6l.11-.02-2.08-14.45,14.23-2.05,6.06,42.06-13.77,1.98-.48-3.3Zm-4.85-16.96c-1.45-1.03-3.52-1.35-6.21-.96-2.47,.36-4.28,1.28-5.44,2.79-1.16,1.5-1.59,3.3-1.29,5.38,.31,2.16,1.19,3.79,2.65,4.88,1.45,1.09,3.51,1.44,6.17,1.06,2.66-.38,4.53-1.27,5.63-2.67,1.1-1.4,1.48-3.23,1.15-5.51-.33-2.28-1.22-3.93-2.66-4.96Z"/><path d="M424.88,256.61c-.62,3.5-2.62,6.42-6,8.77-3.52,2.44-8.41,4.12-14.67,5.02-7.59,1.09-13.6,.53-18.05-1.7-4.44-2.22-7.07-6.15-7.88-11.76-.77-5.35,.58-9.76,4.05-13.25,3.47-3.48,8.71-5.73,15.73-6.74,3.57-.51,6.82-.64,9.76-.39,2.94,.25,5.58,1,7.9,2.23,2.33,1.23,4.26,3.08,5.79,5.53,1.53,2.45,2.57,5.57,3.12,9.37l-31.3,4.51c.09,.61,.34,1.21,.75,1.81,.41,.6,1.01,1.13,1.8,1.6,.78,.47,1.75,.8,2.9,1,1.15,.2,2.47,.2,3.95-.02,1.86-.27,3.34-.7,4.43-1.31,1.09-.6,1.95-1.43,2.57-2.49l15.14-2.18Zm-15.62-8.03c-.39-1.65-1.41-2.86-3.05-3.63-1.64-.77-3.69-.98-6.16-.62s-4.44,1.08-5.71,2.13c-1.26,1.05-1.94,2.57-2.04,4.56l16.96-2.44Z"/><path d="M460.18,257.68l-.11,.02c-1.11,1.71-2.64,3.09-4.6,4.15-1.96,1.06-4.47,1.81-7.55,2.25-2.35,.34-4.64,.33-6.86-.03-2.22-.36-4.25-1.1-6.1-2.23s-3.4-2.68-4.65-4.65c-1.25-1.97-2.08-4.36-2.48-7.17s-.28-5.33,.36-7.57c.64-2.24,1.69-4.17,3.15-5.77,1.45-1.6,3.19-2.89,5.22-3.86,2.03-.97,4.22-1.62,6.57-1.96,5.8-.84,10.13,.03,12.98,2.6l.11-.02-2.08-14.45,14.23-2.05,6.06,42.06-13.77,1.98-.48-3.3Zm-4.85-16.96c-1.45-1.03-3.52-1.35-6.21-.96-2.47,.36-4.28,1.28-5.44,2.79-1.16,1.5-1.59,3.3-1.29,5.38,.31,2.16,1.19,3.79,2.65,4.88,1.45,1.09,3.51,1.44,6.17,1.06,2.66-.38,4.53-1.27,5.63-2.67,1.1-1.4,1.48-3.23,1.15-5.51-.33-2.28-1.22-3.93-2.66-4.96Z"/><path d="M499.99,223.54l13.77-1.98,.53,3.7,.11-.02c1.11-1.71,2.64-3.09,4.6-4.15,1.96-1.06,4.47-1.81,7.55-2.25,2.35-.34,4.64-.33,6.86,.03,2.22,.36,4.25,1.1,6.1,2.23,1.85,1.13,3.4,2.68,4.65,4.65,1.25,1.97,2.08,4.36,2.48,7.16,.4,2.81,.28,5.33-.36,7.58-.65,2.24-1.69,4.17-3.15,5.77-1.45,1.6-3.2,2.89-5.22,3.86-2.03,.97-4.22,1.62-6.57,1.96-5.8,.84-10.13-.03-12.98-2.6l-.11,.02,2.06,14.28-14.23,2.05-6.09-42.28Zm19.16,18.68c1.45,1.03,3.52,1.35,6.21,.96,2.47-.36,4.28-1.28,5.44-2.79,1.16-1.5,1.59-3.3,1.29-5.38-.31-2.16-1.19-3.79-2.65-4.88-1.45-1.09-3.51-1.44-6.17-1.06-2.66,.38-4.53,1.27-5.63,2.67-1.1,1.4-1.48,3.23-1.15,5.51,.33,2.28,1.21,3.93,2.66,4.96Z"/><path d="M549.5,216.41l13.77-1.98,.86,5.98,.11-.02c1.44-2.61,3.22-4.63,5.32-6.05,2.1-1.43,4.42-2.32,6.96-2.69,1.59-.23,3.17-.34,4.72-.33l1.84,12.75c-1.61-.15-2.95-.25-4.02-.29-1.07-.04-2.16,.02-3.26,.18-1.37,.2-2.65,.52-3.84,.96-1.2,.44-2.24,1.05-3.14,1.82-.9,.77-1.56,1.75-1.99,2.93-.43,1.19-.53,2.57-.3,4.17l1.68,11.67-14.23,2.05-4.48-31.13Z"/><path d="M632.49,226.7c-.62,3.5-2.62,6.42-6,8.77-3.52,2.44-8.41,4.12-14.67,5.02-7.59,1.09-13.6,.53-18.05-1.7-4.44-2.22-7.07-6.15-7.88-11.76-.77-5.35,.58-9.76,4.05-13.25,3.47-3.48,8.71-5.73,15.73-6.74,3.57-.51,6.82-.64,9.76-.39,2.94,.25,5.58,1,7.9,2.23,2.33,1.23,4.26,3.08,5.79,5.53,1.53,2.45,2.57,5.57,3.12,9.37l-31.3,4.51c.09,.61,.34,1.21,.75,1.81,.41,.6,1.01,1.13,1.8,1.6,.78,.47,1.75,.8,2.9,1,1.15,.2,2.47,.2,3.95-.02,1.86-.27,3.34-.7,4.43-1.31,1.09-.6,1.95-1.43,2.57-2.49l15.14-2.18Zm-15.62-8.03c-.39-1.65-1.41-2.86-3.05-3.63-1.64-.77-3.69-.98-6.16-.62-2.54,.37-4.44,1.08-5.71,2.13-1.26,1.05-1.94,2.57-2.04,4.56l16.96-2.44Z"/><path d="M631.97,204.53l6.6-.95-1.44-10.02,14.23-2.05,1.44,10.02,7.68-1.11,1.28,8.88-7.68,1.11,1.58,10.98c.2,1.37,.61,2.18,1.25,2.43,.64,.26,1.79,.27,3.46,.02,.76-.11,1.97-.32,3.63-.64l.17-.02,1.2,8.31c-3.27,.94-6.69,1.66-10.26,2.18-2.28,.33-4.17,.47-5.69,.41-1.52-.05-2.8-.38-3.83-.99-1.04-.61-1.87-1.53-2.49-2.78-.63-1.25-1.09-2.93-1.4-5.06l-1.84-12.81-6.6,.95-1.28-8.88Z"/><path d="M662.53,200.12l6.6-.95-1.44-10.02,14.23-2.05,1.44,10.02,7.68-1.11,1.28,8.88-7.68,1.11,1.58,10.98c.2,1.37,.61,2.18,1.25,2.43,.64,.26,1.79,.27,3.46,.02,.76-.11,1.97-.32,3.63-.64l.17-.02,1.2,8.31c-3.27,.94-6.69,1.66-10.26,2.18-2.28,.33-4.17,.47-5.69,.41-1.52-.05-2.8-.38-3.83-.99-1.04-.61-1.87-1.53-2.49-2.78-.63-1.25-1.09-2.93-1.4-5.06l-1.84-12.81-6.6,.95-1.28-8.88Z"/><path d="M700.85,227.83c.62-.01,1.18-.05,1.7-.1,.52-.06,1.13-.13,1.85-.24,1.63-.23,2.77-.54,3.41-.9,.64-.36,1.16-1.12,1.53-2.25l.55-1.82-18.58-26.54,14.91-2.15,9.19,15,4.58-16.98,14.91-2.15-12.26,38.71c-.43,1.3-.88,2.36-1.34,3.19-.46,.82-1.06,1.53-1.79,2.12-.73,.59-1.7,1.08-2.93,1.47-1.22,.39-2.78,.72-4.68,.99-1.48,.21-3.08,.39-4.8,.55-1.72,.15-3.37,.26-4.95,.34l-1.33-9.22Z"/><path d="M755.97,186.66l16.05-2.31,9.11,17.68,.11-.02,3.75-19.54,16.05-2.31-9.91,33.2-16.28,2.34-18.88-29.06Z"/><path d="M850.68,195.27c-.62,3.5-2.62,6.42-6,8.77-3.52,2.44-8.41,4.12-14.67,5.02-7.59,1.09-13.6,.53-18.05-1.7-4.44-2.22-7.07-6.15-7.88-11.76-.77-5.35,.58-9.76,4.05-13.25,3.47-3.48,8.71-5.73,15.73-6.74,3.57-.51,6.82-.64,9.76-.39,2.94,.25,5.58,1,7.9,2.23,2.33,1.23,4.26,3.08,5.79,5.53,1.53,2.45,2.57,5.57,3.12,9.37l-31.3,4.51c.09,.61,.34,1.21,.75,1.81,.41,.6,1.01,1.13,1.8,1.6,.78,.47,1.75,.8,2.9,1,1.15,.2,2.47,.2,3.95-.02,1.86-.27,3.34-.7,4.43-1.31,1.09-.6,1.95-1.43,2.58-2.49l15.14-2.18Zm-15.62-8.03c-.39-1.65-1.41-2.86-3.05-3.63-1.64-.77-3.69-.98-6.16-.62-2.54,.37-4.44,1.08-5.71,2.13-1.26,1.05-1.94,2.57-2.04,4.56l16.96-2.44Z"/><path d="M853.06,172.67l13.77-1.98,.86,5.98,.11-.02c1.44-2.61,3.22-4.63,5.32-6.05,2.1-1.43,4.42-2.32,6.96-2.69,1.59-.23,3.17-.34,4.72-.33l1.84,12.75c-1.61-.15-2.95-.25-4.02-.29-1.07-.04-2.16,.02-3.26,.18-1.37,.2-2.65,.52-3.84,.96-1.19,.44-2.24,1.05-3.14,1.82-.9,.77-1.56,1.75-1.99,2.93-.43,1.19-.53,2.57-.3,4.17l1.68,11.67-14.23,2.05-4.48-31.13Z"/></g><g><path d="M1415.27,154.77l10.04-1.45c-2.53-6.3-4.72-14.69-6.65-23.59l-8.52,1.23-1.76-12.19-4.46,.64,7.11,49.38-12.11,1.74-9.18-63.72,8.6-1.24-.64-4.46,11.31-1.63,2.34,16.25,4.38-.63c-1.25-6.97-2.22-13.75-3.08-19.72l11.31-1.63c2.73,18.96,6.23,42.68,12.66,57.93l7.33-1.06-1.22-8.44,12.27-1.77,1.22,8.44,7.73-1.11,1.89,13.14-48.67,7.01-1.89-13.14Zm43.56-40.18c2.31,16.01-2.21,24.14-11.21,25.44-9,1.3-15.63-5.23-17.94-21.24-2.29-15.93,2.25-23.9,11.25-25.2,9-1.3,15.61,5.07,17.9,21Zm-18.48,2.66c.75,5.18,2.21,9.11,5.23,8.68,3.11-.45,3.31-4.7,2.57-9.8s-2.12-9.04-5.22-8.6c-3.11,.45-3.31,4.7-2.58,9.72Z"/><path d="M1408.66,238.08l27.64-3.98-.52-3.58-27.64,3.98-1.74-12.11,66.9-9.64,1.74,12.11-24.29,3.5,.52,3.58,24.29-3.5,1.81,12.58-66.9,9.64-1.81-12.58Zm37.72-45.76c1.96,13.62-5.82,21.08-17.05,22.7-11.07,1.6-21.02-3.15-22.99-16.77-1.95-13.54,6.25-20.98,17.32-22.58,11.23-1.62,20.77,3.1,22.72,16.65Zm-28.12,4.05c.63,4.38,3.92,6.35,9.18,5.59,5.26-.76,7.61-3.62,6.99-7.92-.61-4.22-3.67-6.3-8.93-5.54-5.34,.77-7.85,3.65-7.24,7.87Zm28.23-25.29l13.06-1.88,1.95,13.54,7.01-1.01,2.07,14.34-7.01,1.01,1.96,13.62-13.06,1.88-5.98-41.5Z"/><path d="M1412.68,259.21l12.82-1.85,1.97,13.7,10.28-1.48,2.09,14.5-10.28,1.48,2.11,14.66,10.28-1.48,2.09,14.5-10.28,1.48,1.97,13.7-12.82,1.85-10.24-71.05Zm70.51,26.1c2.75,19.12-1.7,32.2-15.64,34.2-14.02,2.02-21.59-9.33-24.34-28.44-2.77-19.2,1.34-31.9,15.36-33.92,13.94-2.01,21.87,9.04,24.63,28.16Zm-27.24,3.92c1.74,12.11,5.4,15.48,9.38,14.91,4.22-.61,6.78-4.88,5.03-16.99-1.76-12.19-5.3-15.33-9.6-14.71-4.06,.59-6.57,4.61-4.82,16.79Z"/><path d="M1295.88,142.05l9.8-1.41-4.04-28.04,13.38-1.93,10.24,71.05-13.38,1.93-4.03-27.96-9.8,1.41-2.17-15.05Zm31.99,34.66c.56-14.72,3.64-27.19,10.42-33.21-8.2-3.86-14.68-14.96-19.35-28.76l12.39-5.44c3.8,11.16,9.39,21.17,16.85,23.26l-2.83-19.67,13.14-1.89,8.38,58.14-13.14,1.89-2.85-19.75c-6.56,4.12-9.1,15.29-9.58,27.15l-13.42-1.73Z"/><path d="M1310.82,236.16l10.99-1.58-8.84-6.61c6.49-8.58,12.31-13.89,19.03-17.46-7.5-1.85-14.6-5.38-23.17-11.3l7.81-10.72c13.62,10.48,28.1,13.35,41.32,11.44l1.35-.2-.61-4.22,11.87-1.71,2.64,18.32-13.22,1.9c-12.66,1.82-25.77,7.94-35.07,20.09l22.22-3.2-1.27-8.84,13.62-1.96,1.27,8.84,16.97-2.44,1.76,12.19-66.9,9.64-1.76-12.19Zm2.23,15.45l66.9-9.64,1.85,12.82-66.9,9.64-1.85-12.82Z"/><path d="M1317.1,272.98l12.82-1.85,1.97,13.7,10.28-1.48,2.09,14.5-10.28,1.48,2.11,14.66,10.28-1.48,2.09,14.5-10.28,1.48,1.97,13.7-12.82,1.85-10.24-71.05Zm70.51,26.1c2.75,19.12-1.7,32.2-15.64,34.2-14.02,2.02-21.59-9.33-24.34-28.44-2.77-19.2,1.34-31.9,15.36-33.92,13.94-2.01,21.87,9.04,24.63,28.16Zm-27.24,3.92c1.74,12.11,5.4,15.48,9.38,14.91,4.22-.61,6.78-4.88,5.03-16.99-1.76-12.19-5.3-15.33-9.6-14.71-4.06,.59-6.57,4.61-4.82,16.79Z"/></g><path d="M904.96,205.91c-7.83,1.13-15.12-4.32-16.25-12.15-1.13-7.83,4.32-15.12,12.15-16.24,7.83-1.13,15.12,4.32,16.24,12.15,1.13,7.83-4.32,15.12-12.15,16.24Zm-2.64-18.34c-2.28,.33-3.87,2.45-3.54,4.73,.33,2.28,2.45,3.87,4.73,3.54,2.28-.33,3.87-2.45,3.54-4.73-.33-2.28-2.45-3.87-4.73-3.54Z"/><g><line class="d" x1="1212.15" y1="144.32" x2="1240.02" y2="337.78"/><rect x="1221" y="143.32" width="10.16" height="195.45" transform="translate(-21.84 177.3) rotate(-8.2)"/></g><g><path class="f" d="M658.87,469.74c24.04-6.43,42.47-22.77,50.87-70.02,0,0,20.58,65.9,46.89,56.16,26.3-9.75-15.37-70.82-15.37-70.82,0,0,84.26,53.63,94.01,22.81,5.79-18.29-30.26-28.56-62.39-38.27,0,0,46.04,4.22,76.7-.08,19.2-2.7,29.56-12.09,24.37-23.08-11.51-24.36-115.47-10.84-115.47-10.84,0,0,32.81-21.92,41.79-50.6,4.95-15.82,3.62-40.39-13.95-50.72-19.76-11.62-39.72-3.73-50.96,3.41-22.57,14.35-27.84,46.02-27.84,46.02,0,0-16.6-79.96-50.92-52.68-30.75,24.45,8.72,100.26,8.72,100.26,0,0-46.2-49.86-62.04-28.17-17.99,24.64,45.04,56.44,45.04,56.44,0,0-36.46,12.76-47.99,44.18-16.9,46.06,24.75,75.04,58.56,65.99Z"/><path d="M754.07,461.75c-4.13,.6-8.3-.13-12.45-2.16-13.72-6.74-24.41-27.08-30.66-41.95-4.08,14.9-9.64,26.63-16.82,35.58-8.61,10.73-19.4,17.54-33.95,21.43h0c-19.66,5.26-42.06-1.26-55.74-16.23-13.42-14.69-16.67-35.26-8.9-56.42,8.48-23.1,29.03-36.62,41.34-42.91-13.54-7.95-37.15-23.99-41.28-41.17-1.53-6.35-.3-12.5,3.56-17.78,3.35-4.58,8.11-7.18,13.78-7.51,11.81-.69,26.42,8.77,37.82,18.11-2.18-5.75-4.38-12.24-6.24-19.05-8.58-31.35-5.58-53.09,8.91-64.62,8.19-6.51,16.37-8.36,24.31-5.49,15.12,5.47,24.82,27.51,30.05,43.67,4.37-10.65,12-23.68,24.84-31.84,8.99-5.72,32.47-17.5,56.26-3.5,18.82,11.07,22.41,36.86,16.22,56.62-5.53,17.67-19.23,32.67-29.86,42.22,9.97-.88,23.15-1.77,36.57-1.94,16.26-.2,29.78,.7,40.16,2.67,14.46,2.74,23.14,7.58,26.55,14.79,2.5,5.28,2.44,10.61-.15,15.43-4.08,7.56-13.96,12.82-27.82,14.81-.09,.01-.18,.03-.28,.04-12.24,1.72-26.71,2.12-39.83,1.97,13.58,5.32,24.19,11.41,28.49,19.54,2.24,4.24,2.64,8.73,1.18,13.34-1.76,5.58-5.6,9.58-11.09,11.58-1.45,.53-3.03,.91-4.69,1.15-18.54,2.67-48.88-11.75-68.24-22.43,8.25,15.08,17.47,36.25,13.21,49.61-1.73,5.41-5.5,9.34-10.92,11.34-1.43,.53-2.87,.9-4.32,1.11Zm-45.69-83.4l6.21,19.86c3.78,12.09,16.82,45.05,31.52,52.26,3.08,1.51,5.86,1.72,8.75,.65,2.51-.93,3.98-2.44,4.76-4.9,3.99-12.5-11.72-42.39-22.57-58.3l-13.91-20.41,20.84,13.26c.15,.1,15.63,9.91,33.71,18.53,30.56,14.58,43.1,13.85,47.86,12.12,2.55-.93,4.05-2.5,4.87-5.09,.63-2,.49-3.71-.48-5.53-5.45-10.33-33.33-18.74-55.73-25.5l-50.8-15.35,49.92,4.58c.45,.04,45.82,4.12,75.53-.05,.08-.01,.16-.02,.24-.03,12.12-1.75,18.45-6.09,20.33-9.58,1.04-1.93,1.01-3.92-.09-6.26-5.38-11.38-45.23-11.79-57.31-11.64-26.82,.32-52.65,3.64-52.9,3.68l-21.53,2.8,18.06-12.06c.31-.21,31.44-21.3,39.76-47.89,3.88-12.39,4.14-35.52-11.68-44.82-18.27-10.75-36.45-2.53-45.65,3.32-20.33,12.93-25.51,42.28-25.56,42.58l-4.5,26.56-5.49-26.37c-2.72-13.06-13.09-48.14-28.26-53.62-4.45-1.61-9.2-.34-14.52,3.89-22.51,17.89-.37,73.87,10.06,93.93l17.37,33.41-25.6-27.61c-.08-.08-8-8.6-18.16-16.82-12.56-10.18-23.18-15.56-29.89-15.17-2.64,.15-4.6,1.22-6.16,3.36-2.13,2.92-2.73,5.9-1.89,9.4,3.75,15.61,33.84,33.81,45.11,39.5l10.66,5.39-11.28,3.95c-.34,.12-34.36,12.41-44.9,41.13-6.51,17.73-4.07,34.09,6.87,46.06,11.19,12.24,29.51,17.58,45.6,13.27h0c18.4-4.92,38.4-16.62,47.18-66l3.64-20.48Z"/></g><polygon points="826.18 372.82 798.91 376.75 828.81 391.09 826.18 372.82"/></g></g><g id="c"/></svg>