<?xml version="1.0" encoding="UTF-8"?><svg xmlns="http://www.w3.org/2000/svg" viewBox="0 0 1920 1059.44"><defs><style>.d{fill:#fff;}</style></defs><g id="a"/><g id="b"><g><path class="d" d="M238.02,53.68c2.48,2.81,3.72,6.05,3.72,9.7s-1.01,6.58-3.02,8.79c-2.02,2.21-3.99,3.98-5.92,5.32l-7.75,5.54c-1.05,.8-2.15,1.79-3.31,2.96-1.16,1.18-2.01,2.56-2.55,4.16l22.37-.06v5.98h-30.37c0-3.11,.62-6.19,1.86-9.26,1.24-3.07,3.98-6.13,8.22-9.2l7.56-5.42c1.47-1.09,2.78-2.34,3.94-3.75,1.15-1.41,1.73-3.08,1.73-5.01,.04-2.35-.58-4.28-1.86-5.8-1.28-1.51-3.22-2.27-5.83-2.27-2.94,0-5.04,.94-6.3,2.83s-1.91,3.93-1.95,6.11h-6.3c-.04-3.65,1.14-7.05,3.56-10.17,2.41-3.13,6.1-4.69,11.06-4.69s8.67,1.41,11.15,4.22Z"/><path class="d" d="M274.22,56.45c2.88,4.41,4.32,10.06,4.32,16.95s-1.44,12.69-4.32,17.17-7,6.71-12.38,6.71-9.47-2.24-12.29-6.71c-2.81-4.47-4.22-10.2-4.22-17.17s1.41-12.54,4.22-16.95c2.81-4.41,6.91-6.61,12.29-6.61s9.5,2.21,12.38,6.61Zm-5.42,29.52c1.53-3.38,2.3-7.57,2.3-12.57s-.77-9.04-2.3-12.38-3.85-5.01-6.96-5.01-5.29,1.67-6.8,5.01c-1.51,3.34-2.27,7.47-2.27,12.38s.76,9.19,2.27,12.57c1.51,3.38,3.78,5.07,6.8,5.07s5.43-1.69,6.96-5.07Z"/><path class="d" d="M308.84,53.68c2.48,2.81,3.72,6.05,3.72,9.7s-1.01,6.58-3.02,8.79c-2.02,2.21-3.99,3.98-5.92,5.32l-7.75,5.54c-1.05,.8-2.15,1.79-3.31,2.96-1.16,1.18-2.01,2.56-2.55,4.16l22.37-.06v5.98h-30.37c0-3.11,.62-6.19,1.86-9.26,1.24-3.07,3.98-6.13,8.22-9.2l7.56-5.42c1.47-1.09,2.78-2.34,3.94-3.75,1.15-1.41,1.73-3.08,1.73-5.01,.04-2.35-.58-4.28-1.86-5.8-1.28-1.51-3.22-2.27-5.83-2.27-2.94,0-5.04,.94-6.3,2.83s-1.91,3.93-1.95,6.11h-6.3c-.04-3.65,1.14-7.05,3.56-10.17,2.41-3.13,6.1-4.69,11.06-4.69s8.67,1.41,11.15,4.22Z"/><path class="d" d="M344.24,53.68c2.48,2.81,3.72,6.05,3.72,9.7s-1.01,6.58-3.02,8.79c-2.02,2.21-3.99,3.98-5.92,5.32l-7.75,5.54c-1.05,.8-2.15,1.79-3.31,2.96-1.16,1.18-2.01,2.56-2.55,4.16l22.36-.06v5.98h-30.37c0-3.11,.62-6.19,1.86-9.26,1.24-3.07,3.98-6.13,8.22-9.2l7.56-5.42c1.47-1.09,2.78-2.34,3.94-3.75,1.15-1.41,1.73-3.08,1.73-5.01,.04-2.35-.58-4.28-1.86-5.8-1.28-1.51-3.22-2.27-5.83-2.27-2.94,0-5.04,.94-6.3,2.83-1.26,1.89-1.91,3.93-1.95,6.11h-6.3c-.04-3.65,1.14-7.05,3.56-10.17,2.42-3.13,6.1-4.69,11.06-4.69s8.67,1.41,11.15,4.22Z"/><path class="d" d="M382.1,78.03c-2.98,.32-6.13,.51-9.45,.6-3.19,.13-6.76,.19-10.71,.19h-6.36v-31.18h7.31v24.76l9.89-.13c3.11-.08,6.14-.26,9.1-.54,2.96-.27,5.41-.6,7.34-.98v6.3c-1.76,.34-4.14,.66-7.12,.98Zm-20.54,21.89v-17.39h7.43v11.03h34.21v6.36h-41.64Zm33.2-14.11v-18.27h-15.81v-5.92h15.81v-4.41h-15.81v-5.92h15.81v-5.54h7.31v40.07h-7.31Z"/><path class="d" d="M461.92,77.21c1.3,1.95,1.95,4.04,1.95,6.27,0,3.99-1.49,7.35-4.47,10.08-2.98,2.73-6.78,4.09-11.4,4.09s-8.17-1.46-11.15-4.38c-2.98-2.92-4.45-6.42-4.41-10.49h6.43c0,2.18,.79,4.18,2.36,5.99,1.58,1.81,3.81,2.71,6.71,2.71,2.69,0,4.79-.8,6.3-2.39,1.51-1.6,2.29-3.49,2.33-5.67,.04-1.76-.5-3.27-1.64-4.5-1.13-1.24-2.46-2.09-3.97-2.55-1.05-.29-2.09-.47-3.12-.54-1.03-.06-2.05-.09-3.06-.09v-5.86c1.13,0,2.25-.07,3.34-.22,1.09-.15,2.04-.41,2.83-.79,1.34-.67,2.4-1.54,3.18-2.61,.78-1.07,1.17-2.38,1.17-3.94,.04-1.72-.58-3.31-1.86-4.76s-3.14-2.17-5.58-2.17c-2.77,0-4.78,.81-6.02,2.43-1.24,1.62-1.86,3.37-1.86,5.26h-6.36c-.13-4.12,1.24-7.41,4.1-9.89,2.86-2.48,6.26-3.72,10.21-3.72s7.39,1.29,10.21,3.87c2.81,2.58,4.22,5.53,4.22,8.85,0,2.69-.6,4.86-1.8,6.52-1.2,1.66-2.53,2.87-4,3.62,2.27,1.3,4.05,2.93,5.35,4.88Z"/><path class="d" d="M499.63,69.55c-4.68,.34-8.03,.5-10.05,.5v7.56h-7.62v-7.5h-12.92v-5.67h14.55c4.24,0,9.1-.2,14.58-.6,5.48-.4,9.33-.75,11.56-1.04v5.8c-2.06,.29-5.43,.61-10.11,.94Zm-.13-22.59c2.58,1.83,3.88,3.98,3.88,6.46s-1.3,4.63-3.91,6.33c-2.6,1.7-6.28,2.55-11.02,2.55s-8.37-.84-10.99-2.52c-2.62-1.68-3.94-3.8-3.94-6.36s1.33-4.58,4-6.43c2.67-1.85,6.31-2.77,10.93-2.77s8.47,.91,11.06,2.74Zm-21.07,53.58v-12.85h32.38v-2.65h-32.38v-5.42h40.32v12.85h-32.38v2.65h33.64v5.42h-41.58Zm4.41-49.58c-1.18,.84-1.76,1.62-1.76,2.33,0,.88,.59,1.7,1.76,2.46,1.18,.76,3.04,1.13,5.61,1.13s4.48-.38,5.64-1.13,1.73-1.53,1.73-2.33-.57-1.62-1.7-2.46c-1.13-.84-3.02-1.26-5.67-1.26s-4.43,.42-5.61,1.26Zm28.79,26.59v-1.2h-12.92v-4.98h12.92v-25.64h7.31v31.81h-7.31Z"/><path class="d" d="M558.66,89.24c-3.8,.4-7.78,.68-11.94,.85-3.61,.13-7.67,.18-12.16,.16-4.49-.02-6.91-.03-7.25-.03v-6.49c.42,0,3.49,.01,9.2,.03,5.71,.02,10.48-.05,14.3-.22,2.6-.08,5.6-.29,8.98-.63,3.38-.34,6.02-.65,7.91-.95v5.98c-2.23,.46-5.24,.89-9.04,1.29Zm-1.13-36.19c3.04,2.81,4.57,6.17,4.57,10.08s-1.52,7.33-4.57,10.14c-3.05,2.81-6.94,4.22-11.69,4.22s-8.63-1.41-11.66-4.22c-3.02-2.81-4.54-6.19-4.54-10.14s1.51-7.27,4.54-10.08c3.02-2.81,6.91-4.22,11.66-4.22s8.64,1.41,11.69,4.22Zm-5.26,4.47c-1.51-1.55-3.65-2.33-6.43-2.33s-4.85,.78-6.36,2.33c-1.51,1.55-2.27,3.42-2.27,5.61s.76,4.06,2.27,5.64c1.51,1.57,3.63,2.36,6.36,2.36s4.91-.79,6.43-2.36,2.27-3.45,2.27-5.64-.76-4.05-2.27-5.61Zm17.45,43.66V45.74h7.31v55.44h-7.31Z"/><path class="d" d="M605.06,72.01v-6.24h16.13c.33-1.34,.69-3.11,1.07-5.29,.38-2.18,.71-4.39,1.01-6.61h-13.1v-6.17h21.23c0,1.01-.13,2.38-.38,4.13-.25,1.74-.48,3.27-.69,4.57-.17,.92-.46,2.61-.88,5.07-.42,2.46-.67,3.9-.76,4.32h16.32c.29-1.34,.62-3.1,.98-5.26,.36-2.16,.66-4.38,.91-6.65h-13.17v-6.17h21.17c0,.84-.08,1.97-.25,3.4-.17,1.43-.38,3.05-.63,4.85-.13,.8-.41,2.49-.85,5.07-.44,2.58-.72,4.17-.85,4.76h8.19v6.24h-55.44Zm6.87,28.54v-25.2h41.83v6.05h-34.02v3.78h33.89v5.61h-33.89v3.78h34.96v5.98h-42.78Z"/><path class="d" d="M666.23,57.77v-6.36h32v6.36h-12.16v2.33c0,1.55,.3,3.96,.91,7.21,.61,3.26,1.88,6.18,3.81,8.79,1.72,2.27,3.52,4.12,5.39,5.54,1.87,1.43,3.24,2.39,4.13,2.9l-4.73,5.48c-.55-.34-1.6-1.02-3.15-2.05-1.55-1.03-3.13-2.4-4.73-4.13-1.22-1.34-2.26-2.69-3.12-4.03-.86-1.34-1.63-2.67-2.3-3.97-.63,1.55-1.43,3.07-2.39,4.54-.97,1.47-2.18,3.02-3.65,4.66-1.26,1.39-2.53,2.58-3.81,3.59-1.28,1.01-2.7,2.04-4.25,3.09l-6.05-4.79c2.48-1.55,4.76-3.3,6.84-5.23,2.08-1.93,3.81-4.05,5.2-6.36,1.55-2.6,2.64-5.41,3.24-8.41,.61-3,.91-5.28,.91-6.84v-2.33h-12.1Zm46.05,16.32v27.09h-7.31V45.74h7.31v21.42h7.81v6.93h-7.81Z"/><path class="d" d="M748.64,77.87c-4.03,.29-7.94,.46-11.72,.5l-12.85,.06v-18.14h20.66v-5.67h-20.66v-6.24h27.97v18.02h-20.66v5.86l8.57-.06c2.69-.04,5.84-.2,9.45-.47,3.61-.27,6.43-.54,8.44-.79v6.05c-2.1,.29-5.17,.59-9.2,.88Zm13.48,23.31v-11.53h-33.52v-6.43h40.82v17.95h-7.31Zm7.31-34.52v13.99h-7.31V45.74h7.31v14.68h7.81v6.24h-7.81Z"/><path class="d" d="M812.46,66.34v-19.34h7.06v51.66h-7.06v-24.95h-5.48c-.25,5.84-1.54,10.39-3.87,13.67s-5.3,4.91-8.92,4.91-6.87-1.83-9.26-5.48c-2.39-3.65-3.59-8.71-3.59-15.18s1.15-11.44,3.46-15.18c2.31-3.74,5.44-5.61,9.39-5.61,3.23,0,5.97,1.39,8.22,4.16,2.25,2.77,3.69,6.55,4.32,11.34h5.73Zm-13.99-4.91c-1.05-2.73-2.46-4.09-4.22-4.09s-3.29,1.35-4.32,4.06c-1.03,2.71-1.54,6.1-1.54,10.17s.51,7.37,1.54,10.14c1.03,2.77,2.47,4.16,4.32,4.16s3.17-1.38,4.22-4.13c1.05-2.75,1.58-6.14,1.58-10.17s-.53-7.41-1.58-10.14Zm25.64,39.75V45.74h7.06v55.44h-7.06Z"/><path class="d" d="M892.02,72.96c-1.18-.42-2.44-.97-3.78-1.64-1.34-.67-2.79-1.55-4.35-2.65-1.18-.84-2.23-1.7-3.15-2.58s-1.81-1.83-2.65-2.83c-.55,1.13-1.32,2.24-2.33,3.31-1.01,1.07-2.18,2.13-3.53,3.18-1.47,1.18-2.91,2.16-4.32,2.96-1.41,.8-2.64,1.45-3.69,1.95l-5.17-5.17c1.6-.71,3.28-1.61,5.04-2.68s3.51-2.45,5.23-4.13c1.43-1.39,2.59-3.03,3.5-4.95,.9-1.91,1.35-4,1.35-6.27v-4.35h7.75v4.35c0,2.23,.46,4.25,1.39,6.08s2.16,3.39,3.72,4.69c1.6,1.3,3.15,2.37,4.66,3.21,1.51,.84,3.04,1.51,4.6,2.02l-4.28,5.48Zm-21.86,27.59v-14.55h32.45v-3.34h-32.45v-5.8h40.19v14.49h-32.51v3.34h33.89v5.86h-41.58Zm33.01-25.89v-13.48h-11.09v-6.61h11.09v-8.82h7.31v28.92h-7.31Z"/><path class="d" d="M946.27,74.63c-3.99,.27-7.88,.43-11.66,.47l-14.3,.13v-16.25h21.86v-4.47h-21.86v-6.11h29.23v16.44h-21.8v4.28l9.89-.06c2.73-.04,5.87-.2,9.42-.47,3.55-.27,6.33-.56,8.35-.85v6.05c-2.1,.29-5.15,.58-9.13,.85Zm-19.78,25.92v-21.48h7.31v5.23h26.4v-5.23h7.25v21.48h-40.95Zm33.71-10.21h-26.4v4.16h26.4v-4.16Zm0-13.92v-30.68h7.31v30.68h-7.31Z"/><path class="d" d="M1007,79.98c-4.96,.4-10.27,.6-15.94,.6h-14.36v-6.55h16.51v-6.05h-11.59v-20.03h31.12v6.49h-23.81v7.06h24.44v6.49h-12.35v5.92c2.44-.08,5.23-.25,8.38-.5,3.15-.25,5.82-.5,8-.76v6.36c-1.97,.25-5.44,.58-10.4,.98Zm-21.04,19.94v-15.56h7.43v9.2h34.46v6.36h-41.9Zm33.33-12.98V45.74h7.31v41.2h-7.31Z"/><path class="d" d="M1082.44,69.71c-3.04,2.42-6.54,3.62-10.49,3.62s-7.39-1.2-10.46-3.59c-3.07-2.39-4.6-5.54-4.6-9.45s1.52-6.99,4.57-9.39c3.04-2.39,6.54-3.59,10.49-3.59s7.44,1.2,10.49,3.59c3.04,2.39,4.57,5.52,4.57,9.39s-1.52,7-4.57,9.42Zm-18.11,30.84v-14.74h31.69v-3.4h-31.69v-5.86h39.25v14.68h-31.75v3.4h33.14v5.92h-40.64Zm12.88-44.95c-1.53-1.24-3.29-1.86-5.26-1.86s-3.73,.63-5.26,1.89-2.3,2.77-2.3,4.54,.77,3.36,2.3,4.66c1.53,1.3,3.29,1.95,5.26,1.95s3.73-.65,5.26-1.95c1.53-1.3,2.3-2.86,2.3-4.66s-.77-3.33-2.3-4.57Zm26.37,7.78v11.59h-7.31v-29.23h7.31v11.03h7.62v6.61h-7.62Z"/><path class="d" d="M1112.84,95.13v-6.36h23.75v-11.91h-16.25v-26.4h40.51v26.4h-16.44v11.91h23.88v6.36h-55.44Zm40.7-38.3h-25.89v13.73h25.89v-13.73Z"/><path class="d" d="M1202.64,88.08c-4.01,.5-8.39,.78-13.14,.82l-13.99,.06V51.73h28.67v6.3h-21.36v24.38h9.95c2.81-.08,6.16-.32,10.05-.72,3.88-.4,6.08-.64,6.58-.72v6.3c-.5,.04-2.76,.32-6.77,.82Zm10.93,13.1V45.74h7.31v55.44h-7.31Z"/><path class="d" d="M1228.76,78.69v-6.36h55.44v6.36h-55.44Zm6.93-12.54v-19.91h7.31v13.54h35.03v6.36h-42.34Zm0,33.77v-16.88h7.31v10.52h36.1v6.36h-43.41Z"/><path class="d" d="M211.19,160.16v-6.36h34.78v6.36h-34.78Zm28.82,24.38c-2.88,2.73-6.62,4.09-11.25,4.09s-8.46-1.34-11.4-4.03c-2.94-2.69-4.41-5.69-4.41-9.01s1.46-6.38,4.38-8.95c2.92-2.56,6.75-3.84,11.5-3.84s8.3,1.27,11.18,3.81c2.88,2.54,4.32,5.53,4.32,8.98,0,3.23-1.44,6.22-4.32,8.95Zm-20.63-35.41v-6.11h18.46v6.11h-18.46Zm3.4,21.86c-1.43,1.34-2.14,2.9-2.14,4.66s.71,3.21,2.14,4.6,3.44,2.08,6.05,2.08,4.44-.69,5.89-2.08c1.45-1.39,2.17-2.92,2.17-4.6,0-1.81-.72-3.37-2.17-4.69-1.45-1.32-3.41-1.98-5.89-1.98-2.61,0-4.62,.67-6.05,2.02Zm35.97-1.57v26.65h-7.31v-55.44h7.31v22.05h7.94v6.74h-7.94Z"/><path class="d" d="M297.69,182.71c-2.94,.34-5.88,.55-8.82,.63-3.19,.13-6.7,.19-10.52,.19h-6.11v-38.05h7.31v31.5l9.51-.06c2.48-.08,5.22-.27,8.22-.57,3-.29,5.53-.61,7.59-.94v6.36c-1.85,.29-4.24,.61-7.18,.94Zm18.58-42.08v21.67h8.19v6.61h-8.19v27.15h-7.31v-55.44h7.31Z"/><path class="d" d="M359.58,184.13c-3.8,.4-7.78,.68-11.94,.85-3.61,.13-7.67,.18-12.16,.16-4.49-.02-6.91-.03-7.25-.03v-6.49c.42,0,3.49,.01,9.2,.03,5.71,.02,10.48-.05,14.3-.22,2.6-.08,5.6-.29,8.98-.63,3.38-.34,6.02-.65,7.91-.95v5.98c-2.23,.46-5.24,.89-9.04,1.29Zm-1.13-36.19c3.04,2.81,4.57,6.17,4.57,10.08s-1.52,7.33-4.57,10.14c-3.05,2.81-6.94,4.22-11.69,4.22s-8.63-1.41-11.66-4.22c-3.02-2.81-4.54-6.19-4.54-10.14s1.51-7.27,4.54-10.08c3.02-2.81,6.91-4.22,11.66-4.22s8.64,1.41,11.69,4.22Zm-5.26,4.47c-1.51-1.55-3.65-2.33-6.43-2.33s-4.85,.78-6.36,2.33c-1.51,1.55-2.27,3.42-2.27,5.61s.76,4.06,2.27,5.64c1.51,1.57,3.63,2.36,6.36,2.36s4.91-.79,6.43-2.36,2.27-3.45,2.27-5.64-.76-4.05-2.27-5.61Zm17.45,43.66v-55.44h7.31v55.44h-7.31Z"/><path class="d" d="M439.69,185.42c-1.3-.76-2.71-1.67-4.22-2.74s-3.07-2.47-4.66-4.19c-1.22-1.34-2.25-2.64-3.09-3.87-.84-1.24-1.6-2.51-2.27-3.81-.67,1.55-1.51,3.01-2.52,4.38-1.01,1.37-2.25,2.89-3.72,4.57-1.22,1.39-2.48,2.58-3.78,3.59-1.3,1.01-2.73,2.04-4.28,3.09l-5.54-4.72c2.48-1.55,4.71-3.25,6.71-5.1,1.99-1.85,3.69-3.93,5.07-6.24,1.6-2.69,2.69-5.49,3.28-8.41,.59-2.92,.88-5.95,.88-9.1v-9.14h7.62v9.14c0,2.39,.31,5.37,.95,8.91,.63,3.55,1.91,6.63,3.84,9.23,1.72,2.27,3.46,4.13,5.23,5.58,1.76,1.45,3.51,2.66,5.23,3.62l-4.73,5.23Zm10.4,10.65v-31h-11.15v-6.87h11.15v-17.58h7.31v55.44h-7.31Z"/><path class="d" d="M468.04,185.23v-39.88h7.31v12.6h14.17v-12.6h7.31v39.88h-28.79Zm21.48-20.92h-14.17v14.49h14.17v-14.49Zm17.2,31.75v-55.44h7.31v55.44h-7.31Z"/><path class="d" d="M521.9,189.01v-6.36h55.44v6.36h-55.44Zm24.73-24.73c-1.45,1.45-3.14,2.91-5.07,4.38-2.06,1.55-4.21,2.85-6.46,3.87-2.25,1.03-4.04,1.77-5.39,2.24l-4.72-5.1c1.97-.71,4.21-1.72,6.71-3.02,2.5-1.3,4.9-2.92,7.21-4.85,2.18-1.85,3.82-3.99,4.91-6.43,1.09-2.44,1.64-4.96,1.64-7.56v-4.09h8.32v4.09c0,2.6,.54,5.12,1.64,7.56,1.09,2.44,2.73,4.58,4.91,6.43,2.35,1.93,4.77,3.55,7.25,4.85,2.48,1.3,4.7,2.31,6.68,3.02l-4.72,5.1c-1.34-.46-3.14-1.21-5.39-2.24-2.25-1.03-4.4-2.32-6.46-3.87-1.93-1.47-3.6-2.93-5.01-4.38-1.41-1.45-2.43-2.82-3.06-4.13-.55,1.3-1.54,2.68-2.99,4.13Z"/><path class="d" d="M610.13,185.8c-4.05,.29-7.68,.48-10.87,.57l-19.21,.13v-6.43h15.12v-9.64c-3.74-.67-6.73-2.26-8.98-4.76-2.25-2.5-3.37-5.36-3.37-8.6,0-3.78,1.48-7.02,4.44-9.73s6.79-4.06,11.5-4.06,8.6,1.47,11.56,4.41c2.96,2.94,4.44,6.07,4.44,9.39s-1.1,6.04-3.31,8.54c-2.21,2.5-5.16,4.11-8.85,4.82v9.45c1.68,0,4.25-.14,7.72-.41,3.46-.27,6.35-.56,8.66-.85v6.43c-1.85,.21-4.8,.46-8.85,.76Zm-4.91-34.02c-1.49-1.51-3.64-2.27-6.46-2.27s-4.89,.76-6.36,2.27c-1.47,1.51-2.21,3.28-2.21,5.29s.73,3.72,2.21,5.23c1.47,1.51,3.61,2.27,6.43,2.27s4.96-.76,6.43-2.27c1.47-1.51,2.21-3.25,2.21-5.23s-.75-3.78-2.24-5.29Zm23.34,18.4v25.89h-7.31v-55.44h7.31v23.06h7.94v6.49h-7.94Z"/><path class="d" d="M685.45,184.85c-.88-.71-1.86-1.57-2.93-2.58-1.07-1.01-2.15-2.2-3.24-3.59-.84-1.09-1.52-2.08-2.05-2.96-.53-.88-1.06-1.91-1.61-3.09-.38,1.13-.85,2.18-1.42,3.15-.57,.97-1.4,2.25-2.49,3.84-1.05,1.51-2.06,2.8-3.02,3.87-.97,1.07-2.08,2.17-3.34,3.31l-6.11-4.16c1.64-1.34,3.36-3.16,5.17-5.45,1.81-2.29,3.25-4.65,4.35-7.09,1.34-2.94,2.18-5.58,2.52-7.91,.33-2.33,.5-4.9,.5-7.72v-9.39h7.75v9.39c0,2.9,.26,5.94,.79,9.14,.52,3.19,1.56,5.96,3.12,8.32,1.47,2.23,2.75,3.91,3.84,5.04,1.09,1.13,2.29,2.21,3.59,3.21l-5.42,4.66Zm8.76,8.69v-27.59h-7.94v-6.93h7.94v-17.14h7.06v51.66h-7.06Zm11.72,2.52v-55.44h7.06v55.44h-7.06Z"/><path class="d" d="M770.06,158.58c-1.3,4.83-3.4,9.14-6.3,12.92-2.77,3.65-5.62,6.71-8.54,9.17-2.92,2.46-5.91,4.46-8.98,6.02l-5.54-4.28c2.77-1.47,5.58-3.28,8.41-5.42,2.84-2.14,5.3-4.62,7.4-7.43,2.35-3.11,4.04-6.07,5.07-8.88,1.03-2.81,1.63-5.4,1.79-7.75h-19.21v-6.3h27.85c0,3.15-.65,7.14-1.95,11.97Zm18.14,10.96v26.52h-7.31v-55.44h7.31v22.24h8.19v6.68h-8.19Z"/><path class="d" d="M802.56,152.66v-6.36h32v6.36h-12.16v2.33c0,1.55,.3,3.96,.91,7.21,.61,3.26,1.88,6.18,3.81,8.79,1.72,2.27,3.52,4.12,5.39,5.54,1.87,1.43,3.25,2.39,4.13,2.9l-4.73,5.48c-.55-.34-1.6-1.02-3.15-2.05-1.55-1.03-3.13-2.4-4.73-4.13-1.22-1.34-2.26-2.69-3.12-4.03-.86-1.34-1.63-2.67-2.3-3.97-.63,1.55-1.43,3.07-2.39,4.54-.97,1.47-2.18,3.02-3.65,4.66-1.26,1.39-2.53,2.58-3.81,3.59-1.28,1.01-2.7,2.04-4.25,3.09l-6.05-4.79c2.48-1.55,4.76-3.3,6.83-5.23,2.08-1.93,3.81-4.05,5.2-6.36,1.55-2.6,2.64-5.41,3.25-8.41,.61-3,.91-5.28,.91-6.84v-2.33h-12.1Zm40.38,43.41v-55.44h7.31v55.44h-7.31Z"/><path class="d" d="M889.41,184.13c-3.8,.4-7.78,.68-11.94,.85-3.61,.13-7.67,.18-12.16,.16-4.5-.02-6.91-.03-7.25-.03v-6.49c.42,0,3.49,.01,9.2,.03,5.71,.02,10.48-.05,14.3-.22,2.6-.08,5.6-.29,8.98-.63,3.38-.34,6.02-.65,7.91-.95v5.98c-2.23,.46-5.24,.89-9.04,1.29Zm-1.13-36.19c3.04,2.81,4.57,6.17,4.57,10.08s-1.52,7.33-4.57,10.14c-3.04,2.81-6.94,4.22-11.69,4.22s-8.63-1.41-11.65-4.22c-3.02-2.81-4.54-6.19-4.54-10.14s1.51-7.27,4.54-10.08c3.02-2.81,6.91-4.22,11.65-4.22s8.64,1.41,11.69,4.22Zm-5.26,4.47c-1.51-1.55-3.65-2.33-6.43-2.33s-4.85,.78-6.36,2.33c-1.51,1.55-2.27,3.42-2.27,5.61s.76,4.06,2.27,5.64c1.51,1.57,3.63,2.36,6.36,2.36s4.91-.79,6.43-2.36c1.51-1.57,2.27-3.45,2.27-5.64s-.76-4.05-2.27-5.61Zm17.45,43.66v-55.44h7.31v55.44h-7.31Z"/><path class="d" d="M968.82,170.43c-1.18-.46-2.58-1.15-4.22-2.08-1.64-.92-3.15-1.97-4.54-3.15-1.13-.97-2.14-1.9-3.02-2.8-.88-.9-1.74-1.98-2.58-3.24-.71,1.3-1.58,2.56-2.58,3.78-1.01,1.22-2.16,2.39-3.47,3.53-1.55,1.34-2.91,2.42-4.06,3.21-1.16,.8-2.38,1.55-3.69,2.27l-5.17-5.1c1.6-.84,3.35-1.94,5.26-3.31,1.91-1.36,3.64-2.93,5.2-4.69,1.72-1.93,2.92-3.94,3.59-6.02,.67-2.08,1.01-4.34,1.01-6.77v-3.91h7.75v3.91c0,2.44,.38,4.66,1.13,6.68s1.87,3.82,3.34,5.42c1.68,1.68,3.39,3.08,5.13,4.19,1.74,1.11,3.45,1.98,5.13,2.61l-4.22,5.48Zm12.95,23.25c-3.67,2.1-9.02,3.15-16.03,3.15s-12.31-1.04-16-3.12c-3.7-2.08-5.54-4.78-5.54-8.1s1.85-5.93,5.54-8.1c3.7-2.16,9.03-3.24,16-3.24s12.36,1.07,16.03,3.21,5.51,4.85,5.51,8.13-1.84,5.96-5.51,8.06Zm-25.77-4.13c2.46,1.03,5.72,1.54,9.8,1.54s7.23-.5,9.73-1.51c2.5-1.01,3.75-2.31,3.75-3.91,0-1.68-1.25-3.01-3.75-4-2.5-.99-5.74-1.48-9.73-1.48s-7.34,.48-9.8,1.45c-2.46,.97-3.69,2.29-3.69,3.97s1.23,2.91,3.69,3.94Zm29.45-29.7v13.17h-7.31v-32.38h7.31v12.6h7.5v6.61h-7.5Z"/><path class="d" d="M1025.4,172.51v4.72h16.88v18.21h-41.58v-18.21h16.82v-4.72h-23.75v-6.36h55.44v6.36h-23.81Zm-26.59-15.94h8.38l-.57-8.38h-6.55v-6.24h42.84v6.24h-6.55l-.57,8.38h8.38v6.24h-45.36v-6.24Zm36.1,27.03h-26.84v5.42h26.84v-5.42Zm-20.98-35.41l.57,8.38h13.99l.57-8.38h-15.12Z"/><path class="d" d="M1051.73,168.92v-5.98h55.44v5.98h-55.44Zm43.53-11.72c-3.91,1.68-9.18,2.52-15.81,2.52s-11.91-.85-15.81-2.55c-3.91-1.7-5.86-4.08-5.86-7.15,0-2.9,1.95-5.25,5.86-7.06,3.91-1.81,9.18-2.71,15.81-2.71s11.91,.92,15.81,2.77c3.91,1.85,5.86,4.18,5.86,6.99,0,3.11-1.95,5.5-5.86,7.18Zm4.98,29.3h-33.58v3.15h34.9v5.8h-42.9v-14.05h33.52v-3.15h-33.52v-5.8h41.58v14.05Zm-11.21-39.66c-2.65-.9-5.84-1.35-9.58-1.35s-6.98,.43-9.61,1.29c-2.62,.86-3.94,1.94-3.94,3.24,0,1.09,1.2,2.12,3.59,3.09,2.39,.97,5.71,1.45,9.95,1.45s7.46-.45,9.89-1.35c2.43-.9,3.65-1.92,3.65-3.06,0-1.3-1.32-2.4-3.97-3.31Z"/><path class="d" d="M1131.74,174.9v-6.05h23.56v-4.09h-16.63v-23.18h41.64v5.73h-34.08v3.21h33.89v5.29h-33.89v3.21h34.84v5.73h-17.51v4.09h23.62v6.05h-55.44Zm44.35,19.28c-3.86,1.76-9.41,2.65-16.63,2.65s-12.71-.92-16.57-2.77c-3.86-1.85-5.8-4.18-5.8-6.99s1.9-5.16,5.7-6.9c3.8-1.74,9.36-2.61,16.66-2.61s12.77,.91,16.63,2.74c3.86,1.83,5.8,4.17,5.8,7.02s-1.93,5.1-5.8,6.87Zm-6.87-9.89c-2.48-.63-5.71-.94-9.7-.94s-7.34,.28-9.8,.85-3.69,1.5-3.69,2.8c0,1.22,1.22,2.21,3.65,2.99,2.44,.78,5.69,1.17,9.77,1.17s7.23-.36,9.73-1.07c2.5-.71,3.75-1.7,3.75-2.96s-1.24-2.21-3.72-2.84Z"/><path class="d" d="M1190.27,160.73v-6.24h28.98v6.24h-28.98Zm24.13,23.53c-2.6,2.16-5.8,3.24-9.58,3.24-3.53,0-6.67-1.07-9.42-3.21-2.75-2.14-4.13-5.08-4.13-8.82s1.38-6.52,4.13-8.73c2.75-2.21,5.89-3.31,9.42-3.31,3.74,0,6.92,1.12,9.54,3.37,2.62,2.25,3.94,5.13,3.94,8.66s-1.3,6.63-3.91,8.79Zm-17.64-33.42v-6.05h15.81v6.05h-15.81Zm3.59,20.44c-1.22,1.03-1.83,2.47-1.83,4.32s.62,3.18,1.86,4.13c1.24,.94,2.72,1.42,4.44,1.42s3.24-.47,4.44-1.42c1.2-.95,1.8-2.34,1.8-4.19s-.58-3.22-1.73-4.25c-1.16-1.03-2.66-1.54-4.5-1.54s-3.25,.51-4.47,1.54Zm34.84,24.79v-26.21h-5.36v23.69h-7.06v-51.66h7.06v20.54h5.36v-21.8h7.06v55.44h-7.06Z"/><path class="d" d="M1301.55,182.96c-4.01,.5-8.39,.78-13.14,.82l-13.99,.06v-37.23h28.67v6.3h-21.36v24.38h9.95c2.81-.08,6.16-.32,10.05-.72,3.88-.4,6.08-.64,6.58-.72v6.3c-.5,.04-2.76,.32-6.77,.82Zm10.93,13.1v-55.44h7.31v55.44h-7.31Z"/><path class="d" d="M1330.88,152.66v-6.36h32v6.36h-12.16v2.33c0,1.55,.3,3.96,.91,7.21,.61,3.26,1.88,6.18,3.81,8.79,1.72,2.27,3.52,4.12,5.39,5.54,1.87,1.43,3.24,2.39,4.13,2.9l-4.72,5.48c-.55-.34-1.6-1.02-3.15-2.05-1.55-1.03-3.13-2.4-4.72-4.13-1.22-1.34-2.26-2.69-3.12-4.03-.86-1.34-1.63-2.67-2.3-3.97-.63,1.55-1.43,3.07-2.39,4.54-.97,1.47-2.18,3.02-3.65,4.66-1.26,1.39-2.53,2.58-3.81,3.59-1.28,1.01-2.7,2.04-4.25,3.09l-6.05-4.79c2.48-1.55,4.76-3.3,6.84-5.23,2.08-1.93,3.81-4.05,5.2-6.36,1.55-2.6,2.63-5.41,3.24-8.41,.61-3,.91-5.28,.91-6.84v-2.33h-12.1Zm46.05,16.32v27.09h-7.31v-55.44h7.31v21.42h7.81v6.93h-7.81Z"/><path class="d" d="M1415.8,150.24c2.77,3.8,4.16,8.83,4.16,15.09s-1.39,11.21-4.16,14.99c-2.77,3.78-6.53,5.67-11.28,5.67s-8.46-1.89-11.28-5.67c-2.81-3.78-4.22-8.78-4.22-14.99s1.41-11.39,4.22-15.15c2.81-3.76,6.57-5.64,11.28-5.64s8.5,1.9,11.28,5.7Zm-5.17,5.1c-1.43-2.88-3.44-4.32-6.05-4.32s-4.59,1.45-6.08,4.35c-1.49,2.9-2.24,6.2-2.24,9.89s.75,7.05,2.24,9.92c1.49,2.88,3.52,4.32,6.08,4.32s4.62-1.43,6.05-4.28c1.43-2.86,2.14-6.17,2.14-9.95s-.71-7.05-2.14-9.92Zm19.09,40.73v-55.44h7.25v55.44h-7.25Z"/><path class="d" d="M1473.89,182.71c-2.94,.34-5.88,.55-8.82,.63-3.19,.13-6.68,.19-10.46,.19h-6.05v-38.05h7.31v31.5l9.39-.06c2.48-.08,5.22-.27,8.22-.57,3-.29,5.53-.61,7.59-.94v6.36c-1.85,.29-4.24,.61-7.18,.94Zm12.79,13.36v-32.63h-16v-6.68h16v-16.13h7.31v55.44h-7.31Z"/><path class="d" d="M1535.16,184.13c-3.8,.4-7.78,.68-11.94,.85-3.61,.13-7.67,.18-12.16,.16-4.5-.02-6.91-.03-7.25-.03v-6.49c.42,0,3.49,.01,9.2,.03,5.71,.02,10.48-.05,14.3-.22,2.6-.08,5.6-.29,8.98-.63,3.38-.34,6.02-.65,7.91-.95v5.98c-2.23,.46-5.24,.89-9.04,1.29Zm-1.13-36.19c3.04,2.81,4.57,6.17,4.57,10.08s-1.52,7.33-4.57,10.14c-3.05,2.81-6.94,4.22-11.69,4.22s-8.63-1.41-11.66-4.22c-3.02-2.81-4.54-6.19-4.54-10.14s1.51-7.27,4.54-10.08c3.02-2.81,6.91-4.22,11.66-4.22s8.64,1.41,11.69,4.22Zm-5.26,4.47c-1.51-1.55-3.65-2.33-6.43-2.33s-4.85,.78-6.36,2.33c-1.51,1.55-2.27,3.42-2.27,5.61s.76,4.06,2.27,5.64c1.51,1.57,3.63,2.36,6.36,2.36s4.91-.79,6.43-2.36c1.51-1.57,2.27-3.45,2.27-5.64s-.76-4.05-2.27-5.61Zm17.45,43.66v-55.44h7.31v55.44h-7.31Z"/><path class="d" d="M236.54,269.03c-5.4,.38-11.37,.57-17.92,.57h-8.44v-6.49h10.46v-11.91h7.31v11.91c2.1,0,5.6-.18,10.49-.54,4.89-.36,8.62-.72,11.18-1.1v6.36c-3.32,.42-7.68,.82-13.07,1.2Zm8.29-24.66c-.21,2-.46,3.79-.76,5.39-.42,2.56-.8,4.57-1.13,6.02s-.53,2.22-.57,2.3h-7.25c.04-.21,.37-1.72,.98-4.54,.61-2.81,1-5.75,1.17-8.82h-23.56v-6.36h31.56c-.08,2.02-.23,4.02-.44,6.02Zm-25.96,45.33v-16.51h7.37v10.14h34.15v6.36h-41.52Zm40-30.18v16.76h-7.31v-40.76h7.31v17.39h7.81v6.62h-7.81Z"/><path class="d" d="M300.9,265.38c-1.01-.38-2.1-.86-3.28-1.45-1.18-.59-2.61-1.47-4.28-2.65-1.26-.88-2.34-1.8-3.25-2.74s-1.58-1.77-2.05-2.49c-.5,.92-1.23,1.87-2.17,2.84-.95,.97-2.03,1.95-3.24,2.96-1.39,1.18-2.91,2.23-4.57,3.15-1.66,.92-3.16,1.62-4.5,2.08l-4.98-5.67c1.55-.5,3.47-1.35,5.76-2.55,2.29-1.2,4.21-2.59,5.76-4.19,1.47-1.47,2.49-3,3.06-4.6,.57-1.6,.85-2.88,.85-3.84v-1.07h-10.65v-6.49h29.11v6.49h-10.65v1.07c0,.92,.31,2.13,.94,3.62,.63,1.49,1.58,2.85,2.83,4.06,1.72,1.64,3.38,2.88,4.98,3.72,1.6,.84,3.04,1.45,4.35,1.83l-4.03,5.92Zm-20.92,24.95v-20.35h40.32v20.35h-40.32Zm33.01-13.92h-25.7v7.56h25.7v-7.56Zm.13-9.01v-13.36h-11.09v-6.43h11.09v-12.1h7.31v31.88h-7.31Z"/><path class="d" d="M325.97,263.8v-5.98h55.44v5.98h-55.44Zm43.53-11.72c-3.91,1.68-9.18,2.52-15.81,2.52s-11.91-.85-15.81-2.55c-3.91-1.7-5.86-4.08-5.86-7.15,0-2.9,1.95-5.25,5.86-7.06,3.91-1.81,9.18-2.71,15.81-2.71s11.91,.92,15.81,2.77c3.91,1.85,5.86,4.18,5.86,6.99,0,3.11-1.95,5.5-5.86,7.18Zm4.98,29.3h-33.58v3.15h34.9v5.8h-42.9v-14.05h33.52v-3.15h-33.52v-5.8h41.58v14.05Zm-11.21-39.66c-2.65-.9-5.84-1.35-9.58-1.35s-6.98,.43-9.61,1.29c-2.62,.86-3.94,1.94-3.94,3.24,0,1.09,1.2,2.12,3.59,3.09,2.39,.97,5.71,1.45,9.95,1.45s7.46-.45,9.89-1.35c2.43-.9,3.65-1.92,3.65-3.06,0-1.3-1.32-2.4-3.97-3.31Z"/><path class="d" d="M429.67,264.18h-23.69v-5.98h55.44v5.98h-23.81v3.28h16.88v13.99h-33.71v3.15h35.03v5.73h-42.9v-13.99h33.64v-3.15h-33.64v-5.73h16.76v-3.28Zm-18.65-14.93h8.38l-.57-6.49h-6.55v-5.92h42.84v5.92h-6.55l-.57,6.49h8.38v5.92h-45.36v-5.92Zm15.12-6.49l.57,6.49h13.99l.57-6.49h-15.12Z"/><path class="d" d="M506.78,290.96v-28.1h-9.64c-.42,5.46-2,9.83-4.72,13.1-2.73,3.28-6.28,4.91-10.65,4.91-4.7,0-8.45-1.89-11.25-5.67-2.79-3.78-4.19-8.78-4.19-14.99s1.4-11.39,4.19-15.15c2.79-3.76,6.54-5.64,11.25-5.64,4.2,0,7.64,1.51,10.33,4.54,2.69,3.02,4.3,7.1,4.85,12.22h9.83v-20.66h7.31v55.44h-7.31Zm-18.9-40.73c-1.43-2.88-3.44-4.32-6.05-4.32s-4.59,1.45-6.08,4.35c-1.49,2.9-2.24,6.2-2.24,9.89s.75,7.05,2.24,9.92c1.49,2.88,3.52,4.32,6.08,4.32s4.62-1.43,6.05-4.28c1.43-2.86,2.14-6.17,2.14-9.95s-.71-7.05-2.14-9.92Z"/><path class="d" d="M544.86,261.35c-2.25,.25-4.38,.42-6.39,.5-2.56,.13-5.24,.19-8.03,.19h-4.5v-23.88h7.31v17.32l4.6-.13c1.55,0,3.64-.12,6.27-.35,2.62-.23,4.53-.47,5.7-.72v6.43c-1.05,.17-2.7,.38-4.95,.63Zm-12.38,28.98v-23.31h7.31v5.48h26.14v-5.48h7.31v23.31h-40.76Zm33.45-11.59h-26.14v5.35h26.14v-5.35Zm.44-14.18v-10.96h-6.17v10.96h-7.06v-28.1h7.06v10.33h6.17v-11.28h7.06v29.04h-7.06Z"/><path class="d" d="M611.42,277.6c-2.94,.34-5.88,.55-8.82,.63-3.19,.13-6.9,.19-11.12,.19h-6.77v-38.05h7.31v31.5l10.77-.06c2.48-.08,5.22-.27,8.22-.57,3-.29,5.53-.61,7.59-.94v6.36c-1.85,.29-4.24,.61-7.18,.94Zm11.21,13.36v-55.44h7.31v55.44h-7.31Z"/><path class="d" d="M667.15,277.85c-4.01,.5-8.39,.78-13.14,.82l-12.73,.06v-37.23h27.4v6.3h-20.1v24.38h8.69c2.81-.08,6.16-.32,10.05-.72,3.88-.4,6.08-.64,6.58-.72v6.3c-.5,.04-2.76,.32-6.77,.82Zm26.43-20.47v6.61h-8.25v26.96h-7.31v-55.44h7.31v21.86h8.25Z"/><path class="d" d="M699.12,289.45v-9.07h9.45v9.07h-9.45Z"/><path class="d" d="M765.4,275.21c-2.77,3.78-6.53,5.67-11.28,5.67s-8.46-1.89-11.28-5.67c-2.81-3.78-4.22-8.78-4.22-14.99s1.41-11.39,4.22-15.15c2.81-3.76,6.57-5.64,11.28-5.64s8.5,1.9,11.28,5.7c2.77,3.8,4.16,8.83,4.16,15.09s-1.39,11.21-4.16,14.99Zm-5.2-24.98c-1.41-2.88-3.41-4.32-6.02-4.32s-4.65,1.45-6.14,4.35c-1.49,2.9-2.24,6.2-2.24,9.89s.75,7.05,2.24,9.92c1.49,2.88,3.54,4.32,6.14,4.32s4.61-1.43,6.02-4.28c1.41-2.86,2.11-6.17,2.11-9.95s-.7-7.05-2.11-9.92Zm25.04,14.21v26.52h-7.31v-55.44h7.31v21.92h7.88v6.99h-7.88Z"/><path class="d" d="M807.54,285.48c0,1.43-.29,2.68-.88,3.75-.59,1.07-1.05,1.84-1.39,2.3-.76,1.05-1.67,1.81-2.74,2.27-1.07,.46-1.82,.73-2.24,.82l-2.08-2.58c.88-.08,1.9-.6,3.06-1.54,1.15-.95,1.8-1.86,1.92-2.74h-5.04v-7.81h9.39v5.54Z"/><path class="d" d="M836.08,255.61v-6.24h28.98v6.24h-28.98Zm24.13,23.53c-2.6,2.16-5.8,3.24-9.58,3.24-3.53,0-6.67-1.07-9.42-3.21-2.75-2.14-4.13-5.08-4.13-8.82s1.38-6.52,4.13-8.73c2.75-2.21,5.89-3.31,9.42-3.31,3.74,0,6.92,1.12,9.54,3.37,2.62,2.25,3.94,5.13,3.94,8.66s-1.3,6.63-3.91,8.79Zm-17.64-33.42v-6.05h15.81v6.05h-15.81Zm3.59,20.44c-1.22,1.03-1.83,2.47-1.83,4.32s.62,3.18,1.86,4.13c1.24,.94,2.72,1.42,4.44,1.42s3.25-.47,4.44-1.42c1.2-.95,1.8-2.34,1.8-4.19s-.58-3.22-1.73-4.25c-1.16-1.03-2.66-1.54-4.5-1.54s-3.25,.51-4.47,1.54Zm34.84,24.79v-26.21h-5.35v23.69h-7.06v-51.66h7.06v20.54h5.35v-21.8h7.06v55.44h-7.06Z"/><path class="d" d="M893.47,284.85v-6.36h23.75v-11.34h-16.51v-26.9h41.45v6.36h-33.89v14.17h34.33v6.36h-17.58v11.34h23.88v6.36h-55.44Z"/><path class="d" d="M974.05,255.61v-6.24h28.98v6.24h-28.98Zm24.13,23.53c-2.6,2.16-5.8,3.24-9.58,3.24-3.53,0-6.67-1.07-9.42-3.21-2.75-2.14-4.13-5.08-4.13-8.82s1.38-6.52,4.13-8.73c2.75-2.21,5.89-3.31,9.42-3.31,3.74,0,6.92,1.12,9.54,3.37,2.62,2.25,3.94,5.13,3.94,8.66s-1.3,6.63-3.91,8.79Zm-17.64-33.42v-6.05h15.81v6.05h-15.81Zm3.59,20.44c-1.22,1.03-1.83,2.47-1.83,4.32s.62,3.18,1.86,4.13c1.24,.94,2.72,1.42,4.44,1.42s3.24-.47,4.44-1.42c1.2-.95,1.8-2.34,1.8-4.19s-.58-3.22-1.73-4.25c-1.16-1.03-2.66-1.54-4.5-1.54s-3.26,.51-4.47,1.54Zm34.84,24.79v-26.21h-5.36v23.69h-7.06v-51.66h7.06v20.54h5.36v-21.8h7.06v55.44h-7.06Z"/><path class="d" d="M1031.44,284.85v-6.36h23.75v-11.34h-16.51v-26.9h41.45v6.36h-33.89v14.17h34.33v6.36h-17.58v11.34h23.88v6.36h-55.44Z"/><path class="d" d="M1111.45,261.79v-6.24h16.13c.33-1.34,.69-3.11,1.07-5.29,.38-2.18,.71-4.39,1.01-6.61h-13.1v-6.17h21.23c0,1.01-.13,2.38-.38,4.13-.25,1.74-.48,3.27-.69,4.57-.17,.92-.46,2.61-.88,5.07-.42,2.46-.67,3.9-.76,4.32h16.32c.29-1.34,.62-3.1,.98-5.26,.36-2.16,.66-4.38,.91-6.65h-13.17v-6.17h21.17c0,.84-.08,1.97-.25,3.4-.17,1.43-.38,3.05-.63,4.85-.13,.8-.41,2.49-.85,5.07-.44,2.58-.72,4.17-.85,4.76h8.19v6.24h-55.44Zm6.87,28.54v-25.2h41.83v6.05h-34.02v3.78h33.89v5.61h-33.89v3.78h34.96v5.98h-42.78Z"/><path class="d" d="M1199.59,245.12c2.77,3.8,4.16,8.83,4.16,15.09s-1.39,11.21-4.16,14.99c-2.77,3.78-6.53,5.67-11.28,5.67s-8.46-1.89-11.28-5.67c-2.81-3.78-4.22-8.78-4.22-14.99s1.41-11.39,4.22-15.15c2.81-3.76,6.57-5.64,11.28-5.64s8.5,1.9,11.28,5.7Zm-5.17,5.1c-1.43-2.88-3.44-4.32-6.05-4.32s-4.59,1.45-6.08,4.35c-1.49,2.9-2.24,6.2-2.24,9.89s.75,7.05,2.24,9.92c1.49,2.88,3.52,4.32,6.08,4.32s4.62-1.43,6.05-4.28c1.43-2.86,2.14-6.17,2.14-9.95s-.71-7.05-2.14-9.92Zm19.09,40.73v-55.44h7.25v55.44h-7.25Z"/><path class="d" d="M1292.83,246.35v-10.84h7.31v29.17h-7.31v-11.84h-11.28c-.76,3.11-2.54,5.6-5.35,7.47-2.81,1.87-5.94,2.8-9.39,2.8-3.91,0-7.39-1.2-10.46-3.59-3.07-2.39-4.6-5.54-4.6-9.45s1.52-6.99,4.57-9.39c3.04-2.39,6.54-3.59,10.49-3.59,3.28,0,6.28,.83,9.01,2.49,2.73,1.66,4.56,3.92,5.48,6.77h11.53Zm-7.91,35.85c1.36-1.26,2.4-2.81,3.12-4.66,.59-1.47,.92-2.93,1.01-4.38,.08-1.45,.13-2.91,.13-4.38v-1.32h7.69v1.32c0,1.47,.03,2.93,.09,4.38,.06,1.45,.41,2.91,1.04,4.38,.76,1.72,1.89,3.3,3.4,4.72,1.51,1.43,3,2.62,4.47,3.59l-4.98,5.17c-.92-.59-1.81-1.26-2.65-2.02-.84-.76-1.62-1.53-2.33-2.33-.8-.97-1.44-1.81-1.92-2.52-.48-.71-.81-1.28-.98-1.7-.17,.42-.47,.99-.91,1.7-.44,.71-1.08,1.55-1.92,2.52-.67,.8-1.44,1.57-2.3,2.33-.86,.76-1.78,1.43-2.74,2.02l-4.41-4.6v3.91h-22.11v-22.93h6.99v5.67h8.13v-5.67h6.99v18.08c1.43-.92,2.82-2.02,4.19-3.28Zm-12.85-36.82c-1.53-1.24-3.29-1.86-5.26-1.86s-3.73,.63-5.26,1.89c-1.53,1.26-2.3,2.77-2.3,4.54s.77,3.36,2.3,4.66c1.53,1.3,3.29,1.95,5.26,1.95s3.73-.65,5.26-1.95c1.53-1.3,2.3-2.86,2.3-4.66s-.77-3.33-2.3-4.57Zm1.67,33.74h-8.13v5.1h8.13v-5.1Z"/><path class="d" d="M1307.38,284.34v-6.36h18.52v-18.77h7.5v18.77h29.42v6.36h-55.44Zm48.51-35.85c-.34,2.98-.71,5.8-1.13,8.44-.63,4.07-1.21,7.4-1.73,9.99-.53,2.58-.81,3.96-.85,4.13h-7.18c.08-.38,.62-3.33,1.61-8.85,.99-5.52,1.54-10.32,1.67-14.4h-34.97v-6.36h43.09c0,1.72-.17,4.07-.5,7.06Z"/><path class="d" d="M1387.39,269.6v-6.36h23.81v-4.79h7.75v4.79h23.88v6.36h-55.44Zm22.46-12.92c-1.83,.08-3.22,.17-4.19,.25-2.1,.13-4.58,.2-7.43,.22-2.86,.02-4.39,.03-4.6,.03v-20.22h19.34v6.36h-11.97v7.5c.13,0,1.13,0,3.02-.03,1.89-.02,3.55-.09,4.98-.22,.97-.08,1.83-.16,2.58-.22,.76-.06,1.53-.14,2.33-.22v6.24c-.88,.13-2.24,.23-4.06,.31Zm18.87,34.27v-10.52h-35.09v-6.43h42.4v16.95h-7.31Zm-13.23-33.77v-20.22h21.36v6.36h-14.05v7.5h14.55v6.36h-21.86Z"/><path class="d" d="M1475.91,247.61c-1.55,3.44-3.84,6.43-6.87,8.95-3.32,2.77-6.68,4.74-10.08,5.89-3.4,1.16-6.26,2.01-8.57,2.55l-4.03-4.91c2.39-.5,4.88-1.21,7.47-2.11,2.58-.9,5.11-2.13,7.59-3.69,2.6-1.64,4.46-3.27,5.58-4.88,1.11-1.62,1.84-3.03,2.17-4.25h-19.59v-6.17h28.67c0,2.31-.78,5.19-2.33,8.63Zm-20.35,42.71v-23.5h39.19v5.8h-31.44v3.28h31.25v5.36h-31.25v3.28h32.7v5.8h-40.45Zm39.06-36.41v10.77h-7.31v-29.17h7.31v12.22h7.62v6.17h-7.62Z"/><path class="d" d="M1503.31,269.66v-6.36h55.44v6.36h-55.44Zm43.53-13.99c-3.91,2.23-9.18,3.34-15.81,3.34s-11.95-1.09-15.81-3.28c-3.86-2.18-5.8-5.06-5.8-8.63,0-3.32,1.93-6.11,5.8-8.38,3.86-2.27,9.13-3.4,15.81-3.4s11.91,1.11,15.81,3.34c3.91,2.23,5.86,5.04,5.86,8.44s-1.95,6.34-5.86,8.57Zm-36.79,34.02v-15.81h7.81v9.45h35.78v6.36h-43.6Zm30.59-46.68c-2.58-1.13-5.79-1.7-9.61-1.7s-6.94,.56-9.61,1.67c-2.67,1.11-4,2.49-4,4.13s1.24,2.92,3.72,4.09c2.48,1.18,5.77,1.76,9.89,1.76s7.39-.58,9.83-1.73c2.44-1.15,3.65-2.51,3.65-4.06,0-1.64-1.29-3.02-3.87-4.16Z"/><path class="d" d="M243.25,357.62c-1.18-.42-2.44-.97-3.78-1.64-1.34-.67-2.79-1.55-4.35-2.65-1.18-.84-2.23-1.7-3.15-2.58s-1.81-1.83-2.65-2.83c-.55,1.13-1.32,2.24-2.33,3.31-1.01,1.07-2.18,2.13-3.53,3.18-1.47,1.18-2.91,2.16-4.32,2.96-1.41,.8-2.64,1.45-3.69,1.95l-5.17-5.17c1.6-.71,3.28-1.61,5.04-2.68s3.51-2.45,5.23-4.13c1.43-1.39,2.59-3.03,3.5-4.95,.9-1.91,1.35-4,1.35-6.27v-4.35h7.75v4.35c0,2.23,.46,4.25,1.39,6.08s2.16,3.39,3.72,4.69c1.6,1.3,3.15,2.37,4.66,3.21,1.51,.84,3.04,1.51,4.6,2.02l-4.28,5.48Zm-21.92,27.59v-14.55h32.19v-3.34h-32.19v-5.8h40v14.49l-32.26,.06v3.34l33.64-.06v5.86h-41.39Zm32.82-25.89v-28.92h7.31v28.92h-7.31Z"/><path class="d" d="M299.32,366v19.84h-7.56v-19.84h-23.75v-6.36h55.44v6.36h-24.13Zm-6.36-19.69c-1.39,1.28-3.07,2.51-5.04,3.69-2.27,1.34-4.55,2.42-6.84,3.21-2.29,.8-4.04,1.32-5.26,1.57l-4.47-5.29c1.47-.34,3.51-.97,6.11-1.89,2.6-.92,5.06-2.16,7.37-3.72,2.39-1.6,4.12-3.41,5.17-5.45,1.05-2.04,1.57-4.06,1.57-6.08v-1.95h8.32v1.95c0,2.02,.54,4.04,1.61,6.08,1.07,2.04,2.8,3.85,5.2,5.45,2.35,1.55,4.83,2.79,7.43,3.72,2.6,.92,4.62,1.55,6.05,1.89l-4.47,5.29c-1.22-.25-2.97-.78-5.26-1.57-2.29-.8-4.57-1.87-6.84-3.21-1.93-1.18-3.61-2.4-5.04-3.69-1.43-1.28-2.37-2.36-2.83-3.24-.46,.88-1.39,1.96-2.77,3.24Z"/><path class="d" d="M325.97,361.09v-5.54h55.44v5.54h-55.44Zm6.93-21.8h32.76v-2.96h-32.76v-5.23h41.01v13.1h-32.76v2.83h34.02v5.29h-42.27v-13.04Zm0,32.89h32.76v-2.96h-32.76v-5.23h41.01v13.1h-32.76v2.83h34.02v5.29h-42.27v-13.04Z"/><path class="d" d="M408.94,362.6v-30.18h7.31v8.88h13.8v-8.88h7.31v30.18h-28.41Zm6.3,21.99v-17.26h7.43v10.9h33.45v6.36h-40.89Zm14.8-36.79h-13.8v8.38h13.8v-8.38Zm24.25,4.28v18.46h-7.31v-40.13h7.31v15.06h7.62v6.61h-7.62Z"/><path class="d" d="M463.94,365.18v-6.36h23.81v-5.23h-16.88v-22.74h7.31v5.42h26.96v-5.42h7.31v22.74h-16.88v5.23h23.81v6.36h-55.44Zm41.08,20.66v-10.33h-34.78v-6.36h42.21v16.7h-7.43Zm.13-43.47h-26.96v4.85h26.96v-4.85Z"/><path class="d" d="M523.04,349.94v-6.36h34.78v6.36h-34.78Zm28.82,24.38c-2.88,2.73-6.63,4.09-11.25,4.09s-8.46-1.34-11.4-4.03c-2.94-2.69-4.41-5.69-4.41-9.01s1.46-6.38,4.38-8.95c2.92-2.56,6.75-3.84,11.5-3.84s8.31,1.27,11.18,3.81c2.88,2.54,4.32,5.53,4.32,8.98,0,3.23-1.44,6.22-4.32,8.95Zm-20.63-35.41v-6.11h18.46v6.11h-18.46Zm3.4,21.86c-1.43,1.34-2.14,2.9-2.14,4.66s.71,3.21,2.14,4.6c1.43,1.39,3.44,2.08,6.05,2.08s4.44-.69,5.89-2.08,2.17-2.92,2.17-4.6c0-1.81-.72-3.37-2.17-4.69-1.45-1.32-3.41-1.98-5.89-1.98-2.6,0-4.62,.67-6.05,2.02Zm35.97-1.57v26.65h-7.31v-55.44h7.31v22.05h7.94v6.74h-7.94Z"/><path class="d" d="M605.25,347.54c-.67,4.41-1.87,8.36-3.59,11.84-2.06,4.2-4.46,7.8-7.21,10.8-2.75,3-5.24,5.28-7.47,6.84l-5.54-3.91c1.81-1.22,3.9-3.09,6.27-5.61s4.34-5.14,5.89-7.88c1.76-3.07,2.98-6.09,3.65-9.07,.67-2.98,1.09-5.46,1.26-7.43h-14.05v-6.24h21.8c0,2.69-.34,6.24-1.01,10.65Zm7.88,35.78v-24.89h-7.12v-7.18h7.12v-19.59h7.06v51.66h-7.06Zm11.78,2.52v-55.44h7.06v55.44h-7.06Z"/><path class="d" d="M692.57,375.92c-4.28,.31-9.74,.47-16.38,.47h-14.62v-6.43h16.69v-10.14h-11.91v-24.51h30.74v6.36h-23.44v11.78h24.07v6.36h-11.97v9.95c2.48-.04,5.24-.16,8.29-.35,3.04-.19,5.62-.43,7.72-.72v6.43c-1.85,.21-4.91,.47-9.2,.79Zm11.53,9.92v-55.44h7.31v55.44h-7.31Z"/><path class="d" d="M717.83,363.35v-6.36h55.44v6.36h-55.44Zm6.93-12.54v-19.91h7.31v13.54h35.03v6.36h-42.34Zm0,33.77v-16.88h7.31v10.52h36.1v6.36h-43.41Z"/><path class="d" d="M829.69,372.74c-4.01,.5-8.39,.78-13.13,.82l-13.99,.06v-37.23h28.67v6.3h-21.36v24.38h9.95c2.81-.08,6.16-.32,10.05-.72,3.88-.4,6.08-.64,6.58-.72v6.3c-.5,.04-2.76,.31-6.77,.82Zm10.93,13.1v-55.44h7.31v55.44h-7.31Z"/><path class="d" d="M859.01,342.44v-6.36h32v6.36h-12.16v2.33c0,1.55,.3,3.96,.91,7.21,.61,3.26,1.88,6.18,3.81,8.79,1.72,2.27,3.52,4.12,5.39,5.54,1.87,1.43,3.24,2.39,4.13,2.9l-4.73,5.48c-.55-.34-1.6-1.02-3.15-2.05-1.55-1.03-3.13-2.4-4.73-4.13-1.22-1.34-2.26-2.69-3.12-4.03-.86-1.34-1.63-2.67-2.3-3.97-.63,1.55-1.43,3.07-2.39,4.54-.97,1.47-2.18,3.02-3.65,4.66-1.26,1.39-2.53,2.58-3.81,3.59-1.28,1.01-2.7,2.04-4.25,3.09l-6.05-4.79c2.48-1.55,4.76-3.3,6.84-5.23,2.08-1.93,3.81-4.05,5.2-6.36,1.55-2.6,2.64-5.41,3.24-8.41,.61-3,.91-5.28,.91-6.84v-2.33h-12.1Zm46.05,16.32v27.09h-7.31v-55.44h7.31v21.42h7.81v6.93h-7.81Z"/><path class="d" d="M943.09,336.3c2.92,2.79,4.38,6.14,4.38,10.05s-1.46,7.24-4.38,10.02c-2.92,2.77-6.63,4.16-11.12,4.16s-8.19-1.39-11.09-4.16c-2.9-2.77-4.35-6.11-4.35-10.02s1.45-7.25,4.35-10.05c2.9-2.79,6.59-4.19,11.09-4.19s8.2,1.4,11.12,4.19Zm-17.01,4.5c-1.37,1.55-2.05,3.4-2.05,5.54s.68,3.93,2.05,5.48c1.36,1.55,3.33,2.33,5.89,2.33s4.59-.78,5.95-2.33c1.36-1.55,2.05-3.38,2.05-5.48s-.68-3.99-2.05-5.54c-1.37-1.55-3.35-2.33-5.95-2.33s-4.53,.78-5.89,2.33Zm-1.42,43.79v-17.77h7.62v11.4h34.27v6.36h-41.9Zm33.33-14.11v-40.07h7.31v40.07h-7.31Z"/><path class="d" d="M1001.9,340.01c2.77,3.8,4.16,8.83,4.16,15.09s-1.39,11.21-4.16,14.99c-2.77,3.78-6.53,5.67-11.28,5.67s-8.46-1.89-11.28-5.67-4.22-8.78-4.22-14.99,1.41-11.39,4.22-15.15c2.81-3.76,6.57-5.64,11.28-5.64s8.5,1.9,11.28,5.7Zm-5.17,5.1c-1.43-2.88-3.44-4.32-6.05-4.32s-4.59,1.45-6.08,4.35c-1.49,2.9-2.24,6.2-2.24,9.89s.75,7.05,2.24,9.92c1.49,2.88,3.52,4.32,6.08,4.32s4.62-1.43,6.05-4.28c1.43-2.86,2.14-6.17,2.14-9.95s-.71-7.05-2.14-9.92Zm19.09,40.73v-55.44h7.25v55.44h-7.25Z"/><path class="d" d="M1057.4,363.89c-3.99,.31-7.88,.47-11.66,.47l-12.98,.06v-18.65h20.66v-6.49h-20.66v-6.24h27.97v18.9h-20.66v6.3l8.69-.06c2.69,0,5.82-.15,9.39-.44,3.57-.29,6.36-.57,8.38-.82v6.05c-2.1,.29-5.15,.6-9.13,.91Zm-18.71,20.7v-15.88h7.5v9.51h33.77v6.36h-41.26Zm39.44-31.06v17.58h-7.31v-40.7h7.31v16.88h7.81v6.24h-7.81Z"/><path class="d" d="M1113.66,385.53v-8.88h9.07v8.88h-9.07Zm6.55-15.37h-4.09l-1.95-15.37v-24h7.94v24l-1.89,15.37Z"/><path class="d" d="M242.94,454.97c-1.01-.38-2.1-.86-3.28-1.45-1.18-.59-2.61-1.47-4.28-2.65-1.26-.88-2.34-1.8-3.25-2.74s-1.58-1.77-2.05-2.49c-.5,.92-1.23,1.87-2.17,2.83-.95,.97-2.03,1.95-3.24,2.96-1.39,1.18-2.91,2.23-4.57,3.15-1.66,.92-3.16,1.62-4.5,2.08l-4.98-5.67c1.55-.5,3.47-1.35,5.76-2.55s4.21-2.59,5.76-4.19c1.47-1.47,2.49-3,3.06-4.6,.57-1.6,.85-2.88,.85-3.84v-1.07h-10.65v-6.49h29.11v6.49h-10.65v1.07c0,.92,.31,2.13,.94,3.62,.63,1.49,1.58,2.85,2.83,4.06,1.72,1.64,3.38,2.88,4.98,3.72,1.6,.84,3.04,1.45,4.35,1.83l-4.03,5.92Zm14.65,23.37c-3.68,2.1-9.02,3.15-16.03,3.15s-12.31-1.04-16-3.12c-3.7-2.08-5.54-4.78-5.54-8.1s1.85-5.93,5.54-8.1c3.7-2.16,9.03-3.24,16-3.24s12.36,1.07,16.03,3.21c3.67,2.14,5.51,4.85,5.51,8.13s-1.84,5.96-5.51,8.06Zm-25.7-4.13c2.42,1.03,5.66,1.54,9.73,1.54s7.21-.5,9.67-1.51,3.69-2.31,3.69-3.91c0-1.68-1.23-3.01-3.69-4-2.46-.99-5.68-1.48-9.67-1.48s-7.32,.48-9.73,1.45c-2.42,.97-3.62,2.29-3.62,3.97s1.21,2.91,3.62,3.94Zm23.22-15.78v-14.68h-11.03v-6.36h11.03v-12.1h7.31v33.14h-7.31Z"/><path class="d" d="M270.97,452.07v-23.88h27.85v23.88h-27.85Zm6.05,28.03v-14.74h31.63v-3.4h-31.63v-5.86h39.06v14.68h-31.69v3.4h33.08v5.92h-40.45Zm14.55-45.68h-13.29v11.4h13.29v-11.4Zm24.57,8.06v11.09h-7.31v-28.29h7.31v10.84h7.69v6.36h-7.69Z"/><path class="d" d="M375.58,449.27c-3.04,2.42-6.54,3.62-10.49,3.62s-7.39-1.2-10.46-3.59c-3.07-2.39-4.6-5.54-4.6-9.45s1.52-6.99,4.57-9.39c3.04-2.39,6.54-3.59,10.49-3.59s7.44,1.2,10.49,3.59c3.04,2.39,4.57,5.52,4.57,9.39s-1.52,7-4.57,9.42Zm-18.11,30.84v-14.74h31.69v-3.4h-31.69v-5.86h39.25v14.68h-31.75v3.4h33.14v5.92h-40.64Zm12.88-44.95c-1.53-1.24-3.29-1.86-5.26-1.86s-3.73,.63-5.26,1.89-2.3,2.77-2.3,4.54,.77,3.36,2.3,4.66c1.53,1.3,3.29,1.95,5.26,1.95s3.73-.65,5.26-1.95c1.53-1.3,2.3-2.86,2.3-4.66s-.77-3.33-2.3-4.57Zm26.37,7.78v11.59h-7.31v-29.23h7.31v11.03h7.62v6.61h-7.62Z"/><path class="d" d="M435.31,467.63c-4.01,.5-8.39,.78-13.14,.82l-12.73,.06v-37.23h27.4v6.3h-20.1v24.38h8.69c2.81-.08,6.16-.32,10.05-.72,3.88-.4,6.08-.64,6.58-.72v6.3c-.5,.04-2.76,.31-6.77,.82Zm26.43-20.48v6.61h-8.25v26.96h-7.31v-55.44h7.31v21.86h8.25Z"/><path class="d" d="M494.12,443.25c-1.3,4.83-3.4,9.14-6.3,12.92-2.77,3.65-5.62,6.71-8.54,9.17-2.92,2.46-5.91,4.46-8.98,6.02l-5.54-4.28c2.77-1.47,5.58-3.28,8.41-5.42,2.84-2.14,5.3-4.62,7.4-7.43,2.35-3.11,4.04-6.07,5.07-8.88,1.03-2.81,1.63-5.4,1.79-7.75h-19.21v-6.3h27.85c0,3.15-.65,7.14-1.95,11.97Zm18.14,10.96v26.52h-7.31v-55.44h7.31v22.24h8.19v6.68h-8.19Z"/><path class="d" d="M521.9,474.62v-6.36h23.75v-11.34h-16.51v-26.9h41.45v6.36h-33.89v14.18h34.33v6.36h-17.58v11.34h23.88v6.36h-55.44Z"/><path class="d" d="M601.91,474.69v-6.36h23.75v-11.91h-16.25v-26.4h40.51v26.4h-16.44v11.91h23.88v6.36h-55.44Zm40.7-38.3h-25.89v13.73h25.89v-13.73Z"/><path class="d" d="M659.87,474.43v-6.36h55.44v6.36h-55.44Zm7.25-12.85v-19.28h33.01v-6.61h-33.01v-6.36h40.7v19.21h-33.01v6.68h34.4v6.36h-42.08Z"/><path class="d" d="M743.72,438.15c-.92,3.78-2.65,7.08-5.17,9.89-2.52,2.81-5.03,5.01-7.53,6.58s-4.88,2.83-7.15,3.75l-4.6-4.73c2.06-.8,4.24-1.92,6.55-3.37,2.31-1.45,4.18-2.95,5.61-4.5,1.8-1.97,3.1-3.78,3.87-5.42,.78-1.64,1.29-3.32,1.54-5.04h-14.11v-6.3h22.37c0,2.31-.46,5.35-1.39,9.14Zm25.52,42.59c-1.09-.59-2.16-1.25-3.21-1.98-1.05-.74-2.04-1.61-2.96-2.61-.92-1.01-1.71-1.97-2.36-2.9-.65-.92-1.17-1.78-1.54-2.58-.46,.88-1.03,1.77-1.7,2.68-.67,.9-1.45,1.84-2.33,2.8-.71,.67-1.64,1.46-2.77,2.36-1.13,.9-2.29,1.65-3.47,2.24-1.09-.63-2.22-1.39-3.37-2.27-1.16-.88-2.11-1.66-2.87-2.33-.88-.92-1.67-1.85-2.36-2.77-.69-.92-1.27-1.83-1.73-2.71-.38,.8-.92,1.66-1.64,2.58-.71,.92-1.55,1.91-2.52,2.96-.97,.97-1.98,1.82-3.06,2.55-1.07,.73-2.15,1.4-3.25,1.98l-4.6-4.54c1.43-.76,2.81-1.68,4.16-2.77,1.34-1.09,2.54-2.27,3.59-3.53,1.22-1.51,2.13-3.03,2.74-4.57,.61-1.53,.91-3.08,.91-4.63v-1.51h7.31v1.51c0,1.3,.22,2.61,.66,3.94,.44,1.32,1.06,2.59,1.86,3.81,.59,.92,1.25,1.77,1.98,2.55,.73,.78,1.44,1.44,2.11,1.98,.71-.55,1.43-1.2,2.14-1.95,.71-.76,1.39-1.6,2.02-2.52,.8-1.26,1.43-2.55,1.89-3.87,.46-1.32,.69-2.64,.69-3.94v-1.51h7.25v1.51c0,1.55,.27,3.12,.82,4.69s1.41,3.1,2.58,4.57c1.01,1.3,2.14,2.48,3.4,3.53,1.26,1.05,2.65,1.93,4.16,2.65l-4.54,4.6Zm-17.83-24v-10.46h-7.12v-6.49h7.12v-13.55h7.06v30.49h-7.06Zm11.78,0v-31.44h7.06v31.44h-7.06Z"/><path class="d" d="M775.79,454.34v-6.17h55.44v6.17h-55.44Zm24.32-16c-1.64,1.3-3.51,2.44-5.61,3.4-2.18,1.01-4.26,1.79-6.24,2.33-1.97,.55-3.65,.97-5.04,1.26l-4.22-4.98c1.51-.34,3.53-.89,6.05-1.67,2.52-.78,4.96-1.82,7.31-3.12,2.23-1.22,3.94-2.62,5.13-4.22,1.2-1.6,1.8-3.13,1.8-4.6v-1.58h8.57v1.58c0,1.47,.57,3,1.7,4.6,1.13,1.6,2.79,3,4.98,4.22,2.35,1.3,4.79,2.34,7.31,3.12,2.52,.78,4.54,1.33,6.05,1.67l-4.22,4.98c-1.39-.29-3.06-.71-5.01-1.26-1.95-.55-4.04-1.32-6.27-2.33-2.1-.97-3.97-2.1-5.61-3.4-1.64-1.3-2.75-2.39-3.34-3.28-.59,.88-1.7,1.97-3.34,3.28Zm-17.39,41.77v-22.55h7.43v4.91h26.71v-4.91h7.43v22.55h-41.58Zm34.15-11.59h-26.71v5.48h26.71v-5.48Z"/><path class="d" d="M865.31,467.38c-2.94,.34-5.88,.55-8.82,.63-3.19,.13-6.9,.19-11.12,.19h-6.77v-38.05h7.31v31.5l10.77-.06c2.48-.08,5.22-.27,8.22-.57,3-.29,5.53-.61,7.59-.95v6.36c-1.85,.29-4.24,.61-7.18,.95Zm11.21,13.36v-55.44h7.31v55.44h-7.31Z"/><path class="d" d="M921.04,467.63c-4.01,.5-8.39,.78-13.13,.82l-12.73,.06v-37.23h27.41v6.3h-20.1v24.38h8.69c2.81-.08,6.16-.32,10.05-.72,3.88-.4,6.08-.64,6.58-.72v6.3c-.5,.04-2.76,.31-6.77,.82Zm26.43-20.48v6.61h-8.25v26.96h-7.31v-55.44h7.31v21.86h8.25Z"/><path class="d" d="M953.01,479.22v-9.07h9.45v9.07h-9.45Z"/><path class="d" d="M210.05,662.89v-6.36h36.98c.54-2.81,1.29-7.34,2.24-13.58,.94-6.24,1.5-11.1,1.67-14.58h-34.96v-6.36h42.97c0,1.68-.18,4.33-.54,7.94-.36,3.61-.77,6.99-1.23,10.14-.55,3.82-1.08,7.12-1.61,9.89-.53,2.77-.91,4.96-1.17,6.55h11.09v6.36h-55.44Z"/><path class="d" d="M295.42,648.56c-3.99,.31-7.88,.47-11.66,.47l-12.03,.06v-18.65h19.72v-6.49h-19.72v-6.24h27.03v18.9h-19.72v6.3l7.75-.06c2.69,0,5.82-.15,9.39-.44,3.57-.29,6.36-.57,8.38-.82v6.05c-2.1,.29-5.15,.6-9.13,.91Zm-17.64,20.7v-16.06h7.56v9.7h34.65v6.36h-42.21Zm33.64-13.48v-21.55h-9.7v-6.68h9.7v-12.47h7.31v40.7h-7.31Z"/><path class="d" d="M349.41,658.16c-2.1,.21-5.08,.34-8.95,.38l-9.83,.06v-37.11h19.78v6.87h-12.47v23.37h5.54c1.97-.04,3.97-.15,5.99-.31,2.02-.17,3.49-.31,4.41-.44v6.68c-.88,.13-2.37,.29-4.47,.5Zm8.44,9.83v-25.83h-9.58v-6.8h9.58v-19.03h7.06v51.66h-7.06Zm12.41,2.52v-55.44h7.06v55.44h-7.06Z"/><path class="d" d="M387.27,669v-9.07h9.45v9.07h-9.45Z"/><path class="d" d="M406.11,669v-9.07h9.45v9.07h-9.45Z"/><path class="d" d="M424.94,669v-9.07h9.45v9.07h-9.45Z"/><path class="d" d="M239.73,846.93c-2.94,.34-5.88,.55-8.82,.63-3.19,.13-6.7,.19-10.52,.19h-6.11v-38.05h7.31v31.5l9.51-.06c2.48-.08,5.22-.27,8.22-.57,3-.29,5.53-.61,7.59-.95v6.36c-1.85,.29-4.24,.61-7.18,.94Zm18.58-42.08v21.67h8.19v6.62h-8.19v27.15h-7.31v-55.44h7.31Z"/><path class="d" d="M270.97,835.84v-27.78h27.91v27.78h-27.91Zm6.17,23.18v-17.96h7.43v11.59h33.39v6.36h-40.82Zm14.49-44.54h-13.36v14.93h13.36v-14.93Zm24.51,11.78v18.65h-7.31v-40.07h7.31v14.87h7.69v6.55h-7.69Z"/><path class="d" d="M350.73,818.58v-5.61h35.22v5.61h-35.22Zm29.14,17.14c-2.83,1.64-6.69,2.46-11.56,2.46-4.58,0-8.36-.82-11.34-2.46-2.98-1.64-4.47-3.78-4.47-6.43s1.48-4.75,4.44-6.3c2.96-1.55,6.79-2.33,11.5-2.33s8.7,.78,11.5,2.33c2.79,1.55,4.19,3.65,4.19,6.3s-1.42,4.79-4.25,6.43Zm-20.82-25.58v-5.61h18.52v5.61h-18.52Zm0,49.52v-18.46h40.57v18.46h-40.57Zm15.21-32.89c-1.41-.55-3.35-.82-5.83-.82s-4.4,.28-5.89,.85c-1.49,.57-2.24,1.4-2.24,2.49s.75,1.95,2.24,2.58c1.49,.63,3.45,.95,5.89,.95s4.42-.34,5.83-1.01c1.41-.67,2.11-1.53,2.11-2.58s-.7-1.91-2.11-2.46Zm17.8,20.29h-25.58v6.62h25.58v-6.62Zm.38-9.13v-33.08h7.31v33.08h-7.31Z"/><path class="d" d="M405.98,833.2v-6.11h55.44v6.11h-55.44Zm6.93-26.77h41.58v6.11h-34.08v4.98h34.71v6.11h-42.21v-17.2Zm0,53.23v-14.18h33.64v-3.21h-33.64v-5.86h41.58v14.17h-33.71v3.21h35.03v5.86h-42.9Z"/><path class="d" d="M507.35,816.38v-11.53h7.31v31.31h-7.31v-12.98h-10.9c-.76,2.98-2.47,5.47-5.13,7.47-2.67,2-5.91,2.99-9.73,2.99-4.45,0-8.11-1.32-10.96-3.97-2.86-2.65-4.28-5.84-4.28-9.58s1.43-6.95,4.28-9.64c2.86-2.69,6.51-4.03,10.96-4.03,3.7,0,6.86,.94,9.48,2.83,2.62,1.89,4.36,4.26,5.2,7.12h11.09Zm7.81,43.91c-1.09-.59-2.13-1.25-3.12-1.98-.99-.74-1.94-1.61-2.87-2.61-.92-1.01-1.72-1.97-2.39-2.9-.67-.92-1.18-1.78-1.51-2.58-.5,.88-1.09,1.77-1.76,2.68-.67,.9-1.45,1.84-2.33,2.8-.71,.67-1.63,1.46-2.74,2.36-1.11,.9-2.28,1.65-3.5,2.24-1.05-.63-2.15-1.39-3.31-2.27-1.16-.88-2.11-1.66-2.87-2.33-.88-.92-1.68-1.85-2.39-2.77-.71-.92-1.3-1.83-1.76-2.71-.34,.8-.87,1.66-1.61,2.58-.74,.92-1.59,1.91-2.55,2.96-.97,.97-1.97,1.82-3.02,2.55-1.05,.73-2.12,1.4-3.21,1.98l-4.54-4.73c1.55-.71,2.98-1.61,4.28-2.68,1.3-1.07,2.48-2.26,3.53-3.56,1.13-1.47,1.99-2.94,2.58-4.41,.59-1.47,.88-2.96,.88-4.47v-2.02h7.31v2.02c0,1.3,.21,2.56,.63,3.78,.42,1.22,1.03,2.44,1.83,3.65,.59,.97,1.25,1.85,1.98,2.65,.73,.8,1.46,1.47,2.17,2.02,.71-.55,1.45-1.22,2.21-2.02,.76-.8,1.45-1.68,2.08-2.65,.8-1.22,1.41-2.44,1.83-3.65,.42-1.22,.63-2.48,.63-3.78v-2.02h7.25v2.02c0,1.51,.27,3,.82,4.47,.55,1.47,1.36,2.94,2.46,4.41,.97,1.3,2.09,2.49,3.37,3.56,1.28,1.07,2.68,1.96,4.19,2.68l-4.54,4.73Zm-28-45.27c-1.32-1.45-3.18-2.17-5.58-2.17s-4.2,.72-5.54,2.17c-1.34,1.45-2.02,3.14-2.02,5.07s.67,3.61,2.02,5.04c1.34,1.43,3.19,2.14,5.54,2.14s4.25-.71,5.58-2.14c1.32-1.43,1.98-3.11,1.98-5.04s-.66-3.62-1.98-5.07Z"/><path class="d" d="M550.94,836.41c-3.82,.34-7.79,.53-11.91,.57l-13.54,.13v-28.79h28.6v6.49h-21.29v15.81l8.25-.06c3.57-.04,7.03-.2,10.4-.47,3.36-.27,5.69-.56,6.99-.85v6.24c-1.18,.29-3.67,.61-7.5,.94Zm-19.15,22.62v-18.46h7.43v12.1h34.33v6.36h-41.77Zm33.2-14.11v-19.66h-15.18v-6.43h15.18v-13.99h7.31v40.07h-7.31Z"/><path class="d" d="M632.25,819.46c-1.74,4.24-4.11,7.69-7.09,10.33-3.11,2.81-6.09,5.05-8.95,6.71-2.86,1.66-5.4,2.85-7.62,3.56l-4.79-4.72c2.23-.76,4.64-1.85,7.25-3.28,2.6-1.43,5.1-3.11,7.5-5.04,2.48-2.06,4.28-4.14,5.42-6.24,1.13-2.1,1.85-4.14,2.14-6.11h-19.03v-6.36h27.78c0,3.19-.87,6.91-2.61,11.15Zm19.69,40.89c-1.39-.34-3.1-.91-5.13-1.73-2.04-.82-4.06-1.92-6.08-3.31-1.89-1.34-3.54-2.73-4.95-4.16-1.41-1.43-2.28-2.56-2.61-3.4-.29,.84-1.16,1.97-2.58,3.4-1.43,1.43-3.09,2.81-4.98,4.16-2.02,1.39-4.04,2.49-6.08,3.31s-3.75,1.4-5.13,1.73l-4.47-5.17c1.43-.34,3.56-1.09,6.39-2.27,2.83-1.18,5.24-2.6,7.21-4.28,1.85-1.6,3.2-3.21,4.06-4.85,.86-1.64,1.29-3.34,1.29-5.1v-2.08h8.57v2.08c0,1.76,.44,3.46,1.32,5.1,.88,1.64,2.23,3.26,4.03,4.85,1.97,1.68,4.38,3.11,7.21,4.28,2.83,1.18,4.97,1.93,6.39,2.27l-4.47,5.17Zm-5.99-17.58v-16.82h-10.58v-6.61h10.58v-14.49h7.31v37.93h-7.31Z"/><path class="d" d="M690.05,814.46c2.77,3.8,4.16,8.83,4.16,15.09s-1.39,11.21-4.16,14.99c-2.77,3.78-6.53,5.67-11.28,5.67s-8.46-1.89-11.28-5.67c-2.81-3.78-4.22-8.78-4.22-14.99s1.41-11.39,4.22-15.15c2.81-3.76,6.57-5.64,11.28-5.64s8.5,1.9,11.28,5.7Zm-5.17,5.1c-1.43-2.88-3.44-4.32-6.05-4.32s-4.59,1.45-6.08,4.35c-1.49,2.9-2.24,6.2-2.24,9.89s.75,7.05,2.24,9.92c1.49,2.88,3.52,4.32,6.08,4.32s4.62-1.43,6.05-4.28c1.43-2.86,2.14-6.17,2.14-9.95s-.71-7.04-2.14-9.92Zm19.09,40.73v-55.44h7.25v55.44h-7.25Z"/><path class="d" d="M768.61,844.54c-2.77,3.78-6.53,5.67-11.28,5.67s-8.46-1.89-11.28-5.67c-2.81-3.78-4.22-8.78-4.22-14.99s1.41-11.39,4.22-15.15c2.81-3.76,6.57-5.64,11.28-5.64s8.5,1.9,11.28,5.7c2.77,3.8,4.16,8.83,4.16,15.09s-1.39,11.21-4.16,14.99Zm-5.2-24.98c-1.41-2.88-3.41-4.32-6.02-4.32s-4.65,1.45-6.14,4.35c-1.49,2.9-2.24,6.2-2.24,9.89s.75,7.05,2.24,9.92c1.49,2.88,3.54,4.32,6.14,4.32s4.61-1.43,6.02-4.28c1.41-2.86,2.11-6.17,2.11-9.95s-.7-7.04-2.11-9.92Zm25.04,14.21v26.52h-7.31v-55.44h7.31v21.92h7.88v6.99h-7.88Z"/><path class="d" d="M829.4,846.93c-2.94,.34-5.88,.55-8.82,.63-3.19,.13-6.9,.19-11.12,.19h-6.77v-38.05h7.31v31.5l10.77-.06c2.48-.08,5.22-.27,8.22-.57,3-.29,5.53-.61,7.59-.95v6.36c-1.85,.29-4.24,.61-7.18,.94Zm11.21,13.36v-55.44h7.31v55.44h-7.31Z"/><path class="d" d="M883.43,848.76c-4.01,.34-7.84,.53-11.5,.57l-12.66,.13v-23.44h19.28v-9.77h-19.28v-6.43h26.59v22.49h-19.28v10.71l7.94-.06c2.69-.04,5.87-.22,9.54-.54,3.67-.31,6.46-.62,8.35-.91v6.3c-1.97,.29-4.97,.61-8.98,.95Zm20.38-15.44v26.96h-7.31v-55.44h7.31v21.86h8.06v6.62h-8.06Z"/><path class="d" d="M957.17,812.79v-7.94h7.31v40.07h-7.31v-14.36h-12.03v5.42h-27.28v-27.91h27.28v4.73h12.03Zm-33.64,46.24v-17.96h7.62v11.59h34.52v6.36h-42.15Zm14.36-44.54h-12.73v15.06h12.73v-15.06Zm19.28,9.7v-5.04h-12.03v5.04h12.03Z"/><path class="d" d="M984.63,854.81c0,1.43-.29,2.68-.88,3.75-.59,1.07-1.05,1.84-1.39,2.3-.76,1.05-1.67,1.81-2.74,2.27-1.07,.46-1.82,.73-2.24,.82l-2.08-2.58c.88-.08,1.9-.6,3.06-1.54,1.15-.94,1.79-1.86,1.92-2.74h-5.04v-7.81h9.39v5.54Z"/><path class="d" d="M1042.28,846.93c-2.94,.34-5.88,.55-8.82,.63-3.19,.13-6.7,.19-10.52,.19h-6.11v-38.05h7.31v31.5l9.51-.06c2.48-.08,5.22-.27,8.22-.57,3-.29,5.53-.61,7.59-.95v6.36c-1.85,.29-4.24,.61-7.18,.94Zm18.58-42.08v21.67h8.19v6.62h-8.19v27.15h-7.31v-55.44h7.31Z"/><path class="d" d="M1100.84,850.02c-4.05,.29-7.68,.48-10.87,.57l-19.21,.13v-6.43h15.12v-9.64c-3.74-.67-6.73-2.26-8.98-4.76-2.25-2.5-3.37-5.36-3.37-8.6,0-3.78,1.48-7.02,4.44-9.73s6.79-4.06,11.5-4.06,8.6,1.47,11.56,4.41c2.96,2.94,4.44,6.07,4.44,9.39s-1.1,6.04-3.31,8.54c-2.21,2.5-5.16,4.11-8.85,4.82v9.45c1.68,0,4.25-.14,7.72-.41,3.46-.27,6.35-.56,8.66-.85v6.43c-1.85,.21-4.8,.46-8.85,.76Zm-4.91-34.02c-1.49-1.51-3.64-2.27-6.46-2.27s-4.89,.76-6.36,2.27c-1.47,1.51-2.21,3.28-2.21,5.29s.73,3.72,2.21,5.23c1.47,1.51,3.61,2.27,6.43,2.27s4.96-.76,6.43-2.27c1.47-1.51,2.21-3.25,2.21-5.23s-.75-3.78-2.24-5.29Zm23.34,18.4v25.89h-7.31v-55.44h7.31v23.06h7.94v6.49h-7.94Z"/><path class="d" d="M1181.13,816.94c-1.55,3.44-3.84,6.43-6.87,8.95-3.32,2.77-6.68,4.74-10.08,5.89-3.4,1.16-6.26,2.01-8.57,2.55l-4.03-4.91c2.39-.5,4.88-1.21,7.46-2.11,2.58-.9,5.11-2.13,7.59-3.69,2.6-1.64,4.46-3.27,5.58-4.88,1.11-1.62,1.84-3.03,2.17-4.25h-19.59v-6.17h28.67c0,2.31-.78,5.19-2.33,8.63Zm-20.35,42.71v-23.5h39.19v5.8h-31.44v3.28h31.25v5.35h-31.25v3.28h32.7v5.8h-40.45Zm39.06-36.41v10.77h-7.31v-29.17h7.31v12.22h7.62v6.17h-7.62Z"/><path class="d" d="M1208.53,838.99v-6.36h55.44v6.36h-55.44Zm43.53-13.99c-3.91,2.23-9.18,3.34-15.81,3.34s-11.95-1.09-15.81-3.28c-3.86-2.18-5.8-5.06-5.8-8.63,0-3.32,1.93-6.11,5.8-8.38,3.86-2.27,9.13-3.4,15.81-3.4s11.91,1.11,15.81,3.34c3.91,2.23,5.86,5.04,5.86,8.44s-1.95,6.34-5.86,8.57Zm-36.79,34.02v-15.81h7.81v9.45h35.78v6.36h-43.6Zm30.59-46.68c-2.58-1.13-5.79-1.7-9.61-1.7s-6.94,.56-9.61,1.67c-2.67,1.11-4,2.49-4,4.13s1.24,2.92,3.72,4.1c2.48,1.18,5.77,1.76,9.89,1.76s7.39-.58,9.83-1.73c2.44-1.15,3.65-2.51,3.65-4.06,0-1.64-1.29-3.02-3.87-4.16Z"/><path class="d" d="M1320.67,849.64c-1.3-.76-2.71-1.67-4.22-2.74-1.51-1.07-3.07-2.47-4.66-4.19-1.22-1.34-2.25-2.63-3.09-3.87-.84-1.24-1.6-2.51-2.27-3.81-.67,1.55-1.51,3.01-2.52,4.38-1.01,1.37-2.25,2.89-3.72,4.57-1.22,1.39-2.48,2.58-3.78,3.59-1.3,1.01-2.73,2.04-4.28,3.09l-5.54-4.72c2.48-1.55,4.71-3.25,6.71-5.1,1.99-1.85,3.69-3.93,5.07-6.24,1.6-2.69,2.69-5.49,3.28-8.41,.59-2.92,.88-5.95,.88-9.1v-9.14h7.62v9.14c0,2.39,.31,5.37,.95,8.91,.63,3.55,1.91,6.63,3.84,9.23,1.72,2.27,3.46,4.13,5.23,5.58,1.76,1.45,3.51,2.66,5.23,3.62l-4.73,5.23Zm16.32-16.38v27.03h-7.31v-55.44h7.31v21.67h8v6.74h-8Z"/><path class="d" d="M1374.32,835.31c-3.97,.27-7.84,.43-11.62,.47l-13.1,.13v-17.26h20.79v-5.04h-20.79v-6.17h28.04v17.2h-20.73v5.1l8.82-.06c2.73,0,5.86-.15,9.39-.44,3.53-.29,6.3-.57,8.32-.82v6.05c-2.1,.29-5.13,.58-9.1,.85Zm-18.81,24.35v-19.72h39.44v19.72h-39.44Zm32.19-13.48h-24.88v7.31h24.88v-7.31Zm7.25-21.61v12.91h-7.31v-32.63h7.31v13.48h7.75v6.24h-7.75Z"/><path class="d" d="M1404.46,833.2v-6.11h55.44v6.11h-55.44Zm6.93-26.77h41.58v6.11h-34.08v4.98h34.71v6.11h-42.21v-17.2Zm0,53.23v-14.18h33.64v-3.21h-33.64v-5.86h41.58v14.17h-33.7v3.21h35.03v5.86h-42.9Z"/><path class="d" d="M1462.42,833.14v-5.99h55.44v5.99h-55.44Zm43.53-11.72c-3.91,1.68-9.18,2.52-15.81,2.52s-11.91-.85-15.81-2.55c-3.91-1.7-5.86-4.08-5.86-7.15,0-2.9,1.95-5.25,5.86-7.06,3.91-1.81,9.18-2.71,15.81-2.71s11.91,.92,15.81,2.77c3.91,1.85,5.86,4.18,5.86,6.99,0,3.11-1.95,5.5-5.86,7.18Zm4.98,29.29h-33.58v3.15h34.9v5.8h-42.9v-14.05h33.52v-3.15h-33.52v-5.8h41.58v14.05Zm-11.21-39.66c-2.65-.9-5.84-1.35-9.58-1.35s-6.98,.43-9.61,1.29c-2.62,.86-3.94,1.94-3.94,3.24,0,1.09,1.2,2.12,3.59,3.09,2.39,.97,5.71,1.45,9.95,1.45s7.45-.45,9.89-1.35c2.44-.9,3.65-1.92,3.65-3.06,0-1.3-1.32-2.4-3.97-3.31Z"/><path class="d" d="M243.28,935.52c-4.09,.25-7.09,.38-8.98,.38v18.02h-7.25v-17.96h-14.74v-6.43h17.14c3.7,0,8.16-.2,13.39-.6,5.23-.4,8.56-.75,9.99-1.04v6.49c-2.27,.5-5.45,.88-9.54,1.13Zm-6.46-34.3c1.6,.48,3,1.15,4.22,1.98,1.72,1.18,3.03,2.61,3.94,4.32,.9,1.7,1.35,3.48,1.35,5.32,0,1.68-.37,3.27-1.1,4.76-.74,1.49-1.8,2.78-3.18,3.87-1.26,1.05-2.77,1.87-4.54,2.46-1.76,.59-3.76,.88-5.98,.88-1.89,0-3.63-.22-5.23-.66-1.6-.44-3-1.06-4.22-1.86-1.68-1.13-2.99-2.52-3.94-4.16-.95-1.64-1.42-3.4-1.42-5.29s.43-3.52,1.29-5.13c.86-1.62,2.07-3.01,3.62-4.19,1.22-.97,2.67-1.71,4.35-2.24,1.68-.52,3.53-.79,5.54-.79s3.7,.24,5.29,.72Zm-10.9,7.21c-1.18,1.39-1.76,2.81-1.76,4.28s.59,2.89,1.76,4.25c1.18,1.37,3.04,2.05,5.61,2.05s4.48-.68,5.64-2.05c1.16-1.36,1.73-2.78,1.73-4.25s-.58-2.9-1.73-4.28c-1.16-1.39-3.03-2.08-5.64-2.08s-4.43,.69-5.61,2.08Zm28.79,46.75v-55.44h7.31v55.44h-7.31Z"/><path class="d" d="M268.58,919.83v-6.24h28.98v6.24h-28.98Zm24.13,23.53c-2.6,2.16-5.8,3.24-9.58,3.24-3.53,0-6.67-1.07-9.42-3.21-2.75-2.14-4.13-5.08-4.13-8.82s1.38-6.52,4.13-8.73c2.75-2.2,5.89-3.31,9.42-3.31,3.74,0,6.92,1.12,9.54,3.37,2.62,2.25,3.94,5.13,3.94,8.66s-1.3,6.63-3.91,8.79Zm-17.64-33.42v-6.05h15.81v6.05h-15.81Zm3.59,20.44c-1.22,1.03-1.83,2.47-1.83,4.32s.62,3.18,1.86,4.13c1.24,.95,2.72,1.42,4.44,1.42s3.24-.47,4.44-1.42c1.2-.94,1.8-2.34,1.8-4.19s-.58-3.22-1.73-4.25c-1.16-1.03-2.66-1.54-4.5-1.54s-3.26,.51-4.47,1.54Zm34.84,24.79v-26.21h-5.36v23.69h-7.06v-51.66h7.06v20.54h5.36v-21.8h7.06v55.44h-7.06Z"/><path class="d" d="M350.98,930.73v-27.78h27.91v27.78h-27.91Zm6.17,23.18v-17.96h7.43v11.59h33.39v6.36h-40.82Zm14.49-44.54h-13.36v14.93h13.36v-14.93Zm24.51,11.78v18.65h-7.31v-40.07h7.31v14.87h7.69v6.55h-7.69Z"/><path class="d" d="M405.98,928.09v-6.11h55.44v6.11h-55.44Zm6.93-26.77h41.58v6.11h-34.08v4.98h34.71v6.11h-42.21v-17.2Zm0,53.23v-14.18h33.64v-3.21h-33.64v-5.86h41.58v14.17h-33.71v3.21h35.03v5.86h-42.9Z"/><path class="d" d="M506.78,955.18v-28.1h-9.64c-.42,5.46-2,9.83-4.72,13.1-2.73,3.28-6.28,4.91-10.65,4.91-4.7,0-8.45-1.89-11.25-5.67-2.79-3.78-4.19-8.78-4.19-14.99s1.4-11.39,4.19-15.15c2.79-3.76,6.54-5.64,11.25-5.64,4.2,0,7.64,1.51,10.33,4.54s4.3,7.1,4.85,12.22h9.83v-20.66h7.31v55.44h-7.31Zm-18.9-40.73c-1.43-2.88-3.44-4.32-6.05-4.32s-4.59,1.45-6.08,4.35-2.24,6.2-2.24,9.89,.75,7.05,2.24,9.92c1.49,2.88,3.52,4.32,6.08,4.32s4.62-1.43,6.05-4.28c1.43-2.86,2.14-6.17,2.14-9.95s-.71-7.04-2.14-9.92Z"/><path class="d" d="M527.89,909.38v-6.49h29.11v6.49h-10.71v.82c0,2.23,.46,4.24,1.39,6.05,.92,1.81,2.16,3.36,3.72,4.66,1.6,1.3,3,2.29,4.22,2.96,1.22,.67,2.6,1.26,4.16,1.76l-4.41,5.67c-1.05-.38-2.11-.84-3.18-1.39-1.07-.54-2.38-1.36-3.94-2.46-1.18-.84-2.23-1.71-3.15-2.61-.92-.9-1.81-1.84-2.65-2.8-.59,1.05-1.35,2.11-2.3,3.18-.95,1.07-2.09,2.13-3.43,3.18-1.47,1.18-2.88,2.12-4.22,2.83-1.34,.71-2.54,1.32-3.59,1.83l-5.23-5.48c1.6-.67,3.21-1.49,4.85-2.46,1.64-.97,3.36-2.23,5.17-3.78,1.47-1.3,2.65-2.92,3.53-4.85,.88-1.93,1.32-4.03,1.32-6.3v-.82h-10.65Zm6.17,44.54v-18.08h7.43v11.72h34.02v6.36h-41.45Zm33.01-14.11v-40.07h7.31v40.07h-7.31Z"/><path class="d" d="M634.92,929.54c-1.18-.46-2.58-1.15-4.22-2.08-1.64-.92-3.15-1.97-4.54-3.15-1.13-.97-2.14-1.9-3.02-2.8-.88-.9-1.74-1.98-2.58-3.24-.71,1.3-1.58,2.56-2.58,3.78-1.01,1.22-2.16,2.39-3.47,3.53-1.55,1.34-2.91,2.42-4.06,3.21-1.16,.8-2.38,1.55-3.69,2.27l-5.17-5.1c1.6-.84,3.35-1.94,5.26-3.31,1.91-1.36,3.64-2.93,5.2-4.69,1.72-1.93,2.92-3.94,3.59-6.02,.67-2.08,1.01-4.34,1.01-6.77v-3.91h7.75v3.91c0,2.44,.38,4.66,1.13,6.68,.76,2.02,1.87,3.82,3.34,5.42,1.68,1.68,3.39,3.08,5.13,4.19,1.74,1.11,3.45,1.98,5.13,2.61l-4.22,5.48Zm12.95,23.25c-3.67,2.1-9.02,3.15-16.03,3.15s-12.31-1.04-16-3.12c-3.7-2.08-5.54-4.78-5.54-8.1s1.85-5.93,5.54-8.1c3.7-2.16,9.03-3.24,16-3.24s12.36,1.07,16.03,3.21,5.51,4.85,5.51,8.13-1.84,5.96-5.51,8.06Zm-25.77-4.13c2.46,1.03,5.72,1.54,9.8,1.54s7.23-.5,9.73-1.51c2.5-1.01,3.75-2.31,3.75-3.91,0-1.68-1.25-3.01-3.75-4-2.5-.99-5.74-1.48-9.73-1.48s-7.34,.48-9.8,1.45c-2.46,.97-3.69,2.29-3.69,3.97s1.23,2.91,3.69,3.94Zm29.45-29.7v13.17h-7.31v-32.38h7.31v12.6h7.5v6.61h-7.5Z"/><path class="d" d="M691.5,931.61v4.73h16.88v18.21h-41.58v-18.21h16.82v-4.73h-23.75v-6.36h55.44v6.36h-23.81Zm-26.59-15.94h8.38l-.57-8.38h-6.55v-6.24h42.84v6.24h-6.55l-.57,8.38h8.38v6.24h-45.36v-6.24Zm36.1,27.03h-26.84v5.42h26.84v-5.42Zm-20.98-35.41l.57,8.38h13.99l.57-8.38h-15.12Z"/><path class="d" d="M748.01,909.34c2.77,3.8,4.16,8.83,4.16,15.09s-1.39,11.21-4.16,14.99c-2.77,3.78-6.53,5.67-11.28,5.67s-8.46-1.89-11.28-5.67c-2.81-3.78-4.22-8.78-4.22-14.99s1.41-11.39,4.22-15.15c2.81-3.76,6.57-5.64,11.28-5.64s8.5,1.9,11.28,5.7Zm-5.17,5.1c-1.43-2.88-3.44-4.32-6.05-4.32s-4.59,1.45-6.08,4.35c-1.49,2.9-2.24,6.2-2.24,9.89s.75,7.05,2.24,9.92c1.49,2.88,3.52,4.32,6.08,4.32s4.62-1.43,6.05-4.28c1.43-2.86,2.14-6.17,2.14-9.95s-.71-7.04-2.14-9.92Zm19.09,40.73v-55.44h7.25v55.44h-7.25Z"/><path class="d" d="M805.46,941.82c-2.94,.34-5.88,.55-8.82,.63-3.19,.13-6.7,.19-10.52,.19h-6.11v-38.05h7.31v31.5l9.51-.06c2.48-.08,5.22-.27,8.22-.57,3-.29,5.53-.61,7.59-.95v6.36c-1.85,.29-4.24,.61-7.18,.94Zm18.58-42.08v21.67h8.19v6.62h-8.19v27.15h-7.31v-55.44h7.31Z"/><path class="d" d="M889.5,944.53c-1.3-.76-2.71-1.67-4.22-2.74-1.51-1.07-3.07-2.47-4.66-4.19-1.22-1.34-2.25-2.63-3.09-3.87-.84-1.24-1.6-2.51-2.27-3.81-.67,1.55-1.51,3.01-2.52,4.38-1.01,1.37-2.25,2.89-3.72,4.57-1.22,1.39-2.48,2.58-3.78,3.59-1.3,1.01-2.73,2.04-4.28,3.09l-5.54-4.72c2.48-1.55,4.71-3.25,6.71-5.1,1.99-1.85,3.69-3.93,5.07-6.24,1.6-2.69,2.69-5.49,3.28-8.41,.59-2.92,.88-5.95,.88-9.1v-9.14h7.62v9.14c0,2.39,.31,5.37,.95,8.91,.63,3.55,1.91,6.63,3.84,9.23,1.72,2.27,3.46,4.13,5.23,5.58,1.76,1.45,3.51,2.66,5.23,3.62l-4.73,5.23Zm10.4,10.65v-31h-11.15v-6.87h11.15v-17.58h7.31v55.44h-7.31Z"/><path class="d" d="M917.85,944.34v-39.88h7.31v12.6h14.17v-12.6h7.31v39.88h-28.79Zm21.48-20.92h-14.17v14.49h14.17v-14.49Zm17.2,31.75v-55.44h7.31v55.44h-7.31Z"/><path class="d" d="M971.72,948.12v-6.36h55.44v6.36h-55.44Zm24.73-24.73c-1.45,1.45-3.14,2.91-5.07,4.38-2.06,1.55-4.21,2.85-6.46,3.87-2.25,1.03-4.04,1.77-5.39,2.24l-4.72-5.1c1.97-.71,4.21-1.72,6.71-3.02,2.5-1.3,4.9-2.92,7.21-4.85,2.18-1.85,3.82-3.99,4.91-6.43,1.09-2.44,1.64-4.96,1.64-7.56v-4.1h8.32v4.1c0,2.6,.54,5.12,1.64,7.56,1.09,2.44,2.73,4.58,4.91,6.43,2.35,1.93,4.77,3.55,7.25,4.85,2.48,1.3,4.7,2.31,6.68,3.02l-4.72,5.1c-1.34-.46-3.14-1.21-5.39-2.24-2.25-1.03-4.4-2.32-6.46-3.87-1.93-1.47-3.6-2.93-5.01-4.38-1.41-1.45-2.43-2.82-3.06-4.13-.55,1.3-1.54,2.68-2.99,4.13Z"/><path class="d" d="M1059.86,917.69c-1.3,4.83-3.4,9.13-6.3,12.92-2.77,3.65-5.62,6.71-8.54,9.17-2.92,2.46-5.91,4.46-8.98,6.02l-5.54-4.28c2.77-1.47,5.58-3.28,8.41-5.42,2.84-2.14,5.3-4.62,7.4-7.43,2.35-3.11,4.04-6.07,5.07-8.88,1.03-2.81,1.63-5.4,1.79-7.75h-19.21v-6.3h27.85c0,3.15-.65,7.14-1.95,11.97Zm18.14,10.96v26.52h-7.31v-55.44h7.31v22.24h8.19v6.68h-8.19Z"/><path class="d" d="M1138.92,924.56c-2.86,2.65-6.51,3.97-10.96,3.97s-8.11-1.32-10.96-3.97-4.28-5.84-4.28-9.58,1.43-6.95,4.28-9.64c2.86-2.69,6.51-4.03,10.96-4.03s8.11,1.34,10.96,4.03c2.86,2.69,4.28,5.9,4.28,9.64s-1.43,6.93-4.28,9.58Zm22.55,30.62c-1.13-.59-2.2-1.25-3.18-1.98-.99-.74-1.94-1.61-2.87-2.61-.92-1.01-1.72-1.97-2.39-2.9-.67-.92-1.18-1.78-1.51-2.58-.5,.88-1.09,1.77-1.76,2.68-.67,.9-1.43,1.84-2.27,2.8-.76,.67-1.69,1.46-2.8,2.36-1.11,.9-2.26,1.65-3.43,2.24-1.09-.63-2.22-1.39-3.37-2.27-1.16-.88-2.11-1.66-2.87-2.33-.88-.92-1.67-1.85-2.36-2.77-.69-.92-1.27-1.83-1.73-2.71-.38,.8-.92,1.66-1.64,2.58-.71,.92-1.55,1.91-2.52,2.96-1.01,.97-2.03,1.82-3.06,2.55-1.03,.73-2.11,1.4-3.24,1.98l-4.54-4.73c1.55-.71,2.98-1.61,4.28-2.68,1.3-1.07,2.46-2.26,3.47-3.56,1.22-1.47,2.12-2.94,2.71-4.41,.59-1.47,.88-2.96,.88-4.47v-1.89h7.25v1.89c0,1.3,.21,2.56,.63,3.78,.42,1.22,1.03,2.44,1.83,3.65,.59,.97,1.26,1.85,2.02,2.65,.76,.8,1.49,1.47,2.21,2.02,.71-.55,1.44-1.22,2.17-2.02,.73-.8,1.42-1.68,2.05-2.65,.8-1.22,1.41-2.44,1.83-3.65,.42-1.22,.63-2.48,.63-3.78v-1.89h7.25v1.89c0,1.51,.28,3,.85,4.47,.57,1.47,1.38,2.94,2.43,4.41,1.01,1.3,2.14,2.49,3.4,3.56,1.26,1.07,2.65,1.96,4.16,2.68l-4.47,4.73Zm-27.94-45.27c-1.32-1.45-3.18-2.17-5.58-2.17s-4.2,.72-5.54,2.17c-1.34,1.45-2.02,3.14-2.02,5.07s.67,3.61,2.02,5.04c1.34,1.43,3.19,2.14,5.54,2.14s4.25-.71,5.58-2.14c1.32-1.43,1.98-3.11,1.98-5.04s-.66-3.62-1.98-5.07Zm20.38,21.07v-31.25h7.31v31.25h-7.31Z"/><path class="d" d="M1196.98,942.07c-4.01,.5-8.39,.78-13.14,.82l-12.73,.06v-37.23h27.41v6.3h-20.1v24.38h8.69c2.81-.08,6.16-.32,10.05-.72,3.88-.4,6.08-.64,6.58-.72v6.3c-.5,.04-2.76,.31-6.77,.82Zm26.43-20.48v6.62h-8.25v26.96h-7.31v-55.44h7.31v21.86h8.25Z"/><path class="d" d="M1269.02,907.67v-7.94h7.31v40.07h-7.31v-14.36h-12.03v5.42h-27.28v-27.91h27.28v4.73h12.03Zm-33.64,46.24v-17.96h7.62v11.59h34.52v6.36h-42.15Zm14.36-44.54h-12.73v15.06h12.73v-15.06Zm19.28,9.7v-5.04h-12.03v5.04h12.03Z"/><path class="d" d="M1349.02,910.76v-11.02h7.31v29.11h-7.31v-11.47h-11.34c-.8,3.02-2.59,5.44-5.39,7.24-2.79,1.81-5.89,2.71-9.29,2.71-3.91,0-7.39-1.2-10.46-3.59-3.07-2.39-4.6-5.54-4.6-9.45s1.52-6.99,4.57-9.39,6.54-3.59,10.49-3.59c3.32,0,6.34,.85,9.07,2.55,2.73,1.7,4.56,4,5.48,6.9h11.47Zm-20.76-1.17c-1.53-1.24-3.29-1.86-5.26-1.86s-3.73,.63-5.26,1.89c-1.53,1.26-2.3,2.77-2.3,4.54s.77,3.36,2.3,4.66c1.53,1.3,3.29,1.95,5.26,1.95s3.73-.65,5.26-1.95c1.53-1.3,2.3-2.86,2.3-4.66s-.77-3.33-2.3-4.57Zm-12.38,44.95v-14.74h32.51v-3.4h-32.51v-5.86h40.38v14.68h-32.57v3.4h33.96v5.92h-41.77Z"/><path class="d" d="M1366.66,943.52v-37.36h28.41v37.36h-28.41Zm21.17-31.06h-13.86v24.76h13.86v-24.76Zm23.5-12.73v21.1h8.06v6.87h-8.06v27.47h-7.31v-55.44h7.31Z"/><path class="d" d="M1451.21,941.82c-2.94,.34-5.88,.55-8.82,.63-3.19,.13-6.7,.19-10.52,.19h-6.11v-38.05h7.31v31.5l9.51-.06c2.48-.08,5.22-.27,8.22-.57,3-.29,5.53-.61,7.59-.95v6.36c-1.85,.29-4.24,.61-7.18,.94Zm18.58-42.08v21.67h8.19v6.62h-8.19v27.15h-7.31v-55.44h7.31Z"/><path class="d" d="M210.05,1021.9v-5.73h23.81v-4.85h7.81v4.85h23.81v5.73h-55.44Zm35.66-17.51c1.39,.84,2.92,1.6,4.6,2.27,1.89,.71,3.95,1.33,6.17,1.86,2.23,.53,4.05,.89,5.48,1.1l-4.28,4.85c-.97-.08-2.43-.34-4.38-.76-1.95-.42-4.11-1.03-6.46-1.83-2.06-.71-3.96-1.62-5.7-2.71-1.74-1.09-2.85-1.91-3.31-2.46-.55,.55-1.69,1.37-3.43,2.46-1.74,1.09-3.64,2-5.7,2.71-2.31,.8-4.45,1.41-6.43,1.83-1.97,.42-3.44,.67-4.41,.76l-4.28-4.85c1.43-.21,3.25-.58,5.48-1.1,2.23-.52,4.28-1.14,6.17-1.86,1.72-.67,3.27-1.43,4.63-2.27,1.36-.84,2.38-1.64,3.06-2.39h-16.38v-5.86h42.46v5.86h-16.38c.67,.76,1.7,1.55,3.09,2.39Zm-31.63,31.06v-5.04h47.5v5.04h-47.5Zm38.24,13.77c-4.37,1.2-9.18,1.8-14.43,1.8-5.8,0-10.75-.6-14.87-1.8-4.12-1.2-6.17-3.04-6.17-5.51s2.05-4.34,6.14-5.45c4.09-1.11,9.06-1.67,14.9-1.67,5.29,0,10.11,.56,14.46,1.67,4.35,1.11,6.52,2.93,6.52,5.45s-2.18,4.32-6.55,5.51Zm-27.97-20.57v-4.91h26.84v4.91h-26.84Zm21.14,13.29c-2.42-.21-4.95-.32-7.59-.32-2.94,0-5.55,.12-7.84,.35-2.29,.23-3.43,.83-3.43,1.8,0,.8,1.14,1.35,3.43,1.67,2.29,.31,4.9,.47,7.84,.47,2.65,0,5.18-.15,7.59-.44,2.42-.29,3.62-.86,3.62-1.7,0-1.01-1.21-1.62-3.62-1.83Z"/><path class="d" d="M268.01,1022.91v-5.98h55.44v5.98h-55.44Zm43.53-11.72c-3.91,1.68-9.18,2.52-15.81,2.52s-11.91-.85-15.81-2.55c-3.91-1.7-5.86-4.08-5.86-7.15,0-2.9,1.95-5.25,5.86-7.06,3.91-1.81,9.18-2.71,15.81-2.71s11.91,.92,15.81,2.77c3.91,1.85,5.86,4.18,5.86,6.99,0,3.11-1.95,5.5-5.86,7.18Zm4.98,29.29h-33.58v3.15h34.9v5.8h-42.9v-14.05h33.52v-3.15h-33.52v-5.8h41.58v14.05Zm-11.21-39.66c-2.65-.9-5.84-1.35-9.58-1.35s-6.98,.43-9.61,1.29c-2.62,.86-3.94,1.94-3.94,3.24,0,1.09,1.2,2.12,3.59,3.09,2.39,.97,5.71,1.45,9.95,1.45s7.46-.45,9.89-1.35c2.43-.9,3.65-1.92,3.65-3.06,0-1.3-1.32-2.4-3.97-3.31Z"/><path class="d" d="M345.06,1012.71c-.88,4.07-2.06,7.62-3.53,10.65-1.81,3.61-3.7,6.73-5.67,9.36-1.97,2.63-3.7,4.67-5.17,6.14l-6.36-2.96c1.47-1.34,3.17-3.24,5.1-5.7,1.93-2.46,3.67-5.28,5.23-8.47,1.47-2.98,2.46-5.64,2.96-7.97s.82-4.4,.94-6.21h-9.26v-6.3h17.14c-.04,3.57-.5,7.39-1.39,11.47Zm17.61,.06c-.78,3.99-1.9,7.75-3.37,11.28-1.64,3.99-3.69,7.7-6.14,11.12-2.46,3.42-4.42,5.87-5.89,7.34l-6.49-2.96c1.55-1.39,3.5-3.69,5.83-6.9,2.33-3.21,4.17-6.35,5.51-9.42,1.34-3.02,2.34-5.92,2.99-8.69,.65-2.77,1-5.1,1.04-6.99h-7.56v-6.3h15.43c-.13,3.7-.58,7.54-1.35,11.53Zm13.26,10.96v26.33h-7.31v-55.44h7.31v22.37h8.13v6.74h-8.13Z"/><path class="d" d="M383.93,1043.89v-6.36h13.8v-10.46h7.43v10.46h13.04v-10.46h7.5v10.46h13.67v6.36h-55.44Zm43.72-22.18c-3.91,2.77-9.24,4.16-16,4.16s-12.04-1.39-15.97-4.16-5.89-6.24-5.89-10.4,1.95-7.73,5.86-10.46c3.91-2.73,9.24-4.1,16-4.1s12.15,1.37,16.03,4.1c3.88,2.73,5.83,6.22,5.83,10.46s-1.95,7.62-5.86,10.4Zm-6.11-16.38c-2.69-1.47-5.99-2.21-9.89-2.21s-7.15,.76-9.86,2.27c-2.71,1.51-4.06,3.51-4.06,5.98s1.36,4.45,4.09,5.92c2.73,1.47,6.01,2.21,9.83,2.21s7.1-.75,9.83-2.24c2.73-1.49,4.09-3.45,4.09-5.89,0-2.56-1.34-4.58-4.03-6.05Z"/><path class="d" d="M471.94,999.29c3.11,3.23,4.24,6.97,3.4,11.21-.92,4.96-3.19,8.36-6.8,10.21-3.61,1.85-5.44,4.77-5.48,8.76v5.92h-7.5v-5.8c-.04-5.17,1.75-8.84,5.39-11.02,3.63-2.18,5.81-4.96,6.52-8.32,.46-2.18-.02-4.19-1.45-6.02-1.43-1.83-3.63-2.74-6.62-2.74s-5.34,.91-6.83,2.74c-1.49,1.83-2.15,4-1.98,6.52h-7.25c-.21-3.99,1-7.71,3.62-11.15,2.62-3.44,6.86-5.17,12.69-5.17,5.08,0,9.18,1.62,12.29,4.85Zm-17.01,50.59v-8.82h8.88v8.82h-8.88Z"/></g></g><g id="c"/></svg>